<svg width="40" height="40" viewBox="0 0 40 40" fill="none" xmlns="http://www.w3.org/2000/svg">
<path d="M3.33203 3.33203L36.6654 36.6654" stroke="#EC1B1B" stroke-width="3.33333" stroke-linecap="round" stroke-linejoin="round"/>
<path d="M13.918 4.48194C16.9357 3.30331 20.2315 3.02974 23.4022 3.69468C26.5729 4.35962 29.4811 5.93425 31.7711 8.22595C34.061 10.5177 35.6334 13.4271 36.2959 16.5983C36.9584 19.7696 36.6823 23.0651 35.5013 26.0819" stroke="#EC1B1B" stroke-width="3.33333" stroke-linecap="round" stroke-linejoin="round"/>
<path d="M31.8002 31.8031C30.2506 33.3527 28.411 34.5819 26.3863 35.4206C24.3617 36.2592 22.1917 36.6908 20.0002 36.6908C17.8088 36.6908 15.6388 36.2592 13.6141 35.4206C11.5895 34.5819 9.74982 33.3527 8.20022 31.8031C6.65062 30.2535 5.42141 28.4139 4.58278 26.3892C3.74414 24.3646 3.3125 22.1946 3.3125 20.0031C3.3125 17.8117 3.74414 15.6417 4.58278 13.617C5.42141 11.5924 6.65062 9.75272 8.20022 8.20312" stroke="#EC1B1B" stroke-width="3.33333" stroke-linecap="round" stroke-linejoin="round"/>
</svg>
