<svg width="69" height="25" viewBox="0 0 69 25" fill="none" xmlns="http://www.w3.org/2000/svg">
<path d="M26.6974 5.21484H24.4417V6.71508C23.337 5.78097 21.9105 5.21742 20.3526 5.21742C16.8532 5.21742 14.0078 8.06091 14.0078 11.558C14.0078 15.0551 16.8532 17.9012 20.3526 17.9012C21.9105 17.9012 23.337 17.3351 24.4417 16.4035V17.9012C24.4417 18.5034 24.3104 19.0746 24.0761 19.5893C23.4349 21.0046 22.0058 21.9902 20.3526 21.9902C19.9612 21.9902 19.5827 21.9336 19.2273 21.8306C18.5501 21.6402 17.945 21.2748 17.4609 20.791L15.867 22.3839C16.1039 22.6181 16.3588 22.8368 16.6292 23.0324C17.6746 23.7941 18.9621 24.2444 20.3526 24.2444C23.6872 24.2444 26.4322 21.6582 26.6794 18.3876C26.6923 18.228 26.6974 18.0659 26.6974 17.9012V11.5966C26.6974 11.5838 26.7 11.5709 26.7 11.558C26.7 11.5452 26.6974 11.5323 26.6974 11.5194V5.21484ZM24.4417 11.5786C24.4314 13.8225 22.6032 15.647 20.3526 15.647C18.0969 15.647 16.2609 13.8122 16.2609 11.558C16.2609 9.30382 18.0969 7.47163 20.3526 7.47163C22.6032 7.47163 24.4314 9.29352 24.4417 11.54V11.5786Z" fill="black"/>
<path d="M62.2937 11.558V5.21742H60.038V11.576C60.0303 13.8225 58.1995 15.6496 55.9489 15.6496C53.6932 15.6496 51.8573 13.8148 51.8573 11.5606V5.21484H49.6016V11.558C49.6016 15.0551 52.4495 17.9012 55.9489 17.9012C57.5042 17.9012 58.9308 17.3377 60.038 16.4035V17.8575C60.038 17.8575 60.038 17.8575 60.0355 17.8575C60.038 17.8729 60.038 17.8832 60.038 17.8986C60.038 18.5008 59.9067 19.0721 59.6724 19.5867C59.0312 21.002 57.6047 21.9876 55.9515 21.9902C55.5627 21.9902 55.1816 21.9361 54.8262 21.8332C54.149 21.6402 53.5439 21.2774 53.0598 20.7936L51.4684 22.3865C51.7053 22.6232 51.9577 22.8394 52.2306 23.0349C53.2761 23.7966 54.5662 24.2444 55.9541 24.2444C59.2913 24.2418 62.0311 21.6531 62.2783 18.3824C62.2912 18.2229 62.2963 18.0633 62.2963 17.9012V11.5889C62.2937 11.5786 62.2963 11.5683 62.2937 11.558Z" fill="black"/>
<path d="M10.4365 6.7125C9.32923 5.7784 7.90268 5.21484 6.3448 5.21484C2.84538 5.21484 0 8.05834 0 11.5555C0 15.0526 2.84538 17.8986 6.3448 17.8986C7.90268 17.8986 9.32923 17.3325 10.4365 16.3984V17.8986H12.6922V5.21484H10.4365V6.7125ZM6.3448 15.6444C4.0891 15.6444 2.2557 13.8097 2.2557 11.5555C2.2557 9.30124 4.0891 7.46905 6.3448 7.46905C8.6005 7.46905 10.4365 9.30124 10.4365 11.5555C10.4365 13.8097 8.6005 15.6444 6.3448 15.6444Z" fill="black"/>
<path d="M30.4198 6.71508V5.21742H28.1641V17.9012H30.4198V12.6851V11.558C30.4198 9.30382 32.2557 7.46905 34.5114 7.46905H35.6393V5.21484H34.5114C32.9536 5.21742 31.527 5.78097 30.4198 6.71508Z" fill="black"/>
<path d="M40.7812 6.34318V17.8999H43.0369V7.47029H48.2565V5.21608H43.1992C43.691 3.50998 45.2643 2.25421 47.1286 2.25421H48.2565V0H47.1286C43.6292 0 40.7812 2.84607 40.7812 6.34318Z" fill="black"/>
<path d="M37.0234 5.21094V12.1074V17.8973H39.2791V12.1074V6.3998V5.21094H39.1658H37.0234Z" fill="black"/>
<path d="M68.2913 5.34333C67.0705 5.01646 65.7106 5.33304 64.7525 6.29049C63.7918 7.25052 63.4776 8.60692 63.8047 9.82948C65.0255 10.1564 66.3854 9.83977 67.3435 8.87974C68.3016 7.92229 68.6183 6.56332 68.2913 5.34333Z" fill="black"/>
</svg>
