<svg width="116" height="42" viewBox="0 0 116 42" fill="none" xmlns="http://www.w3.org/2000/svg">
<g clip-path="url(#clip0_8203_1119)">
<path d="M114.839 9.59241C112.786 9.04248 110.5 9.57509 108.889 11.1859C107.274 12.801 106.745 15.083 107.295 17.1399C109.348 17.6898 111.634 17.1572 113.245 15.542C114.856 13.9312 115.388 11.6449 114.839 9.59241Z" fill="#0CC14C"/>
<path d="M44.8864 9.37598H41.0931V11.9005C39.2355 10.3286 36.8366 9.38031 34.2169 9.38031C28.3322 9.38031 23.5474 14.1651 23.5474 20.0498C23.5474 25.9345 28.3322 30.7236 34.2169 30.7236C36.8366 30.7236 39.2355 29.771 41.0931 28.2035V30.7236C41.0931 31.7369 40.8723 32.6982 40.4783 33.5642C39.4 35.9458 36.9968 37.6042 34.2169 37.6042C33.5587 37.6042 32.9221 37.509 32.3246 37.3358C31.1858 37.0153 30.1682 36.4005 29.3541 35.5864L26.6737 38.2668C27.0721 38.6608 27.5008 39.0289 27.9555 39.3579C29.7135 40.6397 31.8786 41.3974 34.2169 41.3974C39.8244 41.3974 44.4403 37.0456 44.856 31.542C44.8777 31.2736 44.8864 31.0008 44.8864 30.7236V20.1148C44.8864 20.0931 44.8907 20.0715 44.8907 20.0498C44.8907 20.0282 44.8864 20.0065 44.8864 19.9848V9.37598ZM41.0931 20.0844C41.0758 23.8603 38.0014 26.9304 34.2169 26.9304C30.4236 26.9304 27.3362 23.843 27.3362 20.0498C27.3362 16.2566 30.4236 13.1735 34.2169 13.1735C38.0014 13.1735 41.0758 16.2393 41.0931 20.0195V20.0844Z" fill="#0CC14C"/>
<path d="M104.751 20.0498V9.38031H100.957V20.0801C100.944 23.8603 97.8657 26.9347 94.0812 26.9347C90.288 26.9347 87.2006 23.8473 87.2006 20.0541V9.37598H83.4073V20.0498C83.4073 25.9345 88.1965 30.7236 94.0812 30.7236C96.6966 30.7236 99.0955 29.7753 100.957 28.2035V30.65C100.957 30.65 100.957 30.65 100.953 30.65C100.957 30.676 100.957 30.6933 100.957 30.7193C100.957 31.7326 100.737 32.6938 100.343 33.5599C99.2644 35.9415 96.8655 37.5999 94.0855 37.6042C93.4317 37.6042 92.7908 37.5133 92.1932 37.3401C91.0544 37.0153 90.0368 36.4048 89.2227 35.5907L86.5467 38.2711C86.9451 38.6695 87.3694 39.0332 87.8284 39.3623C89.5865 40.644 91.7559 41.3974 94.0898 41.3974C99.7017 41.3931 104.309 37.037 104.725 31.5334C104.746 31.2649 104.755 30.9964 104.755 30.7236V20.1018C104.751 20.0844 104.755 20.0671 104.751 20.0498Z" fill="#0CC14C"/>
<path d="M17.5501 11.9005C15.6881 10.3287 13.2892 9.38037 10.6695 9.38037C4.78482 9.38037 0 14.1652 0 20.0499C0 25.9345 4.78482 30.7237 10.6695 30.7237C13.2892 30.7237 15.6881 29.7711 17.5501 28.1992V30.7237H21.3433V9.38037H17.5501V11.9005ZM10.6695 26.9305C6.87628 26.9305 3.79321 23.8431 3.79321 20.0499C3.79321 16.2567 6.87628 13.1736 10.6695 13.1736C14.4627 13.1736 17.5501 16.2567 17.5501 20.0499C17.5501 23.8431 14.4627 26.9305 10.6695 26.9305Z" fill="#0CC14C"/>
<path d="M51.1477 11.9005V9.38031H47.3545V30.7236H51.1477V21.9464V20.0498C51.1477 16.2566 54.2351 13.1692 58.0283 13.1692H59.9249V9.37598H58.0283C55.4086 9.38031 53.0097 10.3286 51.1477 11.9005Z" fill="#0CC14C"/>
<path d="M68.5809 11.2769V30.7236H72.3741V13.1735H81.1513V9.38025H72.6469C73.474 6.50935 76.1197 4.39624 79.2547 4.39624H81.1513V0.603027H79.2547C73.3701 0.603027 68.5809 5.39217 68.5809 11.2769Z" fill="#0CC14C"/>
<path d="M62.2605 9.37598V20.9808V30.7236H66.0537V20.9808V11.3765V9.37598H65.8632H62.2605Z" fill="#0CC14C"/>
</g>
<defs>
<clipPath id="clip0_8203_1119">
<rect width="115.048" height="40.7944" fill="white" transform="translate(0 0.603027)"/>
</clipPath>
</defs>
</svg>
