<svg width="42" height="29" viewBox="0 0 42 29" fill="none" xmlns="http://www.w3.org/2000/svg">
<path d="M41.0986 0.278081C38.3922 -0.447059 35.3774 0.255242 33.2534 2.37928C31.1237 4.50902 30.4271 7.51807 31.1522 10.2302C33.8586 10.9553 36.8734 10.253 38.9974 8.1233C41.1214 5.99927 41.8237 2.98451 41.0986 0.278081Z" fill="#0CC14C"/>
<path d="M23.7628 3.32308C21.3076 1.25044 18.1444 0 14.69 0C6.93039 0 0.621094 6.30929 0.621094 14.0689C0.621094 21.8284 6.93039 28.1434 14.69 28.1434C18.1444 28.1434 21.3076 26.8873 23.7628 24.8147V28.1434H28.7645V0H23.7628V3.32308ZM14.69 23.1417C9.6882 23.1417 5.62285 19.0706 5.62285 14.0689C5.62285 9.06711 9.6882 5.00176 14.69 5.00176C19.6917 5.00176 23.7628 9.06711 23.7628 14.0689C23.7628 19.0706 19.6917 23.1417 14.69 23.1417Z" fill="#0CC14C"/>
</svg>
