<svg width="69" height="25" viewBox="0 0 69 25" fill="none" xmlns="http://www.w3.org/2000/svg">
<path d="M27.2638 5.55658H25.0081V7.05681C23.9034 6.12271 22.4769 5.55915 20.919 5.55915C17.4196 5.55915 14.5742 8.40265 14.5742 11.8998C14.5742 15.3969 17.4196 18.2429 20.919 18.2429C22.4769 18.2429 23.9034 17.6768 25.0081 16.7453V18.2429C25.0081 18.8451 24.8768 19.4164 24.6425 19.931C24.0013 21.3463 22.5722 22.3319 20.919 22.3319C20.5276 22.3319 20.1491 22.2753 19.7937 22.1724C19.1165 21.9819 18.5114 21.6165 18.0273 21.1328L16.4334 22.7256C16.6703 22.9598 16.9252 23.1785 17.1956 23.3741C18.241 24.1358 19.5285 24.5861 20.919 24.5861C24.2536 24.5861 26.9986 22 27.2458 18.7293C27.2587 18.5698 27.2638 18.4076 27.2638 18.2429V11.9384C27.2638 11.9255 27.2664 11.9126 27.2664 11.8998C27.2664 11.8869 27.2638 11.874 27.2638 11.8612V5.55658ZM25.0081 11.9203C24.9978 14.1643 23.1696 15.9887 20.919 15.9887C18.6633 15.9887 16.8273 14.154 16.8273 11.8998C16.8273 9.64555 18.6633 7.81336 20.919 7.81336C23.1696 7.81336 24.9978 9.63526 25.0081 11.8817V11.9203Z" fill="black"/>
<path d="M62.8641 11.8998V5.55915H60.6084V11.9178C60.6006 14.1643 58.7698 15.9913 56.5193 15.9913C54.2636 15.9913 52.4276 14.1565 52.4276 11.9023V5.55658H50.1719V11.8998C50.1719 15.3969 53.0198 18.2429 56.5193 18.2429C58.0746 18.2429 59.5011 17.6794 60.6084 16.7453V18.1992C60.6084 18.1992 60.6084 18.1992 60.6058 18.1992C60.6084 18.2146 60.6084 18.2249 60.6084 18.2404C60.6084 18.8425 60.477 19.4138 60.2427 19.9285C59.6015 21.3438 58.175 22.3293 56.5218 22.3319C56.133 22.3319 55.7519 22.2779 55.3966 22.1749C54.7193 21.9819 54.1142 21.6191 53.6301 21.1353L52.0388 22.7282C52.2757 22.9649 52.528 23.1811 52.801 23.3767C53.8464 24.1384 55.1365 24.5861 56.5244 24.5861C59.8616 24.5836 62.6014 21.9948 62.8486 18.7242C62.8615 18.5646 62.8666 18.4051 62.8666 18.2429V11.9306C62.8641 11.9203 62.8666 11.9101 62.8641 11.8998Z" fill="black"/>
<path d="M11.0068 7.05619C9.89954 6.12209 8.47299 5.55853 6.91511 5.55853C3.41569 5.55853 0.570312 8.40203 0.570312 11.8991C0.570312 15.3963 3.41569 18.2423 6.91511 18.2423C8.47299 18.2423 9.89954 17.6762 11.0068 16.7421V18.2423H13.2625V5.55853H11.0068V7.05619ZM6.91511 15.9881C4.65941 15.9881 2.82601 14.1534 2.82601 11.8991C2.82601 9.64493 4.65941 7.81274 6.91511 7.81274C9.17081 7.81274 11.0068 9.64493 11.0068 11.8991C11.0068 14.1534 9.17081 15.9881 6.91511 15.9881Z" fill="black"/>
<path d="M30.9862 7.05681V5.55915H28.7305V18.2429H30.9862V13.0269V11.8998C30.9862 9.64555 32.8221 7.81079 35.0778 7.81079H36.2057V5.55658H35.0778C33.52 5.55915 32.0934 6.12271 30.9862 7.05681Z" fill="black"/>
<path d="M41.3516 6.68583V18.2425H43.6073V7.81294H48.8268V5.55873H43.7695C44.2613 3.85263 45.8346 2.59686 47.6989 2.59686H48.8268V0.342651H47.6989C44.1995 0.342651 41.3516 3.18872 41.3516 6.68583Z" fill="black"/>
<path d="M37.5938 5.55475V12.4512V18.2411H39.8494V12.4512V6.74361V5.55475H39.7362H37.5938Z" fill="black"/>
<path d="M68.8616 5.68494C67.6408 5.35807 66.2809 5.67465 65.3228 6.63211C64.3622 7.59214 64.0479 8.94853 64.375 10.1711C65.5958 10.498 66.9557 10.1814 67.9138 9.22136C68.8719 8.2639 69.1887 6.90493 68.8616 5.68494Z" fill="black"/>
</svg>
