<svg width="18" height="18" viewBox="0 0 18 18" fill="none" xmlns="http://www.w3.org/2000/svg">
<path d="M10.642 8.43825L8.99989 6.79618C8.78021 6.57652 8.78021 6.22036 8.99989 6.00069C9.21956 5.78102 9.57574 5.78102 9.79541 6.00069L12.3978 8.60302C12.6174 8.8227 12.6174 9.17887 12.3978 9.39855L9.79556 12.0007C9.57589 12.2203 9.21979 12.2203 9.00011 12.0007C8.78044 11.781 8.78044 11.4249 9.00011 11.2052L10.642 9.56325H5.8125C5.50184 9.56325 5.25 9.31147 5.25 9.00075C5.25 8.6901 5.50184 8.43825 5.8125 8.43825H10.642Z" fill="#0CC14C"/>
<path fill-rule="evenodd" clip-rule="evenodd" d="M16.5 9.00002C16.5 13.1421 13.1421 16.5 9.00004 16.5C4.85787 16.5 1.5 13.1421 1.5 9.00002C1.5 4.85786 4.85787 1.5 9.00004 1.5C13.1421 1.5 16.5 4.85786 16.5 9.00002ZM9.00004 2.625C12.5208 2.625 15.375 5.47919 15.375 9.00002C15.375 12.5208 12.5208 15.375 9.00004 15.375C5.47918 15.375 2.625 12.5208 2.625 9.00002C2.625 5.47919 5.47918 2.625 9.00004 2.625Z" fill="#0CC14C"/>
</svg>
