<svg width="66" height="58" viewBox="0 0 66 58" fill="none" xmlns="http://www.w3.org/2000/svg">
<path d="M36.516 51.0884C36.516 51.0884 46.9914 53.8416 53.9579 51.0258C60.9244 48.2101 66.48 41.0395 65.2301 32.6713C63.9791 24.3041 56.8095 19.05 46.3505 20.7675C35.8915 22.4851 29.9186 32.4498 29.9186 32.4498C29.9186 32.4498 23.4002 41.543 27.2546 46.2383C31.1091 50.9336 36.516 51.0884 36.516 51.0884Z" fill="#82624D" stroke="black" stroke-width="0.205079" stroke-miterlimit="10"/>
<path d="M57.066 49.4211C57.066 49.4211 54.1816 52.4255 49.8391 49.6416C49.8391 49.6416 45.2391 47.5847 43.5667 44.8181C41.8943 42.0516 39.8015 38.5253 40.8638 32.1484C41.9261 25.7715 46.4788 22.9188 47.1956 22.4748C47.9123 22.0308 51.8755 20.2723 53.8504 20.786C55.8253 21.2997 62.032 22.8286 63.6306 27.7505C65.2292 32.6724 66.6873 34.0874 63.6819 42.1921C63.6819 42.1921 60.174 47.8154 57.066 49.4211Z" fill="#E8B497" stroke="black" stroke-width="0.205079" stroke-miterlimit="10"/>
<path d="M53.9582 51.0268C53.9582 51.0268 53.2578 50.9028 52.1781 50.5552C48.6333 49.4139 40.9982 45.866 40.6014 36.3965C40.0836 24.0416 49.9919 21.0259 50.7107 20.7531" stroke="black" stroke-width="0.205079" stroke-miterlimit="10"/>
<path d="M43.3987 52.4819C35.6508 47.6051 31.3698 37.7696 33.0822 28.7758" stroke="black" stroke-width="0.205079" stroke-miterlimit="10"/>
<path d="M33.403 50.428C31.866 47.5928 30.5965 44.6141 29.6152 41.543C29.322 40.6243 29.0512 39.6676 29.1569 38.7088" stroke="black" stroke-width="0.205079" stroke-miterlimit="10"/>
<path d="M39.1209 42.0158C37.3501 36.8581 35.5587 31.3425 36.8814 26.0525C36.983 25.6475 37.1593 25.186 37.5603 25.0702" stroke="black" stroke-width="0.205079" stroke-miterlimit="10"/>
<path d="M39.0275 40.7996C38.2841 41.2928 37.4494 41.6486 36.5789 41.8435" stroke="black" stroke-width="0.205079" stroke-miterlimit="10"/>
<path d="M38.3025 40.1454C37.2054 40.2684 36.1072 40.3925 35.01 40.5156" stroke="black" stroke-width="0.205079" stroke-miterlimit="10"/>
<path d="M37.9505 38.915C37.08 38.9919 36.2135 39.1109 35.3542 39.2688" stroke="black" stroke-width="0.205079" stroke-miterlimit="10"/>
<path d="M37.4318 37.8117C36.3982 38.0516 35.3503 38.227 34.2952 38.3377" stroke="black" stroke-width="0.205079" stroke-miterlimit="10"/>
<path d="M36.8987 36.374C35.8559 36.5165 34.8131 36.6601 33.7703 36.8026" stroke="black" stroke-width="0.205079" stroke-miterlimit="10"/>
<path d="M36.5377 35.1004C35.7225 35.2143 34.9166 35.3865 34.126 35.6142" stroke="black" stroke-width="0.205079" stroke-miterlimit="10"/>
<path d="M36.0414 33.7295C35.337 33.5921 34.5874 33.7008 33.9517 34.0331" stroke="black" stroke-width="0.205079" stroke-miterlimit="10"/>
<path d="M36.1912 32.0541C35.4908 32.1361 34.7782 32.1156 34.084 31.9926" stroke="black" stroke-width="0.205079" stroke-miterlimit="10"/>
<path d="M36.1882 30.4667C35.3341 30.4657 34.4799 30.2462 33.7324 29.833" stroke="black" stroke-width="0.205079" stroke-miterlimit="10"/>
<path d="M36.3625 29.3726C35.5842 29.4075 34.7978 29.2639 34.082 28.9573" stroke="black" stroke-width="0.205079" stroke-miterlimit="10"/>
<path d="M36.7143 27.4838C36.0058 27.2931 35.2962 27.1014 34.5876 26.9106" stroke="black" stroke-width="0.205079" stroke-miterlimit="10"/>
<path d="M39.9184 49.8313C38.7546 49.9236 37.5815 49.8969 36.4229 49.7523" stroke="black" stroke-width="0.205079" stroke-miterlimit="10"/>
<path d="M38.3457 48.1179C37.2998 48.3527 36.2539 48.5885 35.208 48.8233" stroke="black" stroke-width="0.205079" stroke-miterlimit="10"/>
<path d="M37.4688 47.4155C36.5972 47.4185 35.7246 47.4216 34.853 47.4247" stroke="black" stroke-width="0.205079" stroke-miterlimit="10"/>
<path d="M36.5932 46.2065C35.9543 46.2752 35.3166 46.345 34.6777 46.4137" stroke="black" stroke-width="0.205079" stroke-miterlimit="10"/>
<path d="M35.7156 44.9791C34.9876 45.2262 34.2185 45.3503 33.4495 45.3431" stroke="black" stroke-width="0.205079" stroke-miterlimit="10"/>
<path d="M34.4941 44.2941C33.8532 44.4049 33.2134 44.5156 32.5725 44.6264" stroke="black" stroke-width="0.205079" stroke-miterlimit="10"/>
<path d="M34.3074 42.348C33.5486 42.508 32.7898 42.6669 32.031 42.8269" stroke="black" stroke-width="0.205079" stroke-miterlimit="10"/>
<path d="M33.7733 40.7627C33.0186 40.9432 32.2649 41.1247 31.5103 41.3052" stroke="black" stroke-width="0.205079" stroke-miterlimit="10"/>
<path d="M33.6022 39.0544C32.6917 39.2102 31.8057 39.5056 30.9844 39.927" stroke="black" stroke-width="0.205079" stroke-miterlimit="10"/>
<path d="M33.0596 37.4578C32.2475 37.8116 31.4364 38.1653 30.6243 38.5201" stroke="black" stroke-width="0.205079" stroke-miterlimit="10"/>
<path d="M33.2339 35.201C32.2177 35.4645 31.2262 35.8285 30.2808 36.2848" stroke="black" stroke-width="0.205079" stroke-miterlimit="10"/>
<path d="M49.3798 52.3671C46.24 50.7521 43.5453 48.284 41.6606 45.2991" stroke="black" stroke-width="0.205079" stroke-miterlimit="10"/>
<path d="M31.5533 47.1765C30.7432 47.035 29.8993 47.0842 29.1118 47.3201" stroke="black" stroke-width="0.205079" stroke-miterlimit="10"/>
<path d="M30.3219 45.7922C29.6205 45.7061 28.9191 45.621 28.2178 45.5348" stroke="black" stroke-width="0.205079" stroke-miterlimit="10"/>
<path d="M30.3065 44.6346C29.4319 44.7105 28.549 44.693 27.6785 44.5813" stroke="black" stroke-width="0.205079" stroke-miterlimit="10"/>
<path d="M29.4248 42.8719C28.8455 42.9458 28.2661 43.0186 27.6868 43.0924" stroke="black" stroke-width="0.205079" stroke-miterlimit="10"/>
<path d="M29.0595 41.6537C28.5191 41.9091 27.8782 41.9439 27.3132 41.7491" stroke="black" stroke-width="0.205079" stroke-miterlimit="10"/>
<path d="M28.8923 39.9301C29.0328 39.8747 29.0471 39.642 28.9148 39.5692C28.3037 39.7476 27.7151 40.0019 27.1655 40.3228" stroke="black" stroke-width="0.205079" stroke-miterlimit="10"/>
<path d="M32.2424 48.3177C31.4355 48.4757 30.6849 48.9094 30.1455 49.5298" stroke="black" stroke-width="0.205079" stroke-miterlimit="10"/>
<path d="M39.1116 30.879C38.9865 28.2847 39.6806 25.6566 41.069 23.4623C41.2864 23.1188 41.8135 22.7804 42.0226 23.1291" stroke="black" stroke-width="0.205079" stroke-miterlimit="10"/>
<path d="M38.6296 1.21437C38.6296 1.21437 32.1583 0.921106 24.9826 7.72869C17.8069 14.5363 6.84956 23.489 4.11586 27.3065C1.38216 31.1241 -0.22668 42.0958 2.16556 47.9302C4.5578 53.7647 9.92881 56.1549 14.1996 55.1818C18.4703 54.2087 20.1786 53.8857 24.4494 51.1305C28.7202 48.3753 34.0163 46.5931 36.5788 37.1923C39.1412 27.7915 41.0208 22.9301 43.2418 19.6889C45.4628 16.4476 47.854 12.2343 47.6838 8.50594C47.5136 4.77761 45.2915 -0.082754 38.6296 1.21437Z" fill="#82624D" stroke="black" stroke-width="0.205079" stroke-miterlimit="10"/>
<path d="M11.8699 24.4087C16.8984 26.5036 21.4614 29.5962 25.1805 33.4301C27.6435 35.969 29.8266 39.0872 29.7876 42.5366" stroke="black" stroke-width="0.205079" stroke-miterlimit="10"/>
<path d="M7.50488 30.6051C15.8772 34.8298 22.4859 42.1049 25.6533 50.5849" stroke="black" stroke-width="0.205079" stroke-miterlimit="10"/>
<path d="M4.79346 39.8019C10.0558 42.6987 14.384 47.1017 17.0643 52.2841" stroke="black" stroke-width="0.205079" stroke-miterlimit="10"/>
<path d="M23.7192 13.8861C26.8703 14.5239 29.6963 16.2661 31.908 18.4891C34.1198 20.7122 35.7543 23.3987 37.0781 26.1847" stroke="black" stroke-width="0.205079" stroke-miterlimit="10"/>
<path d="M14.5378 26.1673C13.2448 27.0706 12.2245 28.3206 11.6267 29.7336" stroke="black" stroke-width="0.205079" stroke-miterlimit="10"/>
<path d="M16.6051 27.1516C15.9652 28.3339 15.3254 29.5152 14.6855 30.6974" stroke="black" stroke-width="0.205079" stroke-miterlimit="10"/>
<path d="M19.5224 29.1019C18.8703 30.3867 18.2181 31.6716 17.5649 32.9564" stroke="black" stroke-width="0.205079" stroke-miterlimit="10"/>
<path d="M21.7436 31.2163C20.9305 32.213 20.2394 33.2999 19.6887 34.4474" stroke="black" stroke-width="0.205079" stroke-miterlimit="10"/>
<path d="M24.7549 33.5881C23.3942 34.7017 22.3914 36.2049 21.9146 37.8486" stroke="black" stroke-width="0.205079" stroke-miterlimit="10"/>
<path d="M26.0439 37.2251C25.3148 38.3879 24.5848 39.5497 23.8557 40.7125" stroke="black" stroke-width="0.205079" stroke-miterlimit="10"/>
<path d="M9.36075 31.4357C8.55171 32.5236 7.74165 33.6116 6.93262 34.7006" stroke="black" stroke-width="0.205079" stroke-miterlimit="10"/>
<path d="M11.1837 32.86C10.2783 33.9756 9.45796 35.1538 8.73096 36.3812" stroke="black" stroke-width="0.205079" stroke-miterlimit="10"/>
<path d="M13.5586 34.1397C12.7424 35.2994 11.8606 36.4171 10.9172 37.4876" stroke="black" stroke-width="0.205079" stroke-miterlimit="10"/>
<path d="M16.0369 36.3228C14.8239 37.098 13.7329 38.0434 12.811 39.12" stroke="black" stroke-width="0.205079" stroke-miterlimit="10"/>
<path d="M18.0866 38.5438C17.3401 40.1383 16.5937 41.7317 15.8472 43.3262" stroke="black" stroke-width="0.205079" stroke-miterlimit="10"/>
<path d="M20.5008 41.2365C19.8466 42.8402 18.9956 44.3711 17.9712 45.7902" stroke="black" stroke-width="0.205079" stroke-miterlimit="10"/>
<path d="M23.4211 45.4539C22.4049 46.3255 21.4206 47.2299 20.469 48.1661" stroke="black" stroke-width="0.205079" stroke-miterlimit="10"/>
<path d="M7.44224 41.8291C6.5522 42.4536 5.60064 43.0012 4.60498 43.4605" stroke="black" stroke-width="0.205079" stroke-miterlimit="10"/>
<path d="M8.61461 42.5715C7.89991 43.6872 7.18418 44.8038 6.46948 45.9194" stroke="black" stroke-width="0.205079" stroke-miterlimit="10"/>
<path d="M10.8055 44.3454C9.78116 45.2806 8.98032 46.4352 8.48096 47.6974" stroke="black" stroke-width="0.205079" stroke-miterlimit="10"/>
<path d="M13.536 46.9345C12.5517 47.9569 11.6114 49.0171 10.7183 50.1112" stroke="black" stroke-width="0.205079" stroke-miterlimit="10"/>
<path d="M15.1224 49.7093C14.4456 50.8188 13.6191 51.8462 12.6707 52.7588" stroke="black" stroke-width="0.205079" stroke-miterlimit="10"/>
<path d="M6.01143 41.1042C5.20855 41.5266 4.40567 41.9491 3.60278 42.3715" stroke="black" stroke-width="0.205079" stroke-miterlimit="10"/>
<path d="M14.2016 48.2143C13.4172 49.1884 12.4913 50.06 11.4597 50.7972" stroke="black" stroke-width="0.205079" stroke-miterlimit="10"/>
<path d="M27.0508 15.1874C25.9485 16.2487 24.8462 17.3099 23.7439 18.3712" stroke="black" stroke-width="0.205079" stroke-miterlimit="10"/>
<path d="M29.2347 16.1256C28.318 17.4442 27.2875 18.6921 26.1575 19.8508" stroke="black" stroke-width="0.205079" stroke-miterlimit="10"/>
<path d="M31.7921 18.2286C31.0651 19.5432 30.1946 20.786 29.2 21.9313" stroke="black" stroke-width="0.205079" stroke-miterlimit="10"/>
<path d="M33.5734 21.0126C32.8751 22.6276 32.1768 24.2426 31.4785 25.8576" stroke="black" stroke-width="0.205079" stroke-miterlimit="10"/>
<path d="M35.4335 23.1004C35.2162 24.5369 34.5302 25.9058 33.4915 26.9723" stroke="black" stroke-width="0.205079" stroke-miterlimit="10"/>
<path d="M25.9847 14.4983C24.7942 15.1618 23.7452 16.0518 22.9177 17.0997" stroke="black" stroke-width="0.205079" stroke-miterlimit="10"/>
<path d="M24.6472 23.6909C29.5619 26.1775 33.481 30.3867 35.4754 35.3199C35.8701 36.296 36.1952 37.3225 36.1449 38.3663" stroke="black" stroke-width="0.205079" stroke-miterlimit="10"/>
<path d="M29.5793 6.54224C33.8624 7.38408 37.6461 10.2521 39.459 14.0276" stroke="black" stroke-width="0.205079" stroke-miterlimit="10"/>
<path d="M31.3187 7.23648C30.4922 8.24137 29.6658 9.24625 28.8403 10.2511" stroke="black" stroke-width="0.205079" stroke-miterlimit="10"/>
<path d="M34.3426 8.49362C33.4793 9.40417 32.6148 10.3137 31.7515 11.2242" stroke="black" stroke-width="0.205079" stroke-miterlimit="10"/>
<path d="M36.6904 10.6418C36.4587 11.4939 36.0547 12.303 35.5061 13.0126" stroke="black" stroke-width="0.205079" stroke-miterlimit="10"/>
<path d="M38.528 11.9246C38.3271 12.8413 37.8031 13.6913 37.0576 14.3056" stroke="black" stroke-width="0.205079" stroke-miterlimit="10"/>
<path d="M39.4578 5.56406C42.4027 7.08266 44.6821 9.72613 45.6655 12.7664C45.8931 13.4698 46.0551 14.2184 45.8962 14.9392" stroke="black" stroke-width="0.205079" stroke-miterlimit="10"/>
<path d="M35.3831 2.50534C38.5074 2.65607 41.5539 3.96447 43.7349 6.09422" stroke="black" stroke-width="0.205079" stroke-miterlimit="10"/>
<path d="M15.5829 26.3385C15.2681 27.4685 14.658 28.5236 13.8223 29.3819" stroke="black" stroke-width="0.205079" stroke-miterlimit="10"/>
<path d="M18.1035 27.7813C17.4718 29.0251 16.7325 30.2207 15.8948 31.3496" stroke="black" stroke-width="0.205079" stroke-miterlimit="10"/>
<path d="M20.7221 29.5911C20.0781 30.7169 19.4352 31.8418 18.7913 32.9677" stroke="black" stroke-width="0.205079" stroke-miterlimit="10"/>
<path d="M22.9307 31.527C22.458 32.8128 21.7576 34.0228 20.8696 35.0923" stroke="black" stroke-width="0.205079" stroke-miterlimit="10"/>
<path d="M25.962 34.4207C25.2145 35.443 24.468 36.4643 23.7205 37.4866" stroke="black" stroke-width="0.205079" stroke-miterlimit="10"/>
<path d="M27.9356 36.735C27.2271 38.2916 26.5196 39.8481 25.811 41.4047" stroke="black" stroke-width="0.205079" stroke-miterlimit="10"/>
<path d="M28.7151 38.8104C28.1491 39.8388 27.5831 40.8663 27.0171 41.8947" stroke="black" stroke-width="0.205079" stroke-miterlimit="10"/>
<path d="M12.7043 33.1687C11.9978 34.1254 11.2913 35.0821 10.5837 36.0388" stroke="black" stroke-width="0.205079" stroke-miterlimit="10"/>
<path d="M14.7727 35.32C13.8293 36.0419 12.9721 36.8653 12.2256 37.7717" stroke="black" stroke-width="0.205079" stroke-miterlimit="10"/>
<path d="M16.9261 37.5112C15.9602 38.5397 14.9942 39.5671 14.0283 40.5956" stroke="black" stroke-width="0.205079" stroke-miterlimit="10"/>
<path d="M19.3429 40.6068C18.5544 41.8537 17.7648 43.1016 16.9763 44.3485" stroke="black" stroke-width="0.205079" stroke-miterlimit="10"/>
<path d="M22.0961 42.8812C21.4471 44.2757 20.6883 45.6241 19.8259 46.91" stroke="black" stroke-width="0.205079" stroke-miterlimit="10"/>
<path d="M12.0391 45.8404C11.0342 46.7776 10.0293 47.7138 9.02441 48.651" stroke="black" stroke-width="0.205079" stroke-miterlimit="10"/>
<path d="M30.3105 16.9767C29.2615 18.1456 28.2125 19.3156 27.1646 20.4845" stroke="black" stroke-width="0.205079" stroke-miterlimit="10"/>
<path d="M35.7103 9.1478C34.9823 10.5321 33.9302 11.7615 32.6526 12.7223" stroke="black" stroke-width="0.205079" stroke-miterlimit="10"/>
<path d="M32.6915 7.7287C31.9645 8.60541 31.0724 9.35805 30.0706 9.94047" stroke="black" stroke-width="0.205079" stroke-miterlimit="10"/>
<path d="M24.0033 46.7962C23.3009 47.796 22.538 48.7578 21.7197 49.6745" stroke="black" stroke-width="0.205079" stroke-miterlimit="10"/>
<path d="M24.4678 48.5434C24.0576 49.6129 23.5326 50.6424 22.9041 51.6114" stroke="black" stroke-width="0.205079" stroke-miterlimit="10"/>
<path opacity="0.24" d="M43.2417 19.6899C43.2417 19.6899 30.1598 45.2314 18.5431 49.5063C6.92643 53.7812 2.16553 47.9303 2.16553 47.9303C2.16553 47.9303 5.63751 56.4862 14.1995 55.1819C14.1995 55.1819 20.8636 54.0621 27.6783 49.1782C27.6783 49.1782 35.4621 46.0036 37.802 33.1687C37.8031 33.1687 41.8359 21.8638 43.2417 19.6899Z" fill="#0A0A0A" stroke="black" stroke-width="0.102539" stroke-miterlimit="10"/>
<path opacity="0.24" d="M42.565 43.0924C42.565 43.0924 36.1338 43.1201 35.0694 41.4036C35.0694 41.4036 33.0627 45.2108 29.7876 47.8758L28.9929 48.3332C28.9929 48.3332 29.2964 48.6346 30.1455 48.9228C30.9935 49.2109 32.1491 50.8915 37.8031 51.3817C37.8031 51.3817 43.3197 52.649 47.0562 52.283C50.7928 51.9169 51.2081 51.9005 52.1781 51.6113C52.1781 51.6113 54.517 51.4678 52.1781 50.5542C49.8392 49.6405 44.6138 47.2668 42.565 43.0924Z" fill="#0A0A0A" stroke="black" stroke-width="0.102539" stroke-miterlimit="10"/>
<path opacity="0.24" d="M3.603 51.6124C3.603 51.6124 9.03348 59.0896 19.3428 56.4266C29.6521 53.7637 25.814 53.0141 31.3809 53.3023C36.9477 53.5904 47.0561 52.284 47.0561 52.284C47.0561 52.284 36.8688 52.3927 30.1453 48.9238C30.1453 48.9238 29.8746 47.0258 27.6792 49.1792L24.2882 51.2351C24.2882 51.2351 21.5679 52.9782 18.544 54.0918C15.5201 55.2054 11.1468 56.3487 8.14754 54.4497C5.14724 52.5496 2.97135 50.0107 3.603 51.6124Z" fill="#0A0A0A" stroke="black" stroke-width="0.102539" stroke-miterlimit="10"/>
</svg>
