<svg width="59" height="56" viewBox="0 0 59 56" fill="none" xmlns="http://www.w3.org/2000/svg">
<path d="M33.8833 25.7289C33.8833 25.7289 29.6557 9.5036 11.0004 10.0986L5.58936 10.235C5.58936 10.235 22.5131 12.7952 33.8833 25.7289Z" fill="#336321" stroke="black" stroke-width="0.208066" stroke-miterlimit="10"/>
<path d="M5.9026 43.6798C5.9026 43.6798 1.29307 28.3297 25.0565 19.5819C25.0565 19.5819 27.9315 27.4739 19.922 32.1195C11.9125 36.7651 5.9026 43.6798 5.9026 43.6798Z" fill="#336321" stroke="black" stroke-width="0.208066" stroke-miterlimit="10"/>
<path d="M6.73677 41.0678C6.73677 41.0678 9.52438 31.7217 15.9768 26.5987C22.4292 21.4757 25.051 18.1251 25.051 18.1251" stroke="black" stroke-width="0.208066" stroke-miterlimit="10"/>
<path d="M47.6994 41.7014C47.6994 41.7014 32.1217 16.5996 15.4192 10.7115C15.4192 10.7115 46.403 42.0813 49.3864 47.981C52.3699 53.8808 47.6994 41.7014 47.6994 41.7014Z" fill="#336321" stroke="black" stroke-width="0.208066" stroke-miterlimit="10"/>
<path d="M58.0848 43.0692C58.0848 43.0692 50.7517 28.0313 32.3483 31.912L27.0063 33.0082C27.0063 33.0082 44.3014 32.5034 58.0848 43.0692Z" fill="#336321" stroke="black" stroke-width="0.208066" stroke-miterlimit="10"/>
<path d="M21.6754 2.01815C20.0593 4.02919 19.1146 6.44133 18.9735 8.91699C18.7511 13.0362 18.7735 20.2759 19.0126 21.2372C19.2518 22.1985 20.0612 33.7489 20.0964 34.4553C20.1317 35.1616 20.5607 41.3616 22.1781 43.5536C23.7954 45.7457 32.0128 48.8241 32.9031 36.3091C32.9031 36.3091 31.5435 26.761 30.9662 19.3623C30.3888 11.9636 28.194 4.54347 25.8817 2.75193C23.5694 0.96039 22.632 0.668831 21.6754 2.01815Z" fill="#F5CB25" stroke="black" stroke-width="0.208066" stroke-miterlimit="10"/>
<path d="M20.2081 4.40623C20.4797 4.56545 20.6909 4.8017 20.8142 5.0844C20.9375 5.36711 20.9672 5.68325 20.8996 5.99192C20.7406 6.61775 20.0489 7.05672 19.5159 6.81788" stroke="black" stroke-width="0.208066" stroke-miterlimit="10"/>
<path d="M20.2511 6.86823C20.3909 6.86489 20.481 7.02053 20.5203 7.1671C20.6069 7.52935 20.5769 7.91387 20.4342 8.27125C20.3397 8.57521 20.1347 8.84169 19.8573 9.02103C19.7209 9.09943 19.562 9.12929 19.41 9.10508C19.258 9.08086 19.1232 9.00422 19.0306 8.88932" stroke="black" stroke-width="0.208066" stroke-miterlimit="10"/>
<path d="M19.884 9.21094C19.9004 9.19512 19.9199 9.18252 19.9412 9.17393C19.9625 9.16534 19.9852 9.16093 20.0079 9.16099C20.0306 9.16104 20.0528 9.16555 20.0731 9.17424C20.0935 9.18293 20.1115 9.19562 20.1261 9.21152C20.1892 9.28183 20.23 9.36839 20.2441 9.46179C20.3535 9.91606 20.2857 10.4016 20.0531 10.8291C19.947 11.0248 19.7992 11.1985 19.6199 11.3384C19.4407 11.4784 19.234 11.5813 19.0141 11.6403" stroke="black" stroke-width="0.208066" stroke-miterlimit="10"/>
<path d="M19.5598 11.2508C19.6718 11.2398 19.7512 11.357 19.8036 11.4643C20.0606 11.9481 20.1287 12.5113 19.9964 13.0575C19.8399 13.59 19.364 14.0368 18.8614 14.0008" stroke="black" stroke-width="0.208066" stroke-miterlimit="10"/>
<path d="M19.5202 13.8227C19.8419 13.9092 20.0044 14.2897 20.0644 14.6576C20.1462 15.1181 20.0842 15.5985 19.886 16.0398C19.7983 16.2438 19.6597 16.4261 19.4829 16.5701C19.306 16.7142 19.0966 16.8154 18.8738 16.8645" stroke="black" stroke-width="0.208066" stroke-miterlimit="10"/>
<path d="M19.4797 16.5135C19.7606 16.6436 19.8927 16.9949 19.9625 17.3287C20.0637 17.8197 20.0776 18.3623 19.8693 18.8203C19.6609 19.2782 19.1624 19.6139 18.7222 19.4773" stroke="black" stroke-width="0.208066" stroke-miterlimit="10"/>
<path d="M19.5817 18.9823C19.8186 19.1974 19.9968 19.4652 20.1019 19.7645C20.2071 20.0637 20.2364 20.386 20.1875 20.7057C20.1462 21.0139 20.0236 21.311 19.8314 21.5686C19.6392 21.8262 19.3837 22.0358 19.0895 22.1773" stroke="black" stroke-width="0.208066" stroke-miterlimit="10"/>
<path d="M19.6873 21.5408C19.8773 21.6621 20.0371 21.8207 20.1569 22.007C20.2767 22.1933 20.3539 22.4032 20.3838 22.6237C20.4524 23.0803 20.4131 23.5511 20.2688 24.0021C20.2121 24.2293 20.111 24.4462 19.9709 24.6412C19.9073 24.7321 19.8218 24.8077 19.7222 24.861C19.6227 24.9143 19.5121 24.9437 19.4005 24.9466" stroke="black" stroke-width="0.208066" stroke-miterlimit="10"/>
<path d="M20.1224 24.29C20.834 24.9591 21.1059 26.136 20.7794 27.1328C20.7073 27.3873 20.5706 27.6238 20.3818 27.8207C20.2948 27.9123 20.185 27.9813 20.0637 28.0204C19.9425 28.0595 19.8142 28.0674 19.6922 28.0431" stroke="black" stroke-width="0.208066" stroke-miterlimit="10"/>
<path d="M20.4974 27.7429C20.9411 27.8396 21.1906 28.3494 21.3096 28.8268C21.4727 29.4003 21.4673 30.0138 21.294 30.6015C21.0986 31.1698 20.6404 31.6621 20.0951 31.7487" stroke="black" stroke-width="0.208066" stroke-miterlimit="10"/>
<path d="M20.8749 31.2782C21.0496 31.5099 21.1714 31.7757 21.2329 32.0595C21.2944 32.3433 21.2943 32.6392 21.2325 32.9291C21.0925 33.5043 20.6207 33.9995 20.085 34.047" stroke="black" stroke-width="0.208066" stroke-miterlimit="10"/>
<path d="M20.8401 33.6641C21.087 33.7024 21.2349 33.9768 21.3123 34.2358C21.4828 34.811 21.4816 35.4285 21.3088 36.0204C21.249 36.2565 21.1345 36.4793 20.9739 36.6718C20.8999 36.7618 20.8039 36.8332 20.6951 36.879C20.5863 36.9248 20.4684 36.9435 20.3529 36.9332" stroke="black" stroke-width="0.208066" stroke-miterlimit="10"/>
<path d="M21.1623 36.6139C21.1392 36.5847 21.0422 36.5644 21.1035 36.5564C22.2795 37.0778 21.8901 39.0148 20.8172 39.5014" stroke="black" stroke-width="0.208066" stroke-miterlimit="10"/>
<path d="M21.0123 39.469C21.1416 39.4086 21.2863 39.3912 21.4224 39.4196C21.5586 39.448 21.6781 39.5205 21.7613 39.6252C21.9473 39.8531 22.0556 40.1322 22.0724 40.4275C22.137 41.0287 21.989 41.6439 21.6518 42.1758" stroke="black" stroke-width="0.208066" stroke-miterlimit="10"/>
<path d="M21.8228 41.891C21.8273 41.8597 21.8407 41.8297 21.8617 41.8044C21.8827 41.7792 21.9103 41.7597 21.9415 41.7482C22.4178 41.5115 23.0131 41.8548 23.1718 42.3848C23.2385 42.6498 23.2281 42.9309 23.1416 43.1984C23.0551 43.4659 22.8957 43.7097 22.6804 43.9041" stroke="black" stroke-width="0.208066" stroke-miterlimit="10"/>
<path d="M22.9295 43.4625C23.0083 43.1925 23.1713 42.9481 23.3961 42.7629C23.5018 42.6787 23.6274 42.6214 23.7602 42.597C23.893 42.5725 24.0284 42.5817 24.1527 42.6236C24.5577 42.7802 24.7388 43.2788 24.8305 43.7379C24.909 44.1335 24.9452 44.5892 24.7181 44.9204" stroke="black" stroke-width="0.208066" stroke-miterlimit="10"/>
<path d="M22.4085 41.4213C22.4908 41.1481 22.6329 40.8921 22.825 40.6707C22.9134 40.5675 23.0306 40.4904 23.1616 40.449C23.2926 40.4077 23.4314 40.4042 23.5603 40.4388C23.7005 40.5001 23.822 40.5929 23.915 40.7096C24.3091 41.1512 24.5742 41.8517 24.2858 42.4082" stroke="black" stroke-width="0.208066" stroke-miterlimit="10"/>
<path d="M21.745 38.972C21.774 38.8603 21.8264 38.7544 21.8989 38.6607C21.9714 38.567 22.0625 38.4876 22.1665 38.4274C22.2705 38.3671 22.3851 38.3273 22.5034 38.3104C22.6217 38.2936 22.7411 38.3 22.8541 38.3293C23.2952 38.4481 23.6203 38.8614 23.8044 39.3152C23.9639 39.653 23.991 40.0402 23.8807 40.4088" stroke="black" stroke-width="0.208066" stroke-miterlimit="10"/>
<path d="M21.5044 35.9196C21.6525 35.6969 21.8107 35.4642 22.0413 35.3573C22.1801 35.3025 22.3304 35.2865 22.4741 35.3113C22.6178 35.336 22.7488 35.4005 22.8512 35.4969C23.0747 35.7033 23.2397 35.9613 23.3321 36.2487C23.5481 36.8328 23.6225 37.4627 23.5499 38.0924C23.5358 38.2085 23.4974 38.3482 23.3941 38.3778" stroke="black" stroke-width="0.208066" stroke-miterlimit="10"/>
<path d="M21.146 33.263C21.2355 33.1357 21.3526 33.0279 21.4887 32.9472C21.6249 32.8666 21.7766 32.8153 21.9327 32.7971C22.0888 32.7788 22.2453 32.7941 22.3908 32.8418C22.5363 32.8896 22.6671 32.9685 22.7735 33.0728C23.042 33.3425 23.1655 33.7466 23.2404 34.1423C23.2975 34.449 23.3134 34.8221 23.0993 35.0273" stroke="black" stroke-width="0.208066" stroke-miterlimit="10"/>
<path d="M21.1449 30.8181C21.2504 30.6928 21.3965 30.6047 21.5578 30.569C21.7191 30.5333 21.8854 30.5523 22.0277 30.6227C22.3251 30.7849 22.551 31.0416 22.6687 31.3511C22.956 32.0056 22.9742 32.7516 22.72 33.4454" stroke="black" stroke-width="0.208066" stroke-miterlimit="10"/>
<path d="M21.0664 28.1049C21.1807 27.9744 21.3354 27.882 21.5057 27.8423C21.6761 27.8026 21.8525 27.8179 22.0068 27.8858C22.3289 28.0439 22.5763 28.3089 22.7055 28.634C22.855 28.9684 22.9283 29.3327 22.9209 29.7036C22.9135 30.0746 22.8254 30.444 22.6623 30.7884" stroke="black" stroke-width="0.208066" stroke-miterlimit="10"/>
<path d="M23.1611 34.8086C23.126 35.0632 23.0257 35.3087 22.8692 35.5231" stroke="black" stroke-width="0.208066" stroke-miterlimit="10"/>
<path d="M20.4838 24.4926C20.5505 24.4106 20.6383 24.3463 20.7377 24.3064C20.8372 24.2666 20.9447 24.2527 21.0487 24.2663C21.2096 24.2994 21.3559 24.3739 21.4723 24.482C22.1954 25.0848 22.4283 26.2263 22.2018 27.2142" stroke="black" stroke-width="0.208066" stroke-miterlimit="10"/>
<path d="M22.1531 27.1125L22.0513 27.8554" stroke="black" stroke-width="0.208066" stroke-miterlimit="10"/>
<path d="M20.0084 21.8212C20.0546 21.7241 20.132 21.6426 20.2288 21.5891C20.3257 21.5356 20.4365 21.5132 20.5443 21.5252C20.7593 21.5617 20.9526 21.6644 21.0954 21.8182C21.4224 22.153 21.6488 22.5678 21.7525 23.0223C21.8562 23.4769 21.8337 23.9556 21.6871 24.4119" stroke="black" stroke-width="0.208066" stroke-miterlimit="10"/>
<path d="M19.8566 18.6867C19.9414 18.5987 20.0478 18.5326 20.165 18.495C20.2823 18.4575 20.4062 18.4498 20.5242 18.4728C20.767 18.5269 20.9807 18.6561 21.1331 18.841C21.4611 19.2512 21.6353 19.7594 21.6296 20.2893C21.6268 20.8209 21.541 21.3534 21.3751 21.869" stroke="black" stroke-width="0.208066" stroke-miterlimit="10"/>
<path d="M19.7786 15.8561C19.8355 15.7622 19.9266 15.6909 20.0333 15.6568C20.1401 15.6226 20.2542 15.6282 20.3525 15.6725C20.5529 15.7746 20.7167 15.9296 20.8258 16.1202C21.0731 16.4525 21.2213 16.8459 21.2556 17.261C21.2741 17.7858 21.024 18.2894 20.9883 18.8137" stroke="black" stroke-width="0.208066" stroke-miterlimit="10"/>
<path d="M20.0365 13.8571C20.0632 13.7711 20.1093 13.6908 20.1716 13.6222C20.2338 13.5536 20.3106 13.4985 20.3963 13.4607C20.482 13.423 20.5744 13.4037 20.6667 13.4042C20.7591 13.4048 20.8491 13.4251 20.9301 13.4637C21.2543 13.6186 21.4443 13.9982 21.5125 14.3797C21.6558 15.1811 21.3668 15.9968 21.0847 16.764" stroke="black" stroke-width="0.208066" stroke-miterlimit="10"/>
<path d="M19.9412 11.1481C20.1571 10.7301 20.7366 10.6846 21.0754 10.9612C21.4141 11.2377 21.5524 11.7286 21.5916 12.1985C21.6485 12.8592 21.546 13.5317 21.292 14.1644" stroke="black" stroke-width="0.208066" stroke-miterlimit="10"/>
<path d="M20.6283 7.62392C20.9491 7.43621 21.3332 7.69836 21.5223 8.02458C21.8077 8.51569 21.8447 9.14297 21.7706 9.73574C21.6965 10.3285 21.5288 10.8924 21.4295 11.4831" stroke="black" stroke-width="0.208066" stroke-miterlimit="10"/>
<path d="M20.9683 5.64914C21.0195 5.60329 21.085 5.57532 21.1533 5.57013C21.2216 5.56495 21.2884 5.58287 21.3419 5.62077C21.4563 5.70216 21.5442 5.81249 21.5967 5.94035C21.7478 6.26081 21.8207 6.61326 21.8099 6.97212C21.7992 7.33099 21.7051 7.68726 21.5346 8.01508" stroke="black" stroke-width="0.208066" stroke-miterlimit="10"/>
<path d="M20.9515 2.89876C21.1623 2.69862 21.5117 2.8085 21.6677 3.04083C21.8082 3.30307 21.8611 3.60373 21.8197 3.90414C21.7838 4.46445 21.6448 5.01947 21.4092 5.54353" stroke="black" stroke-width="0.208066" stroke-miterlimit="10"/>
<path d="M21.6403 2.17976C21.6606 2.43944 21.7122 2.69446 21.7939 2.93981C21.8334 3.10295 21.929 3.24612 22.0658 3.34692C22.3185 3.48847 22.627 3.28229 22.8304 3.05084C23.2114 2.61581 23.4774 1.96041 23.2558 1.42706" stroke="black" stroke-width="0.208066" stroke-miterlimit="10"/>
<path d="M22.2554 3.34258C22.5178 3.07817 22.9595 3.17063 23.1942 3.44756C23.4289 3.72448 23.499 4.12589 23.5218 4.50966C23.5532 5.06098 23.5025 5.61791 23.3712 6.16381" stroke="black" stroke-width="0.208066" stroke-miterlimit="10"/>
<path d="M22.0803 6.702C22.1364 6.58881 22.2201 6.48913 22.3239 6.41171C22.4276 6.33428 22.5484 6.28148 22.6755 6.25797C22.8026 6.23446 22.9321 6.24095 23.0527 6.27686C23.1733 6.31277 23.2813 6.37701 23.3671 6.46392C23.6443 6.76776 23.6727 7.25833 23.6177 7.69436C23.5779 8.01127 23.5031 8.325 23.3946 8.63021" stroke="black" stroke-width="0.208066" stroke-miterlimit="10"/>
<path d="M21.9827 9.0931C22.2503 8.8714 22.5573 8.6346 22.888 8.64556C23.3036 8.65479 23.6292 9.05744 23.7248 9.49721C23.7908 9.94491 23.7543 10.4061 23.6178 10.8493" stroke="black" stroke-width="0.208066" stroke-miterlimit="10"/>
<path d="M21.7157 11.467C21.7844 11.2606 21.9198 11.0776 22.1018 10.9452C22.2838 10.8127 22.5026 10.738 22.7256 10.7321C22.9488 10.7491 23.1599 10.8236 23.337 10.9477C23.514 11.0719 23.6503 11.2412 23.7317 11.4379C23.9141 11.8623 23.9144 12.3465 23.7325 12.7895" stroke="black" stroke-width="0.208066" stroke-miterlimit="10"/>
<path d="M21.6101 13.7216C21.5295 13.598 21.6578 13.428 21.7765 13.3443C22.2848 12.99 23.0187 12.976 23.4055 13.4454C23.7552 13.8715 23.7338 14.5367 23.5972 15.1034" stroke="black" stroke-width="0.208066" stroke-miterlimit="10"/>
<path d="M23.8808 12.4644L23.4982 13.4995" stroke="black" stroke-width="0.208066" stroke-miterlimit="10"/>
<path d="M21.2866 16.3516C21.5127 16.0324 21.7956 15.7524 22.1214 15.5254C22.4031 15.3335 22.7336 15.19 23.029 15.3114C23.3687 15.452 23.5143 15.8873 23.5575 16.2788C23.6129 16.7659 23.5756 17.2632 23.4476 17.747" stroke="black" stroke-width="0.208066" stroke-miterlimit="10"/>
<path d="M23.6513 14.717C23.6144 15.0512 23.5244 15.3808 23.3846 15.6941" stroke="black" stroke-width="0.208066" stroke-miterlimit="10"/>
<path d="M21.0742 18.2453C21.4217 17.8852 21.8483 17.5469 22.3159 17.568C22.7835 17.5892 23.193 18.0079 23.3573 18.4987C23.4976 19.0034 23.5167 19.5376 23.4134 20.0624" stroke="black" stroke-width="0.208066" stroke-miterlimit="10"/>
<path d="M21.6548 20.7837C21.7327 20.6155 21.8566 20.4688 22.0128 20.3599C22.169 20.251 22.3514 20.1842 22.5398 20.1667C22.7296 20.1642 22.9138 20.2114 23.0725 20.3032C23.2312 20.395 23.3583 20.528 23.4403 20.6877C23.6902 21.1469 23.6051 21.7361 23.5116 22.272" stroke="black" stroke-width="0.208066" stroke-miterlimit="10"/>
<path d="M21.9153 23.5504C21.8336 23.377 22.035 23.2004 22.2016 23.1236C22.528 22.9725 22.8627 22.8403 23.2038 22.7277C23.3064 22.6825 23.4203 22.6718 23.5263 22.6973C23.6215 22.744 23.6976 22.8186 23.7442 22.9109C24.1211 23.5292 24.1207 24.3375 24.1066 25.0931" stroke="black" stroke-width="0.208066" stroke-miterlimit="10"/>
<path d="M22.2017 25.9832C22.3027 25.6847 22.4967 25.419 22.7568 25.2228C22.8774 25.1252 23.0259 25.0662 23.1798 25.0547C23.5787 25.0404 23.8327 25.4925 24.0006 25.8843C24.1576 26.2569 24.3003 26.7371 24.0512 27.0613" stroke="black" stroke-width="0.208066" stroke-miterlimit="10"/>
<path d="M22.2219 27.7819C22.264 27.5746 22.37 27.381 22.5259 27.2265C22.6819 27.0721 22.8806 26.964 23.0959 26.9164C23.3086 26.8894 23.5219 26.9185 23.7125 27.0006C23.9031 27.0827 24.0637 27.2146 24.1767 27.382C24.4296 27.7496 24.5222 28.2028 24.4358 28.6501" stroke="black" stroke-width="0.208066" stroke-miterlimit="10"/>
<path d="M22.9756 29.898C23.0037 29.4208 23.4215 29.0796 23.8159 28.8625C23.8963 28.8038 23.9882 28.762 24.0852 28.74C24.1821 28.718 24.2818 28.7164 24.3773 28.7352C24.5621 28.8266 24.6981 28.986 24.7558 29.1789C25.0122 29.7858 25.0823 30.4582 24.9582 31.1203" stroke="black" stroke-width="0.208066" stroke-miterlimit="10"/>
<path d="M22.9033 31.86C22.9887 31.5243 23.2967 31.3131 23.5943 31.1868C23.8412 31.0633 24.1179 31.0136 24.3867 31.0444C24.5482 31.0827 24.6976 31.1535 24.8253 31.2523C24.9529 31.3511 25.056 31.4757 25.1278 31.618C25.2857 31.9208 25.3659 32.2584 25.3619 32.6042" stroke="black" stroke-width="0.208066" stroke-miterlimit="10"/>
<path d="M23.231 34.1346C23.303 33.8295 23.5568 33.6178 23.7942 33.4347C24.1963 33.1235 24.7002 32.7991 25.1325 33.0177C25.3222 33.1303 25.4669 33.2992 25.5461 33.5005C25.7202 33.8936 25.749 34.3382 25.6279 34.7636" stroke="black" stroke-width="0.208066" stroke-miterlimit="10"/>
<path d="M23.015 35.7211C23.0206 35.5238 23.1984 35.3879 23.3552 35.2862C23.7537 35.0306 24.1638 34.7678 24.6156 34.6922C24.7987 34.6485 24.9877 34.6486 25.1659 34.6924C25.3441 34.7362 25.5058 34.8223 25.6365 34.943C25.7671 35.0637 25.8627 35.2152 25.9146 35.3839C25.9664 35.5527 25.973 35.7333 25.9336 35.9096" stroke="black" stroke-width="0.208066" stroke-miterlimit="10"/>
<path d="M23.5343 37.357C23.9207 36.8399 24.4234 36.4101 25.0024 36.1021C25.3154 35.9372 25.6972 35.8198 25.9861 36.0103C26.3612 36.2576 26.3555 36.8494 26.3039 37.336" stroke="black" stroke-width="0.208066" stroke-miterlimit="10"/>
<path d="M23.5937 39.2474C23.6687 39.1023 23.7835 38.978 23.9253 38.8888C24.0671 38.7995 24.2301 38.7489 24.3958 38.7425C25.2471 38.6698 26.0538 39.4539 26.083 40.3803" stroke="black" stroke-width="0.208066" stroke-miterlimit="10"/>
<path d="M26.2173 37.0093C26.3207 37.8665 26.2205 38.7451 25.924 39.5805" stroke="black" stroke-width="0.208066" stroke-miterlimit="10"/>
<path d="M23.8743 40.8451C24.0219 40.4279 24.4979 40.2853 24.9012 40.2881C25.2581 40.2739 25.6009 40.3875 25.8624 40.6067C25.9982 40.7322 26.0907 40.895 26.1286 41.0749C26.1665 41.2549 26.1482 41.4443 26.0759 41.62" stroke="black" stroke-width="0.208066" stroke-miterlimit="10"/>
<path d="M24.3052 42.5673C24.2719 42.5112 24.2583 42.4455 24.2662 42.3795C24.2741 42.3135 24.3031 42.2504 24.3493 42.199C24.4375 42.1093 24.5471 42.0415 24.6676 42.002C24.885 41.9003 25.1159 41.8307 25.3519 41.796C25.4737 41.7804 25.5962 41.7913 25.7102 41.8279C25.8241 41.8645 25.9265 41.9259 26.0097 42.0073C26.1498 42.178 26.2399 42.3827 26.2712 42.6018C26.3524 42.9852 26.3832 43.3793 26.3628 43.7751" stroke="black" stroke-width="0.208066" stroke-miterlimit="10"/>
<path d="M24.9605 44.2933C25.0641 43.9369 25.3701 43.6189 25.7051 43.6469C25.8199 43.667 25.9272 43.7119 26.019 43.7781C26.1107 43.8444 26.1846 43.9303 26.2353 44.0297C26.3482 44.2401 26.4301 44.4657 26.4788 44.7004L26.6155 45.2233" stroke="black" stroke-width="0.208066" stroke-miterlimit="10"/>
<path d="M23.3421 2.30303C23.2576 2.54938 23.2388 2.80902 23.2875 3.05752C23.3363 3.30601 23.451 3.5352 23.6209 3.72352C23.6868 3.79468 23.7689 3.85031 23.8615 3.88647C23.9497 3.90961 24.0439 3.90985 24.1347 3.88717C24.2255 3.86448 24.3098 3.81967 24.3791 3.75719C24.7671 3.44747 24.8461 2.77421 24.554 2.38355" stroke="black" stroke-width="0.208066" stroke-miterlimit="10"/>
<path d="M24.4015 1.70357C24.5382 2.00324 24.6487 2.31429 24.732 2.63368" stroke="black" stroke-width="0.208066" stroke-miterlimit="10"/>
<path d="M23.5152 6.0198C23.5723 6.11594 23.6516 6.19766 23.7475 6.25909C23.8433 6.32053 23.9533 6.36015 24.0695 6.37513C24.1858 6.3901 24.3054 6.38007 24.4198 6.34572C24.5342 6.31138 24.6406 6.25359 24.7314 6.17649C25.1047 5.86327 25.2513 5.30585 25.2011 4.80466C25.1302 4.31226 24.9599 3.84257 24.6998 3.42127" stroke="black" stroke-width="0.208066" stroke-miterlimit="10"/>
<path d="M25.2019 5.36745C25.3662 5.7021 25.4415 6.07414 25.4213 6.4519C25.4011 6.82967 25.286 7.20196 25.0858 7.53708C24.8267 7.94249 24.3433 8.25895 23.9416 8.06594" stroke="black" stroke-width="0.208066" stroke-miterlimit="10"/>
<path d="M25.1377 7.1822C25.6664 7.68028 25.7337 8.57309 25.5612 9.33214C25.4646 9.75479 25.2927 10.1834 24.9695 10.4452C24.6464 10.707 24.1504 10.7322 23.9002 10.4105" stroke="black" stroke-width="0.208066" stroke-miterlimit="10"/>
<path d="M25.293 9.54764C25.5936 9.71181 25.7488 10.0766 25.8481 10.4295C25.9967 10.9021 26.0333 11.4057 25.9555 11.9047C25.862 12.3971 25.5837 12.8724 25.1675 13.0946C24.9567 13.2082 24.7134 13.2449 24.4848 13.1976C24.2562 13.1502 24.0586 13.0222 23.9304 12.8383" stroke="black" stroke-width="0.208066" stroke-miterlimit="10"/>
<path d="M25.719 12.2011C25.9887 12.7664 26.0938 13.3979 26.0236 14.0317C25.9994 14.3149 25.9123 14.593 25.768 14.8473C25.7042 14.9674 25.6127 15.073 25.501 15.1558C25.3892 15.2387 25.2602 15.2964 25.1241 15.3246C24.9817 15.3311 24.841 15.3095 24.7107 15.2612C24.5804 15.2129 24.4633 15.1389 24.3667 15.0438C24.0808 14.7998 23.8607 14.4934 23.7231 14.148" stroke="black" stroke-width="0.208066" stroke-miterlimit="10"/>
<path d="M25.6279 14.899C25.7049 14.8888 25.7537 14.9805 25.7794 15.0587C25.9298 15.4732 25.9848 15.9182 25.9408 16.3643C25.8818 16.8074 25.664 17.2454 25.3091 17.4753C25.1681 17.5664 25.0069 17.6223 24.8409 17.6375C24.675 17.6527 24.51 17.6266 24.362 17.5619C24.2059 17.4861 24.0705 17.3781 23.9651 17.2451C23.8598 17.1121 23.7868 16.9573 23.7514 16.7914" stroke="black" stroke-width="0.208066" stroke-miterlimit="10"/>
<path d="M25.398 17.3029C25.3785 17.2338 25.4979 17.2662 25.522 17.333C25.7234 17.8985 25.5901 18.5591 25.3459 19.1226C25.217 19.4214 25.042 19.7212 24.7711 19.8766C24.6376 19.9476 24.4886 19.9843 24.3395 19.9828C24.1903 19.9813 24.0464 19.9418 23.9224 19.8682C23.6571 19.7048 23.4598 19.4595 23.3609 19.1701" stroke="black" stroke-width="0.208066" stroke-miterlimit="10"/>
<path d="M25.3687 18.9899C25.4396 19.4153 25.4571 19.8498 25.4207 20.2845C25.3758 20.7853 25.2395 21.317 24.8798 21.6394C24.3924 22.0777 23.6649 21.967 23.1337 21.6334" stroke="black" stroke-width="0.208066" stroke-miterlimit="10"/>
<path d="M25.1993 21.471L25.2095 21.1968C25.4442 21.6772 25.5514 22.2108 25.5223 22.7525C25.5186 23.121 25.4048 23.4864 25.1944 23.8055C24.9758 24.0997 24.6113 24.2854 24.2839 24.1947" stroke="black" stroke-width="0.208066" stroke-miterlimit="10"/>
<path d="M25.4139 23.4507C25.7921 24.2073 25.857 25.0859 25.5961 25.9177C25.5226 26.1848 25.3783 26.4325 25.1776 26.6363C25.0839 26.7304 24.9636 26.7959 24.8331 26.8238C24.7027 26.8516 24.5685 26.8405 24.4491 26.7919" stroke="black" stroke-width="0.208066" stroke-miterlimit="10"/>
<path d="M25.4481 26.2082C25.4162 26.2076 25.42 26.1485 25.4575 26.1413C25.495 26.134 25.5135 26.1653 25.5314 26.1916C25.8022 26.5973 25.9694 27.0617 26.0205 27.5496C26.0715 28.0375 26.0049 28.5359 25.8259 29.0071C25.6878 29.3537 25.4064 29.7157 25.0704 29.6621" stroke="black" stroke-width="0.208066" stroke-miterlimit="10"/>
<path d="M25.6035 29.1587C25.7075 29.0715 25.8426 29.2042 25.9009 29.3279C26.1439 29.8564 26.1957 30.4556 26.0485 31.0344C25.9143 31.5887 25.5774 32.0882 25.1001 32.4407" stroke="black" stroke-width="0.208066" stroke-miterlimit="10"/>
<path d="M25.8721 31.3308C25.8337 31.2968 25.8779 31.2169 25.9278 31.216C25.9776 31.2151 26.0184 31.2584 26.0506 31.2989C26.5034 31.8925 26.7043 32.6362 26.6153 33.3892C26.5926 33.6641 26.5011 33.9331 26.3486 34.1735C26.2798 34.2844 26.1822 34.3771 26.0659 34.442C25.9496 34.5069 25.8188 34.5416 25.6873 34.5426" stroke="black" stroke-width="0.208066" stroke-miterlimit="10"/>
<path d="M26.1743 33.9687C26.1734 33.9546 26.1757 33.9403 26.1813 33.9269C26.1869 33.9135 26.1956 33.9013 26.2066 33.8912C26.2176 33.8812 26.2307 33.8736 26.245 33.8689C26.2592 33.8642 26.2742 33.8627 26.2888 33.8643C26.3467 33.8796 26.396 33.9142 26.428 33.9621C26.8653 34.441 27.0941 35.067 27.0706 35.7203C27.0221 36.3793 26.5943 37.031 26.0063 37.1847" stroke="black" stroke-width="0.208066" stroke-miterlimit="10"/>
<path d="M26.9241 36.3771C26.948 36.3407 26.9854 36.314 27.0283 36.303C27.0712 36.2919 27.116 36.2972 27.153 36.3179C27.2274 36.3683 27.2852 36.4377 27.3202 36.5188C27.5409 36.9491 27.655 37.4265 27.654 37.9158C27.6531 38.4051 27.5371 38.8936 27.3148 39.3454C27.22 39.5544 27.0707 39.7386 26.8819 39.8796C26.7916 39.9447 26.6841 39.9827 26.5739 39.9887C26.4637 39.9947 26.3559 39.9683 26.2651 39.9131" stroke="black" stroke-width="0.208066" stroke-miterlimit="10"/>
<path d="M27.165 39.7499C27.614 40.355 27.5634 41.3451 27.0552 41.9287C26.8446 42.1687 26.5255 42.3522 26.2521 42.2221" stroke="black" stroke-width="0.208066" stroke-miterlimit="10"/>
<path d="M27.1114 41.954C27.3502 41.904 27.5068 42.1969 27.5841 42.4437C27.7326 42.9246 27.8561 43.4434 27.7339 43.9459C27.6116 44.4484 27.1738 44.9049 26.7125 44.8182" stroke="black" stroke-width="0.208066" stroke-miterlimit="10"/>
<path d="M27.7202 44.216C27.8159 44.3607 27.8563 44.5345 27.8349 44.7097C27.8136 44.8848 27.7318 45.0511 27.6026 45.1819" stroke="black" stroke-width="0.208066" stroke-miterlimit="10"/>
<path d="M26.3311 3.00236C26.5267 3.32537 26.6553 3.68388 26.7102 4.05929C26.7434 4.44161 26.594 4.87868 26.2719 5.04787C25.9057 5.23788 25.4916 5.02639 25.1463 4.81893" stroke="black" stroke-width="0.208066" stroke-miterlimit="10"/>
<path d="M26.5124 4.82451C26.6274 4.78423 26.7357 4.90349 26.79 5.01867C27.039 5.53708 27.0813 6.13357 26.9091 6.70037C26.8165 7.06243 26.5802 7.38239 26.2515 7.59073C26.0901 7.67901 25.9036 7.70933 25.7271 7.67597C25.5507 7.64261 25.3965 7.54788 25.2936 7.40963" stroke="black" stroke-width="0.208066" stroke-miterlimit="10"/>
<path d="M26.899 6.78573C27.1771 7.29781 27.3512 7.85977 27.4123 8.44326C27.4681 8.83085 27.4284 9.23031 27.2962 9.61018C27.1505 9.97602 26.8485 10.2904 26.4865 10.3394C26.169 10.3882 25.8619 10.234 25.5948 10.0541" stroke="black" stroke-width="0.208066" stroke-miterlimit="10"/>
<path d="M27.223 9.84181C27.1925 9.85616 27.1948 9.7821 27.2276 9.78056C27.2604 9.77902 27.28 9.8167 27.2932 9.8487C27.4887 10.3379 27.5847 10.8627 27.5759 11.3959C27.5663 11.8019 27.4796 12.2338 27.2185 12.5324C26.9574 12.831 26.4817 12.9231 26.2219 12.6441" stroke="black" stroke-width="0.208066" stroke-miterlimit="10"/>
<path d="M27.3018 12.1759C27.5457 12.579 27.6762 13.0399 27.681 13.516C27.6859 13.9921 27.5651 14.4681 27.3298 14.8998C27.2182 15.1144 27.0456 15.2966 26.8328 15.4242C26.7302 15.4821 26.613 15.5089 26.4974 15.5012C26.3818 15.4934 26.2735 15.4514 26.1872 15.3809" stroke="black" stroke-width="0.208066" stroke-miterlimit="10"/>
<path d="M27.0369 15.0321C27.2729 15.4878 27.4031 15.9912 27.4187 16.5094C27.4343 17.0276 27.3352 17.549 27.1277 18.0392C27.0262 18.3087 26.8474 18.5486 26.6125 18.7304C26.5004 18.814 26.3642 18.8606 26.2257 18.8629C26.0872 18.8652 25.9543 18.823 25.8482 18.743" stroke="black" stroke-width="0.208066" stroke-miterlimit="10"/>
<path d="M27.1461 17.7113C27.2717 17.6817 27.3589 17.8352 27.4051 17.9646C27.6043 18.4827 27.7195 19.0306 27.7469 19.59C27.7761 20.1446 27.601 20.7017 27.252 21.1649C27.1695 21.2754 27.0649 21.3695 26.9446 21.4412C26.8243 21.5128 26.691 21.5605 26.5533 21.5811C26.1133 21.6147 25.7478 21.2656 25.439 20.9419" stroke="black" stroke-width="0.208066" stroke-miterlimit="10"/>
<path d="M27.0864 21.3506C27.1435 21.2507 27.2735 21.3528 27.3218 21.4552C27.5144 21.8751 27.5814 22.3433 27.5155 22.8097C27.4746 23.2407 27.2613 23.6484 26.9204 23.947C26.7581 24.0784 26.5549 24.1517 26.3479 24.1535C26.1409 24.1553 25.9441 24.0854 25.7937 23.9566" stroke="black" stroke-width="0.208066" stroke-miterlimit="10"/>
<path d="M27.0189 23.9319C27.3462 24.8815 27.3972 25.9111 27.1667 26.9139C27.0907 27.2382 26.9653 27.584 26.6996 27.7545C26.6325 27.7964 26.5562 27.8218 26.4779 27.8285C26.3997 27.8352 26.322 27.8229 26.252 27.7927C26.1821 27.7626 26.1222 27.7155 26.078 27.6559C26.0337 27.5964 26.0065 27.5263 25.999 27.4521" stroke="black" stroke-width="0.208066" stroke-miterlimit="10"/>
<path d="M28.3945 6.9032C28.4883 7.21866 28.5355 7.54727 28.5348 7.87979C28.5359 8.2067 28.4015 8.52753 28.1609 8.772C28.047 8.87996 27.8962 8.94373 27.74 8.94998C27.5838 8.95624 27.4343 8.90449 27.3228 8.80555" stroke="black" stroke-width="0.208066" stroke-miterlimit="10"/>
<path d="M28.6503 8.34237C28.8306 8.78757 28.935 9.26089 28.9597 9.74496C28.9571 10.2328 28.7601 10.7583 28.3666 11.0011C28.266 11.0588 28.154 11.0943 28.0394 11.1048C27.9248 11.1154 27.8106 11.1007 27.7055 11.0619C27.6004 11.0232 27.5074 10.9613 27.4334 10.8812C27.3594 10.8011 27.3065 10.7048 27.2788 10.5997" stroke="black" stroke-width="0.208066" stroke-miterlimit="10"/>
<path d="M27.6077 11.7944C27.7064 12.4264 27.9826 13.0124 28.4072 13.4908C28.5487 13.6448 28.7239 13.7916 28.9266 13.7795C29.0643 13.765 29.1946 13.7036 29.2935 13.6066C29.4653 13.4398 29.5941 13.2373 29.6685 13.0168C29.743 12.7963 29.7609 12.5646 29.7206 12.3418" stroke="black" stroke-width="0.208066" stroke-miterlimit="10"/>
<path d="M29.995 13.2079C30.0758 13.6493 30.0797 14.1043 30.0065 14.5546C29.9644 14.8961 29.8395 15.2275 29.6421 15.5223C29.553 15.659 29.4296 15.7732 29.2838 15.8535C29.138 15.9337 28.9749 15.9774 28.8105 15.9802C28.277 15.9536 27.929 15.3652 27.7883 14.8023" stroke="black" stroke-width="0.208066" stroke-miterlimit="10"/>
<path d="M27.6786 14.3607L27.6603 14.1956C27.7601 14.4628 27.8355 14.7388 27.8855 15.0207" stroke="black" stroke-width="0.208066" stroke-miterlimit="10"/>
<path d="M29.1568 16.0165C29.0885 16.4213 29.1424 16.8303 29.312 17.1946C29.4089 17.477 29.5998 17.7172 29.8564 17.8799C29.9808 17.9502 30.1315 17.9695 30.2764 17.9337C30.4212 17.8979 30.5486 17.8099 30.6313 17.6885" stroke="black" stroke-width="0.208066" stroke-miterlimit="10"/>
<path d="M29.5954 17.8317C29.5155 18.3334 29.2856 18.8363 28.8943 19.1075C28.6991 19.2481 28.4579 19.3124 28.2228 19.2867C27.9877 19.2611 27.7774 19.1474 27.6371 18.9702" stroke="black" stroke-width="0.208066" stroke-miterlimit="10"/>
<path d="M29.4105 18.3C29.3549 18.8446 29.3795 19.3899 29.4838 19.9199C29.6148 20.4386 29.9346 20.9239 30.4035 21.0817C30.5135 21.1254 30.6386 21.1283 30.7552 21.0898C30.8165 21.0654 30.8694 21.0239 30.9067 20.9708C30.944 20.9178 30.9638 20.8558 30.9634 20.7935" stroke="black" stroke-width="0.208066" stroke-miterlimit="10"/>
<path d="M29.5837 20.507C29.6148 20.9857 29.4656 21.4683 29.1629 21.868C29.0286 22.0645 28.8304 22.2147 28.6012 22.2934C28.3721 22.3721 28.1258 22.3746 27.9033 22.3006C27.6808 22.2266 27.4955 22.0804 27.3783 21.8865C27.261 21.6925 27.2188 21.4624 27.2587 21.2344" stroke="black" stroke-width="0.208066" stroke-miterlimit="10"/>
<path d="M29.5555 21.4296C29.3507 21.9335 29.3335 22.4809 29.5069 22.9766C29.6745 23.453 29.9647 23.8761 30.3517 24.2085C30.4891 24.3449 30.6634 24.4425 30.8572 24.4916C30.954 24.5126 31.0569 24.5028 31.1507 24.4636C31.2445 24.4244 31.3242 24.3579 31.3779 24.274" stroke="black" stroke-width="0.208066" stroke-miterlimit="10"/>
<path d="M29.7251 23.5353C29.7082 24.1863 29.4458 24.873 28.9328 25.2173C28.8045 25.3023 28.66 25.3607 28.5092 25.3884C28.3584 25.4161 28.2048 25.4126 28.0589 25.378C27.9131 25.3434 27.7785 25.2786 27.6643 25.188C27.5501 25.0974 27.459 24.9831 27.3974 24.8531" stroke="black" stroke-width="0.208066" stroke-miterlimit="10"/>
<path d="M30.2203 24.3331C30.2386 24.7347 30.1708 25.1399 30.021 25.5239C29.8712 25.908 29.6427 26.2628 29.3493 26.5667C29.0662 26.8684 28.6826 27.0659 28.2713 27.1216C28.0628 27.1401 27.8559 27.1037 27.6731 27.0165C27.4903 26.9292 27.3386 26.7945 27.2344 26.6268" stroke="black" stroke-width="0.208066" stroke-miterlimit="10"/>
<path d="M30.2033 25.1724C30.0931 25.7001 30.103 26.2384 30.2324 26.75C30.3617 27.2617 30.6073 27.7343 30.9523 28.1352C31.0451 28.2523 31.1677 28.3442 31.3093 28.4032C31.3783 28.4297 31.4553 28.4345 31.5297 28.4169C31.6041 28.3992 31.6722 28.3601 31.7243 28.3049" stroke="black" stroke-width="0.208066" stroke-miterlimit="10"/>
<path d="M30.3294 27.3902C30.0712 27.9662 30.0324 28.601 30.2202 29.1795C30.4014 29.7435 30.7351 30.2449 31.1888 30.6347C31.3738 30.8126 31.5994 30.9477 31.8497 31.0304C31.9714 31.0698 32.103 31.079 32.2327 31.057C32.3624 31.035 32.486 30.9827 32.5923 30.9046" stroke="black" stroke-width="0.208066" stroke-miterlimit="10"/>
<path d="M30.9776 30.6724C30.8638 31.0005 30.7977 31.3399 30.7813 31.6807C30.8115 32.1799 30.9691 32.658 31.2405 33.0735C31.357 33.3026 31.5166 33.5075 31.7117 33.6786C31.8011 33.7597 31.9121 33.8159 32.034 33.842C32.1558 33.868 32.2843 33.8629 32.4069 33.8272" stroke="black" stroke-width="0.208066" stroke-miterlimit="10"/>
<path d="M31.4502 33.6247C31.2301 34.1036 31.1456 34.6236 31.2054 35.1304C31.2312 35.4427 31.3386 35.7398 31.5178 35.9946C31.5986 36.1128 31.7092 36.209 31.8401 36.2751C31.971 36.3411 32.1183 36.3749 32.2695 36.3737C32.4111 36.3538 32.5482 36.3053 32.6716 36.2316C32.795 36.1578 32.9019 36.0605 32.9851 35.946" stroke="black" stroke-width="0.208066" stroke-miterlimit="10"/>
<path d="M30.1061 26.4641C30.115 27.0175 29.9821 27.5718 29.7191 28.0785C29.4421 28.5566 28.977 28.9357 28.4663 28.9731C28.1939 28.984 27.9308 28.9047 27.7216 28.7484C27.5123 28.5921 27.3697 28.3685 27.3179 28.1154" stroke="black" stroke-width="0.208066" stroke-miterlimit="10"/>
<path d="M27.304 26.8963C27.4829 27.5753 27.4275 28.3028 27.146 28.9728C27.0621 29.1974 26.9187 29.3999 26.7305 29.5596C26.6417 29.6335 26.5325 29.6802 26.418 29.693C26.3036 29.7057 26.1897 29.6841 26.0924 29.631" stroke="black" stroke-width="0.208066" stroke-miterlimit="10"/>
<path d="M28.6322 29.1227C28.5574 29.8009 28.2904 30.4898 27.7906 30.9096C27.2908 31.3294 26.5426 31.4196 26.0641 31.0004" stroke="black" stroke-width="0.208066" stroke-miterlimit="10"/>
<path d="M28.2443 29.8893C28.2585 30.1436 28.3469 30.3854 28.4996 30.5874C28.6523 30.7893 28.8632 30.9433 29.1085 31.0321C29.3476 31.0938 29.6054 31.0778 29.8425 30.9865C30.0796 30.8951 30.283 30.7334 30.4217 30.5262C30.5483 30.3448 30.6302 30.0803 30.516 29.9013" stroke="black" stroke-width="0.208066" stroke-miterlimit="10"/>
<path d="M28.8717 30.9486C29.0014 31.5948 28.7358 32.3299 28.2293 32.7198C27.9799 32.9098 27.6759 33.0179 27.3651 33.0271C27.0544 33.0363 26.7548 32.9461 26.5137 32.7707C26.3977 32.6864 26.2943 32.4866 26.4146 32.3986" stroke="black" stroke-width="0.208066" stroke-miterlimit="10"/>
<path d="M28.6477 32.2071C28.7026 32.4048 28.8 32.5876 28.9339 32.7439C29.0677 32.9002 29.2352 33.0268 29.4258 33.1159C29.606 33.1934 29.8055 33.2267 30.0072 33.2131C30.2088 33.1995 30.4065 33.1394 30.5834 33.0378C30.7024 32.9771 30.7979 32.8799 30.8537 32.7627C30.8819 32.7007 30.8886 32.6326 30.873 32.5689C30.8574 32.5051 30.8202 32.449 30.7671 32.409" stroke="black" stroke-width="0.208066" stroke-miterlimit="10"/>
<path d="M29.3218 32.8794C29.4236 33.3931 29.3235 33.9347 29.0405 34.4022C28.9113 34.6161 28.7361 34.8028 28.5273 34.9489C28.3185 35.0951 28.0811 35.1973 27.8318 35.2482C27.6504 35.2874 27.464 35.2815 27.2906 35.2311C27.1172 35.1807 26.9627 35.0874 26.8422 34.9604" stroke="black" stroke-width="0.208066" stroke-miterlimit="10"/>
<path d="M28.8482 34.4836C28.8222 34.7617 28.8721 35.0377 28.993 35.2843C29.0671 35.4114 29.1704 35.5199 29.2956 35.6021C29.4208 35.6842 29.5648 35.738 29.7175 35.7596C30.0112 35.7923 30.3127 35.7535 30.5945 35.6469C30.7827 35.5842 31.0129 35.3976 30.9237 35.2084" stroke="black" stroke-width="0.208066" stroke-miterlimit="10"/>
<path d="M29.0898 35.3046C29.2761 35.5346 29.3954 35.8096 29.4361 36.1033C29.4769 36.3971 29.4379 36.7 29.3228 36.9831C29.2176 37.2455 29.0305 37.4739 28.788 37.636C28.5455 37.798 28.2598 37.8854 27.9715 37.8858" stroke="black" stroke-width="0.208066" stroke-miterlimit="10"/>
<path d="M29.4419 36.4971C29.414 37.1445 29.9988 37.6787 30.5825 37.6539C31.1661 37.6291 31.7044 37.1251 31.93 36.5183" stroke="black" stroke-width="0.208066" stroke-miterlimit="10"/>
<path d="M30.6764 37.6317C30.4683 38.0982 30.6905 38.6486 30.9936 39.0272C31.1198 39.2156 31.3094 39.3558 31.5333 39.4262C31.6458 39.4516 31.7666 39.4338 31.8703 39.3765C31.974 39.3192 32.0526 39.2268 32.0898 39.1188" stroke="black" stroke-width="0.208066" stroke-miterlimit="10"/>
<path d="M29.7797 37.6049C29.9318 37.81 30.0192 38.0546 30.0322 38.3114C30.0452 38.5683 29.9832 38.8272 29.8532 39.0596C29.7304 39.2717 29.5554 39.4537 29.3443 39.5887C29.1332 39.7237 28.8928 39.8075 28.6452 39.8322C28.1559 39.8616 27.6788 39.7351 27.2886 39.4723" stroke="black" stroke-width="0.208066" stroke-miterlimit="10"/>
<path d="M29.1421 39.6419C29.3887 39.9657 29.4873 40.3761 29.4165 40.7847C29.3498 41.1818 29.1568 41.5558 28.8642 41.8548C28.6802 42.062 28.4346 42.2107 28.1636 42.2789C28.0281 42.3078 27.8889 42.302 27.7602 42.2621C27.6316 42.2223 27.5182 42.1498 27.4316 42.0521" stroke="black" stroke-width="0.208066" stroke-miterlimit="10"/>
<path d="M29.2357 40.1659C29.3506 40.6227 29.5403 41.1397 29.9593 41.2551C30.3783 41.3704 30.8125 41.0007 31.0817 40.6009C31.351 40.2012 31.556 39.6336 31.3405 39.1999" stroke="black" stroke-width="0.208066" stroke-miterlimit="10"/>
<path d="M31.95 40.324C31.6537 40.4104 31.3821 40.5682 31.1617 40.7818C30.9414 40.9953 30.7799 41.2573 30.6933 41.5419C30.596 41.8446 30.5693 42.1608 30.6151 42.4675C30.6608 42.7742 30.7779 43.0637 30.9578 43.3149" stroke="black" stroke-width="0.208066" stroke-miterlimit="10"/>
<path d="M29.9344 41.4899C30.0634 41.7874 30.0979 42.1187 30.0338 42.4442C29.9698 42.7697 29.8098 43.0755 29.5732 43.3249C29.3419 43.5396 29.0404 43.6691 28.7265 43.6889C28.4125 43.7086 28.108 43.6172 27.8712 43.432" stroke="black" stroke-width="0.208066" stroke-miterlimit="10"/>
<path d="M29.3777 43.5254C29.7858 43.4442 30.2057 43.8301 30.1997 44.2829" stroke="black" stroke-width="0.208066" stroke-miterlimit="10"/>
<path d="M41.047 1.84078C39.0224 3.39031 37.5677 5.49287 36.8869 7.85365C35.7694 11.7836 34.2094 18.79 34.2329 19.7819C34.2565 20.7738 32.5281 32.1362 32.4086 32.8294C32.2892 33.5227 31.3467 39.6283 32.4591 42.1278C33.5715 44.6272 40.9376 49.6261 44.539 37.7356C44.539 37.7356 45.2947 28.17 46.3431 20.8744C47.3916 13.5788 46.8648 5.86822 44.9968 3.57154C43.1288 1.27486 42.2722 0.763971 41.047 1.84078Z" fill="#F5CB25" stroke="black" stroke-width="0.208066" stroke-miterlimit="10"/>
<path d="M39.0921 3.79248C39.3249 4.01247 39.4814 4.29274 39.5414 4.5969C39.6015 4.90106 39.5622 5.21504 39.4287 5.49809C39.1359 6.06557 38.3617 6.32181 37.8922 5.95397" stroke="black" stroke-width="0.208066" stroke-miterlimit="10"/>
<path d="M38.5973 6.1803C38.7336 6.21174 38.7892 6.38466 38.7959 6.53557C38.8012 6.90715 38.6875 7.27173 38.4694 7.58252C38.3088 7.85506 38.0473 8.06354 37.734 8.16886C37.5828 8.2115 37.4203 8.20155 37.2764 8.14086C37.1326 8.08017 37.0171 7.97284 36.9514 7.83875" stroke="black" stroke-width="0.208066" stroke-miterlimit="10"/>
<path d="M37.7287 8.3602C37.7482 8.34879 37.7699 8.34123 37.7927 8.33799C37.8154 8.33474 37.8386 8.33588 37.8608 8.34133C37.883 8.34678 37.9038 8.35642 37.9219 8.36967C37.94 8.38292 37.955 8.39949 37.966 8.41836C38.0144 8.50107 38.0377 8.59457 38.0333 8.68874C38.0412 9.15507 37.8684 9.60836 37.5469 9.9652C37.4005 10.1285 37.2182 10.2603 37.0122 10.3517C36.8063 10.4431 36.5817 10.492 36.3538 10.495" stroke="black" stroke-width="0.208066" stroke-miterlimit="10"/>
<path d="M36.9629 10.2533C37.0739 10.269 37.1312 10.4011 37.1547 10.5174C37.2982 11.0493 37.2387 11.6113 36.9864 12.1067C36.7155 12.5783 36.145 12.8927 35.6687 12.7355" stroke="black" stroke-width="0.208066" stroke-miterlimit="10"/>
<path d="M36.3604 12.7304C36.6583 12.8876 36.7357 13.3089 36.7122 13.6736C36.6918 14.139 36.5263 14.5887 36.2359 14.9674C36.1043 15.1434 35.9275 15.2858 35.7217 15.3814C35.5158 15.477 35.2876 15.5227 35.0579 15.5144" stroke="black" stroke-width="0.208066" stroke-miterlimit="10"/>
<path d="M35.7358 15.321C35.9831 15.516 36.032 15.887 36.0269 16.2202C36.0269 16.7201 35.9192 17.2483 35.6112 17.635C35.3032 18.0217 34.7462 18.2324 34.344 17.9919" stroke="black" stroke-width="0.208066" stroke-miterlimit="10"/>
<path d="M35.2951 17.743C35.4804 18.0086 35.5966 18.311 35.6343 18.626C35.672 18.941 35.6302 19.2599 35.5122 19.5571C35.4044 19.845 35.2196 20.1024 34.9755 20.3049C34.7313 20.5073 34.4359 20.6482 34.1171 20.7141" stroke="black" stroke-width="0.208066" stroke-miterlimit="10"/>
<path d="M34.8406 20.2339C35.0011 20.3967 35.124 20.5885 35.2016 20.7976C35.2792 21.0067 35.3098 21.2285 35.2916 21.4491C35.2593 21.9072 35.1184 22.3528 34.8793 22.7539C34.7749 22.9601 34.6286 23.1453 34.4484 23.2993C34.3667 23.3726 34.2664 23.4255 34.157 23.453C34.0476 23.4804 33.9325 23.4817 33.8224 23.4565" stroke="black" stroke-width="0.208066" stroke-miterlimit="10"/>
<path d="M34.6652 22.9988C35.2155 23.8209 35.2256 25.0251 34.6888 25.9085C34.5619 26.137 34.3763 26.3326 34.1486 26.4776C34.0433 26.5448 33.9206 26.5844 33.7934 26.5924C33.6662 26.6004 33.5389 26.5765 33.4249 26.5232" stroke="black" stroke-width="0.208066" stroke-miterlimit="10"/>
<path d="M34.2771 26.4226C34.6911 26.6254 34.8257 27.1772 34.8375 27.6692C34.8718 28.2635 34.7322 28.8553 34.4336 29.3811C34.1189 29.8841 33.5636 30.2488 33.0099 30.1985" stroke="black" stroke-width="0.208066" stroke-miterlimit="10"/>
<path d="M33.8767 29.9414C33.9973 30.208 34.0588 30.4946 34.0573 30.784C34.0559 31.0734 33.9916 31.3595 33.8682 31.625C33.604 32.1485 33.0268 32.5116 32.495 32.4267" stroke="black" stroke-width="0.208066" stroke-miterlimit="10"/>
<path d="M33.3207 32.2366C33.5546 32.334 33.6388 32.6343 33.6573 32.9031C33.6986 33.5022 33.5629 34.1003 33.2652 34.6323C33.1545 34.8461 32.9934 35.0336 32.794 35.1809C32.7022 35.2493 32.5933 35.2946 32.4775 35.3125C32.3617 35.3304 32.243 35.3203 32.1326 35.2831" stroke="black" stroke-width="0.208066" stroke-miterlimit="10"/>
<path d="M32.9948 35.1697C32.978 35.1366 32.8871 35.0926 32.9494 35.1021C33.9928 35.8881 33.1883 37.6691 32.0288 37.8782" stroke="black" stroke-width="0.208066" stroke-miterlimit="10"/>
<path d="M32.2239 37.8955C32.3638 37.8684 32.5094 37.8866 32.6367 37.9472C32.7639 38.0078 32.8653 38.1071 32.924 38.2288C33.0559 38.4947 33.1005 38.7912 33.0519 39.0808C32.9844 39.6777 32.7054 40.2365 32.2592 40.6685" stroke="black" stroke-width="0.208066" stroke-miterlimit="10"/>
<path d="M32.488 40.4301C32.4985 40.4008 32.518 40.3751 32.544 40.356C32.5701 40.337 32.6015 40.3256 32.6344 40.3232C33.1528 40.21 33.6577 40.6879 33.693 41.2412C33.7012 41.514 33.6299 41.7837 33.4867 42.0215C33.3436 42.2594 33.1339 42.4564 32.8802 42.5916" stroke="black" stroke-width="0.208066" stroke-miterlimit="10"/>
<path d="M33.2303 42.2243C33.3651 41.9816 33.5783 41.7847 33.8396 41.6616C33.9612 41.6055 34.0966 41.5804 34.232 41.589C34.3673 41.5975 34.4979 41.6394 34.6103 41.7103C34.9721 41.9571 35.0395 42.4869 35.0294 42.9538C35.021 43.3546 34.957 43.8042 34.6608 44.0699" stroke="black" stroke-width="0.208066" stroke-miterlimit="10"/>
<path d="M33.1644 40.1216C33.3027 39.8753 33.4975 39.6605 33.7349 39.4928C33.8441 39.4145 33.9758 39.3685 34.1131 39.3606C34.2505 39.3528 34.3872 39.3835 34.5057 39.4488C34.6299 39.5415 34.7286 39.6606 34.7935 39.7962C35.0846 40.3197 35.189 41.0538 34.7935 41.5254" stroke="black" stroke-width="0.208066" stroke-miterlimit="10"/>
<path d="M33.0516 37.5996C33.1044 37.4987 33.1787 37.4091 33.27 37.3361C33.3614 37.2632 33.4677 37.2086 33.5825 37.1756C33.6974 37.1426 33.8182 37.1319 33.9376 37.1443C34.057 37.1566 34.1725 37.1917 34.2768 37.2474C34.6841 37.4707 34.9112 37.9501 34.992 38.4327C35.0731 38.7985 35.0135 39.1792 34.8237 39.5079" stroke="black" stroke-width="0.208066" stroke-miterlimit="10"/>
<path d="M33.4812 34.5823C33.6508 34.3902 33.8756 34.2473 34.1291 34.1705C34.2765 34.1522 34.4264 34.1739 34.561 34.233C34.6955 34.2921 34.8091 34.3861 34.8881 34.5037C35.0609 34.7582 35.166 35.0477 35.1944 35.3479C35.2779 35.966 35.213 36.5938 35.0042 37.1855C34.9655 37.294 34.8982 37.4198 34.7905 37.4229" stroke="black" stroke-width="0.208066" stroke-miterlimit="10"/>
<path d="M33.7031 31.9276C33.8188 31.8265 33.9571 31.7509 34.1081 31.7063C34.2591 31.6617 34.4188 31.6492 34.5757 31.6697C34.7325 31.6902 34.8824 31.7432 35.0145 31.8248C35.1465 31.9064 35.2574 32.0146 35.3389 32.1414C35.5425 32.4668 35.5745 32.8881 35.5611 33.2874C35.551 33.6018 35.4853 33.9633 35.2245 34.1111" stroke="black" stroke-width="0.208066" stroke-miterlimit="10"/>
<path d="M34.2419 29.5596C34.3727 29.4645 34.535 29.4151 34.7006 29.42C34.8663 29.4249 35.0249 29.4837 35.149 29.5864C35.4044 29.8154 35.5693 30.1185 35.6169 30.4462C35.7564 31.1514 35.61 31.8799 35.2062 32.4898" stroke="black" stroke-width="0.208066" stroke-miterlimit="10"/>
<path d="M34.7579 26.9169C34.8982 26.8185 35.0698 26.7669 35.2453 26.7703C35.4207 26.7737 35.5898 26.832 35.7256 26.9358C36.0066 27.1668 36.1913 27.483 36.2473 27.8287C36.3202 28.1887 36.3122 28.5589 36.2239 28.9158C36.1355 29.2727 35.9687 29.6086 35.734 29.9022" stroke="black" stroke-width="0.208066" stroke-miterlimit="10"/>
<path d="M35.3456 33.911C35.2552 34.1485 35.1032 34.3612 34.9031 34.5302" stroke="black" stroke-width="0.208066" stroke-miterlimit="10"/>
<path d="M34.9752 23.2805C35.0586 23.2176 35.1586 23.177 35.2646 23.1629C35.3707 23.1488 35.4789 23.1617 35.5777 23.2003C35.728 23.2724 35.8548 23.381 35.9446 23.5147C36.5218 24.274 36.4999 25.4341 36.059 26.3365" stroke="black" stroke-width="0.208066" stroke-miterlimit="10"/>
<path d="M36.0352 26.2309L35.7727 26.9224" stroke="black" stroke-width="0.208066" stroke-miterlimit="10"/>
<path d="M35.0936 20.5833C35.1598 20.5004 35.2533 20.4401 35.3597 20.4117C35.4661 20.3833 35.5796 20.3883 35.6826 20.4261C35.8852 20.5142 36.0522 20.6608 36.1589 20.8442C36.4059 21.2479 36.537 21.7044 36.5393 22.1693C36.5417 22.6343 36.4153 23.0919 36.1724 23.4977" stroke="black" stroke-width="0.208066" stroke-miterlimit="10"/>
<path d="M35.6367 17.5146C35.7387 17.4498 35.8572 17.4114 35.9802 17.4034C36.1032 17.3954 36.2262 17.418 36.3368 17.469C36.5625 17.5806 36.7432 17.7577 36.8518 17.9736C37.0836 18.4502 37.1426 18.9845 37.0201 19.4953C36.9012 20.0085 36.7009 20.5023 36.426 20.9604" stroke="black" stroke-width="0.208066" stroke-miterlimit="10"/>
<path d="M36.1704 14.7537C36.2466 14.6766 36.3516 14.6298 36.4636 14.6227C36.5757 14.6157 36.6863 14.6491 36.7729 14.7159C36.9472 14.8633 37.0737 15.0533 37.1381 15.2645C37.307 15.6461 37.3651 16.0626 37.3064 16.4718C37.2104 16.9843 36.8554 17.415 36.7039 17.9086" stroke="black" stroke-width="0.208066" stroke-miterlimit="10"/>
<path d="M36.8607 12.8884C36.9064 12.8125 36.9696 12.7471 37.0456 12.6968C37.1217 12.6465 37.2087 12.6126 37.3005 12.5976C37.3923 12.5825 37.4865 12.5867 37.5763 12.6098C37.6661 12.6329 37.7494 12.6744 37.82 12.7312C38.1027 12.9607 38.2054 13.3725 38.1885 13.7608C38.1532 14.5641 37.6938 15.2888 37.2495 15.9616" stroke="black" stroke-width="0.208066" stroke-miterlimit="10"/>
<path d="M37.3586 10.245C37.6616 9.8944 38.2388 9.99187 38.5098 10.3424C38.7807 10.693 38.8093 11.2023 38.7454 11.666C38.657 12.3194 38.4101 12.9452 38.0234 13.4958" stroke="black" stroke-width="0.208066" stroke-miterlimit="10"/>
<path d="M38.8004 7.00353C39.1555 6.90135 39.4736 7.24876 39.588 7.61031C39.7563 8.15579 39.6587 8.77045 39.4618 9.32379C39.2649 9.87713 38.9738 10.3912 38.7466 10.9319" stroke="black" stroke-width="0.208066" stroke-miterlimit="10"/>
<path d="M39.5632 5.17626C39.6237 5.14482 39.6939 5.1339 39.7621 5.14537C39.8302 5.15683 39.8919 5.18997 39.9368 5.23914C40.031 5.34632 40.0931 5.47486 40.1169 5.6117C40.1942 5.95824 40.1882 6.31648 40.0995 6.6606C40.0107 7.00473 39.8414 7.32619 39.6036 7.60185" stroke="black" stroke-width="0.208066" stroke-miterlimit="10"/>
<path d="M40.1489 2.51358C40.3997 2.3721 40.7161 2.55602 40.8221 2.82798C40.9032 3.1153 40.8897 3.41881 40.7834 3.69886C40.6243 4.23211 40.3669 4.73535 40.0227 5.18596" stroke="black" stroke-width="0.208066" stroke-miterlimit="10"/>
<path d="M40.9783 1.98297C40.9413 2.23884 40.9362 2.49785 40.9632 2.75482C40.9634 2.92147 41.0225 3.0834 41.1314 3.21541C41.3469 3.41505 41.6952 3.28929 41.9443 3.1148C42.4121 2.78626 42.816 2.21876 42.7151 1.64813" stroke="black" stroke-width="0.208066" stroke-miterlimit="10"/>
<path d="M41.3268 3.25985C41.6432 3.06964 42.0538 3.25985 42.2238 3.59154C42.3937 3.92323 42.3735 4.32094 42.313 4.69193C42.2241 5.23236 42.0542 5.75839 41.8081 6.25449" stroke="black" stroke-width="0.208066" stroke-miterlimit="10"/>
<path d="M40.4213 6.4674C40.5009 6.37152 40.6045 6.29543 40.7231 6.24584C40.8416 6.19626 40.9714 6.17471 41.101 6.1831C41.2306 6.19149 41.356 6.22956 41.4661 6.29395C41.5762 6.35834 41.6676 6.44707 41.7322 6.55229C41.9392 6.91385 41.8585 7.3933 41.7104 7.80202C41.6017 8.09877 41.4596 8.38386 41.2863 8.65246" stroke="black" stroke-width="0.208066" stroke-miterlimit="10"/>
<path d="M39.8053 8.7557C40.1217 8.60636 40.4684 8.4523 40.7932 8.54191C41.1971 8.65352 41.4293 9.12197 41.4259 9.56999C41.3934 10.0189 41.2574 10.456 41.0271 10.8512" stroke="black" stroke-width="0.208066" stroke-miterlimit="10"/>
<path d="M39.0262 10.9825C39.1385 10.8 39.3108 10.6562 39.5177 10.5726C39.7245 10.489 39.9547 10.4701 40.174 10.5188C40.3891 10.5891 40.58 10.7124 40.7263 10.8757C40.8726 11.0389 40.969 11.2361 41.0053 11.4463C41.0913 11.9007 40.9864 12.3685 40.7125 12.7526" stroke="black" stroke-width="0.208066" stroke-miterlimit="10"/>
<path d="M38.4288 13.1399C38.3766 13 38.5348 12.8663 38.6728 12.8145C39.2484 12.596 39.9686 12.761 40.248 13.3159C40.4971 13.8127 40.3338 14.4509 40.0797 14.9665" stroke="black" stroke-width="0.208066" stroke-miterlimit="10"/>
<path d="M40.9262 12.4799L40.3256 13.3867" stroke="black" stroke-width="0.208066" stroke-miterlimit="10"/>
<path d="M37.5398 15.6052C37.8305 15.3515 38.1688 15.1501 38.5378 15.011C38.8474 14.8947 39.2109 14.8365 39.4718 15.0252C39.7747 15.2437 39.8218 15.6995 39.7797 16.0957C39.7279 16.5806 39.5831 17.0529 39.3523 17.49" stroke="black" stroke-width="0.208066" stroke-miterlimit="10"/>
<path d="M40.2125 14.5975C40.1031 14.9124 39.9425 15.2098 39.7363 15.4791" stroke="black" stroke-width="0.208066" stroke-miterlimit="10"/>
<path d="M36.9172 17.3849C37.3363 17.1208 37.8277 16.8976 38.2804 17.0312C38.7331 17.1649 39.0444 17.671 39.0983 18.1851C39.125 18.7075 39.0267 19.229 38.8105 19.7115" stroke="black" stroke-width="0.208066" stroke-miterlimit="10"/>
<path d="M36.9313 19.9805C37.0451 19.8355 37.1998 19.7231 37.3781 19.6556C37.5564 19.5881 37.7513 19.5684 37.941 19.5985C38.1272 19.6431 38.2968 19.7341 38.432 19.8617C38.5671 19.9893 38.6627 20.1488 38.7084 20.3232C38.8532 20.8262 38.6394 21.3764 38.4324 21.8716" stroke="black" stroke-width="0.208066" stroke-miterlimit="10"/>
<path d="M36.5843 22.7203C36.5405 22.5348 36.7761 22.4059 36.9562 22.3776C37.3092 22.3121 37.6661 22.2659 38.0249 22.2392C38.135 22.2204 38.2487 22.2382 38.3463 22.2895C38.4301 22.3574 38.4889 22.4481 38.5146 22.5489C38.7485 23.2374 38.5718 24.0187 38.3934 24.7497" stroke="black" stroke-width="0.208066" stroke-miterlimit="10"/>
<path d="M36.3333 25.1441C36.4974 24.8799 36.7456 24.67 37.0434 24.5436C37.1825 24.4793 37.34 24.4584 37.4928 24.4839C37.8883 24.5735 38.038 25.0671 38.1154 25.4884C38.1929 25.9097 38.2232 26.386 37.9085 26.6391" stroke="black" stroke-width="0.208066" stroke-miterlimit="10"/>
<path d="M35.9595 26.8868C36.0452 26.6959 36.1908 26.5337 36.377 26.4215C36.5632 26.3093 36.7814 26.2523 37.0029 26.258C37.2172 26.2834 37.4199 26.3635 37.5888 26.4894C37.7577 26.6153 37.8863 26.7821 37.9605 26.9716C38.1261 27.3883 38.1177 27.848 37.9369 28.2591" stroke="black" stroke-width="0.208066" stroke-miterlimit="10"/>
<path d="M36.2357 29.1188C36.367 28.6645 36.85 28.4366 37.2842 28.3218C37.376 28.2852 37.4752 28.2674 37.5751 28.2696C37.6749 28.2718 37.7731 28.2939 37.8631 28.3344C38.0232 28.4686 38.121 28.6558 38.1357 28.8563C38.2547 29.5075 38.176 30.1768 37.9085 30.7883" stroke="black" stroke-width="0.208066" stroke-miterlimit="10"/>
<path d="M35.7297 31.0018C35.8862 30.6969 36.2346 30.568 36.5544 30.5145C36.8228 30.4548 37.1046 30.4746 37.3605 30.5711C37.5106 30.6467 37.6418 30.7513 37.7454 30.8778C37.849 31.0044 37.9225 31.1501 37.9613 31.3052C38.0491 31.6367 38.0537 31.9826 37.9747 32.316" stroke="black" stroke-width="0.208066" stroke-miterlimit="10"/>
<path d="M35.5676 33.2762C35.7039 32.9979 35.9985 32.8565 36.2711 32.7354C36.7322 32.5342 37.296 32.3424 37.6713 32.66C37.8339 32.8143 37.9394 33.0131 37.9725 33.2274C38.0558 33.6503 37.9866 34.0871 37.7756 34.4693" stroke="black" stroke-width="0.208066" stroke-miterlimit="10"/>
<path d="M35.0023 34.7592C35.0528 34.5705 35.2548 34.4809 35.4315 34.4212C35.8774 34.264 36.3352 34.1178 36.7946 34.1493C36.9824 34.1534 37.1661 34.201 37.3294 34.2876C37.4927 34.3743 37.6305 34.4974 37.7305 34.6459C37.8305 34.7944 37.8896 34.9637 37.9025 35.1387C37.9154 35.3138 37.8817 35.489 37.8044 35.6489" stroke="black" stroke-width="0.208066" stroke-miterlimit="10"/>
<path d="M35.1539 36.4669C35.6455 36.0615 36.2315 35.7687 36.8654 35.6117C37.202 35.5284 37.6076 35.508 37.8499 35.7689C38.163 36.0991 38.0283 36.6713 37.8718 37.1287" stroke="black" stroke-width="0.208066" stroke-miterlimit="10"/>
<path d="M34.8065 38.3088C34.9123 38.1859 35.0531 38.0935 35.2128 38.0424C35.3724 37.9912 35.5443 37.9833 35.7086 38.0195C36.55 38.1547 37.1761 39.1105 37.0027 40.0191" stroke="black" stroke-width="0.208066" stroke-miterlimit="10"/>
<path d="M37.857 36.7839C37.7739 37.6356 37.4863 38.4588 37.0155 39.1922" stroke="black" stroke-width="0.208066" stroke-miterlimit="10"/>
<path d="M34.7244 39.9238C34.96 39.5575 35.4581 39.5339 35.8519 39.6345C36.2041 39.7089 36.5145 39.902 36.7237 40.1769C36.8294 40.3314 36.8847 40.5115 36.8826 40.6949C36.8805 40.8783 36.8212 41.0572 36.7119 41.2097" stroke="black" stroke-width="0.208066" stroke-miterlimit="10"/>
<path d="M34.7719 41.6929C34.7527 41.631 34.7544 41.5651 34.7767 41.5041C34.799 41.443 34.8408 41.3899 34.8965 41.3518C35.0028 41.2872 35.125 41.2488 35.2516 41.2402C35.4861 41.1941 35.7269 41.1829 35.9651 41.2072C36.0867 41.2217 36.2033 41.2616 36.3061 41.3239C36.409 41.3862 36.4955 41.4694 36.5592 41.5672C36.6581 41.7666 36.7015 41.9861 36.6854 42.2054C36.6816 42.5961 36.6251 42.9849 36.5171 43.3624" stroke="black" stroke-width="0.208066" stroke-miterlimit="10"/>
<path d="M35.0359 43.5215C35.2143 43.2071 35.5828 42.9714 35.9059 43.0798C36.0143 43.127 36.1098 43.1964 36.1853 43.283C36.2608 43.3696 36.3143 43.471 36.3418 43.5797C36.4059 43.8101 36.437 44.0475 36.4344 44.2855L36.4529 44.8247" stroke="black" stroke-width="0.208066" stroke-miterlimit="10"/>
<path d="M42.6209 2.52216C42.4835 2.73944 42.4078 2.98593 42.401 3.23822C42.3942 3.4905 42.4566 3.74023 42.5822 3.96367C42.6312 4.04877 42.6996 4.12282 42.7825 4.18061C42.8639 4.22433 42.9561 4.24734 43.05 4.24734C43.1439 4.24734 43.2362 4.22433 43.3176 4.18061C43.7653 3.97625 43.9908 3.34273 43.7872 2.89472" stroke="black" stroke-width="0.208066" stroke-miterlimit="10"/>
<path d="M43.7874 2.19891C43.8551 2.52178 43.895 2.84918 43.9068 3.178" stroke="black" stroke-width="0.208066" stroke-miterlimit="10"/>
<path d="M41.9761 6.15673C42.0112 6.26346 42.0711 6.36163 42.1516 6.4442C42.2321 6.52677 42.3311 6.59171 42.4416 6.63437C42.552 6.67703 42.6712 6.69635 42.7906 6.69096C42.91 6.68557 43.0267 6.65559 43.1322 6.60317C43.5664 6.39252 43.834 5.88949 43.8946 5.39117C43.9333 4.89769 43.8699 4.40186 43.7078 3.93079" stroke="black" stroke-width="0.208066" stroke-miterlimit="10"/>
<path d="M43.7706 5.93719C43.8588 6.30069 43.8515 6.67874 43.7492 7.03901C43.6469 7.39928 43.4527 7.73105 43.1832 8.00593C42.8467 8.33605 42.2997 8.52469 41.948 8.24016" stroke="black" stroke-width="0.208066" stroke-miterlimit="10"/>
<path d="M43.3107 7.6792C43.7196 8.28913 43.5917 9.16945 43.2568 9.8627C43.07 10.2478 42.8092 10.6204 42.4373 10.7933C42.0653 10.9662 41.5722 10.8719 41.3972 10.4993" stroke="black" stroke-width="0.208066" stroke-miterlimit="10"/>
<path d="M42.9457 10.0004C43.2032 10.2331 43.2823 10.6292 43.2958 10.9892C43.338 11.4823 43.2644 11.978 43.0803 12.4417C42.8801 12.896 42.5031 13.2859 42.0487 13.4006C41.8182 13.458 41.5731 13.4335 41.3608 13.3318C41.1485 13.2302 40.9841 13.0587 40.8993 12.8504" stroke="black" stroke-width="0.208066" stroke-miterlimit="10"/>
<path d="M42.7861 12.6689C42.9249 13.282 42.8889 13.9184 42.6817 14.5144C42.597 14.7848 42.4513 15.0352 42.2543 15.2485C42.1647 15.3484 42.0515 15.4274 41.9235 15.4793C41.7955 15.5311 41.6564 15.5544 41.5171 15.5472C41.3777 15.5178 41.2462 15.4622 41.1305 15.3838C41.0148 15.3054 40.9173 15.2059 40.844 15.0913C40.6178 14.7855 40.4693 14.4355 40.4098 14.068" stroke="black" stroke-width="0.208066" stroke-miterlimit="10"/>
<path d="M42.1037 15.2595C42.1812 15.2674 42.2081 15.368 42.2165 15.4497C42.2735 15.8871 42.2304 16.3307 42.0903 16.7513C41.9371 17.1663 41.6258 17.5373 41.2286 17.6725C41.0709 17.7257 40.9012 17.7401 40.7358 17.7142C40.5705 17.6883 40.4151 17.6231 40.2845 17.5248C40.1477 17.414 40.0383 17.2768 39.9639 17.1226C39.8895 16.9684 39.8519 16.801 39.8537 16.6319" stroke="black" stroke-width="0.208066" stroke-miterlimit="10"/>
<path d="M41.3571 17.5256C41.3571 17.4548 41.4631 17.5146 41.4715 17.5853C41.5473 18.1827 41.2713 18.7895 40.9095 19.2736C40.7159 19.5314 40.4803 19.7782 40.1841 19.8616C40.0383 19.8987 39.8844 19.8984 39.7387 19.8608C39.593 19.8232 39.4609 19.7496 39.3561 19.6478C39.1339 19.4259 38.9941 19.1432 38.9573 18.8413" stroke="black" stroke-width="0.208066" stroke-miterlimit="10"/>
<path d="M40.9614 19.1567C40.9357 19.5832 40.8561 20.0054 40.7241 20.4143C40.5726 20.8859 40.3219 21.3685 39.8995 21.5933C39.3273 21.8967 38.6373 21.6122 38.193 21.1626" stroke="black" stroke-width="0.208066" stroke-miterlimit="10"/>
<path d="M40.2529 21.5139L40.3219 21.2513C40.4462 21.7729 40.4347 22.3147 40.2882 22.8312C40.2053 23.1887 40.0136 23.5162 39.7362 23.7744C39.4586 24.0055 39.0631 24.0966 38.7618 23.9316" stroke="black" stroke-width="0.208066" stroke-miterlimit="10"/>
<path d="M40.0295 23.4765C40.2363 24.3003 40.1079 25.1665 39.6694 25.9068C39.5407 26.1482 39.3455 26.3533 39.1039 26.501C38.9917 26.5692 38.8598 26.6034 38.726 26.5989C38.5923 26.5944 38.4633 26.5514 38.3567 26.4759" stroke="black" stroke-width="0.208066" stroke-miterlimit="10"/>
<path d="M39.4656 26.1503C39.4353 26.1503 39.4656 26.0858 39.4892 26.089C39.5127 26.0921 39.538 26.1251 39.5514 26.155C39.7262 26.6139 39.7868 27.104 39.7285 27.588C39.6701 28.0721 39.4945 28.5373 39.2149 28.9484C39.0045 29.2503 38.6494 29.5316 38.333 29.398" stroke="black" stroke-width="0.208066" stroke-miterlimit="10"/>
<path d="M38.969 29.0432C39.0902 28.9819 39.1928 29.1438 39.2231 29.279C39.3466 29.8485 39.2681 30.4401 38.9993 30.9642C38.7455 31.4665 38.3072 31.867 37.764 32.0929" stroke="black" stroke-width="0.208066" stroke-miterlimit="10"/>
<path d="M38.759 31.2091C38.7287 31.1666 38.7893 31.1022 38.8398 31.1132C38.8903 31.1242 38.9189 31.1745 38.9408 31.2232C39.2552 31.9073 39.2893 32.6755 39.0367 33.3816C38.9552 33.6421 38.8067 33.8801 38.6042 34.0748C38.5127 34.1655 38.3967 34.2314 38.2685 34.2657C38.1403 34.3 38.0045 34.3014 37.8755 34.2697" stroke="black" stroke-width="0.208066" stroke-miterlimit="10"/>
<path d="M38.4779 33.8312C38.4802 33.8174 38.4857 33.8043 38.4941 33.7928C38.5026 33.7812 38.5137 33.7717 38.5266 33.7647C38.5395 33.7578 38.554 33.7536 38.5689 33.7526C38.5837 33.7516 38.5987 33.7537 38.6126 33.7589C38.6658 33.7876 38.7068 33.8326 38.7287 33.8862C39.0511 34.4574 39.1356 35.1199 38.966 35.7459C38.7741 36.3746 38.2137 36.8966 37.6045 36.9028" stroke="black" stroke-width="0.208066" stroke-miterlimit="10"/>
<path d="M38.6865 36.3447C38.718 36.3159 38.7603 36.2997 38.8043 36.2997C38.8484 36.2997 38.8907 36.3159 38.9221 36.3447C38.9852 36.4106 39.0272 36.4918 39.0433 36.5789C39.1651 37.0487 39.1726 37.538 39.0651 38.0109C38.9576 38.4837 38.738 38.928 38.4223 39.311C38.2833 39.4902 38.0965 39.6322 37.8804 39.7229C37.7779 39.764 37.6644 39.7747 37.5551 39.7536C37.4459 39.7325 37.3462 39.6807 37.2695 39.605" stroke="black" stroke-width="0.208066" stroke-miterlimit="10"/>
<path d="M38.1863 39.6647C38.4943 40.3596 38.2284 41.3043 37.6023 41.7461C37.3448 41.9268 36.9914 42.018 36.7609 41.8325" stroke="black" stroke-width="0.208066" stroke-miterlimit="10"/>
<path d="M37.6527 41.7827C37.8967 41.7921 37.9893 42.1128 38.0078 42.3706C38.0499 42.8721 38.0549 43.405 37.8294 43.8593C37.6039 44.3136 37.0688 44.6453 36.6379 44.4551" stroke="black" stroke-width="0.208066" stroke-miterlimit="10"/>
<path d="M37.7552 44.1191C37.8164 44.2826 37.8174 44.4605 37.7579 44.6245C37.6985 44.7885 37.5821 44.9293 37.4271 45.0244" stroke="black" stroke-width="0.208066" stroke-miterlimit="10"/>
<path d="M45.3921 3.92438C45.5121 4.28463 45.5601 4.66245 45.5335 5.03892C45.4813 5.41777 45.239 5.80448 44.8873 5.8878C44.4867 5.98369 44.1283 5.67872 43.8354 5.39419" stroke="black" stroke-width="0.208066" stroke-miterlimit="10"/>
<path d="M45.1721 5.73217C45.2933 5.72116 45.3657 5.86421 45.396 5.9884C45.5234 6.54831 45.4333 7.13232 45.1419 7.63584C45.058 7.79876 44.9405 7.94458 44.7961 8.0649C44.6517 8.18523 44.4832 8.27769 44.3004 8.33695C44.1232 8.38284 43.9342 8.3668 43.7688 8.29185C43.6033 8.2169 43.4729 8.08818 43.4017 7.9298" stroke="black" stroke-width="0.208066" stroke-miterlimit="10"/>
<path d="M45.1338 7.72009C45.2949 8.28337 45.3428 8.86968 45.2751 9.44928C45.2455 9.83785 45.1193 10.2146 44.9066 10.5497C44.6844 10.8641 44.3192 11.0967 43.9574 11.0637C43.636 11.0338 43.3684 10.8106 43.1462 10.5717" stroke="black" stroke-width="0.208066" stroke-miterlimit="10"/>
<path d="M44.7695 10.7582C44.7359 10.7582 44.7544 10.6938 44.7864 10.7001C44.8183 10.7064 44.8301 10.7488 44.8368 10.7834C44.9213 11.3038 44.9001 11.8344 44.7746 12.3475C44.677 12.7374 44.4986 13.1335 44.1771 13.3583C43.8557 13.5831 43.371 13.558 43.1775 13.2247" stroke="black" stroke-width="0.208066" stroke-miterlimit="10"/>
<path d="M44.341 13.0347C44.4916 13.4838 44.5184 13.9611 44.419 14.4225C44.3196 14.8839 44.0971 15.3143 43.7722 15.674C43.6183 15.8535 43.4119 15.9873 43.1781 16.0592C43.066 16.0903 42.9464 16.0886 42.8354 16.0543C42.7244 16.0201 42.6273 15.9548 42.5571 15.8674" stroke="black" stroke-width="0.208066" stroke-miterlimit="10"/>
<path d="M43.4504 15.7316C43.5819 16.2295 43.5994 16.7478 43.5016 17.2525C43.4039 17.7571 43.1932 18.2368 42.8832 18.6602C42.7251 18.8972 42.4972 19.0865 42.2269 19.2057C42.0985 19.2584 41.9549 19.2696 41.8189 19.2374C41.6829 19.2052 41.5623 19.1315 41.4763 19.028" stroke="black" stroke-width="0.208066" stroke-miterlimit="10"/>
<path d="M42.9792 18.3503C43.1088 18.3503 43.1609 18.5216 43.1761 18.6568C43.2583 19.2069 43.252 19.7653 43.1576 20.3137C43.0431 20.8592 42.7688 21.3937 42.3296 21.7159C42.2245 21.8026 42.1013 21.868 41.9677 21.9077C41.8341 21.9475 41.6931 21.9609 41.5537 21.947C41.1162 21.8778 40.8351 21.4502 40.6029 21.0572" stroke="black" stroke-width="0.208066" stroke-miterlimit="10"/>
<path d="M42.1285 21.8532C42.2042 21.7698 42.3136 21.8987 42.3388 22.0104C42.4354 22.4644 42.3982 22.9343 42.2311 23.3701C42.0974 23.7762 41.7999 24.1179 41.4014 24.3228C41.2141 24.4109 40.9989 24.4327 40.7956 24.3842C40.5924 24.3356 40.4148 24.22 40.2958 24.0587" stroke="black" stroke-width="0.208066" stroke-miterlimit="10"/>
<path d="M41.4973 24.3326C41.6112 25.3309 41.4369 26.3394 40.9924 27.2534C40.8477 27.5489 40.6559 27.8523 40.3512 27.9529C40.2758 27.9768 40.1951 27.9822 40.1167 27.9689C40.0384 27.9555 39.9649 27.9238 39.9033 27.8766C39.8417 27.8295 39.794 27.7684 39.7646 27.6993C39.7352 27.6301 39.7251 27.5551 39.7353 27.4813" stroke="black" stroke-width="0.208066" stroke-miterlimit="10"/>
<path d="M46.5608 8.19958C46.5846 8.52774 46.5591 8.85739 46.4851 9.17894C46.4507 9.33573 46.3835 9.48462 46.2873 9.61708C46.1911 9.74953 46.0679 9.86294 45.9247 9.95078C45.7898 10.0279 45.6281 10.0531 45.4736 10.0212C45.3192 9.98922 45.1841 9.90257 45.0967 9.77944" stroke="black" stroke-width="0.208066" stroke-miterlimit="10"/>
<path d="M46.4969 9.65656C46.5785 10.1303 46.5785 10.6133 46.4969 11.0871C46.3892 11.5587 46.0829 12.0193 45.6437 12.156C45.5327 12.188 45.4153 12.1956 45.3007 12.1783C45.186 12.161 45.0772 12.1193 44.9826 12.0563C44.888 11.9934 44.8103 11.9109 44.7553 11.8153C44.7004 11.7198 44.6698 11.6136 44.6659 11.5052" stroke="black" stroke-width="0.208066" stroke-miterlimit="10"/>
<path d="M44.7216 12.7355C44.6803 13.371 44.8227 14.0051 45.1339 14.5716C45.2382 14.7555 45.3779 14.9378 45.5799 14.9771C45.7183 14.9938 45.8586 14.9637 45.9753 14.8922C46.1802 14.773 46.3505 14.6085 46.4714 14.4134C46.5923 14.2182 46.6601 13.9983 46.6687 13.773" stroke="black" stroke-width="0.208066" stroke-miterlimit="10"/>
<path d="M46.7512 14.6858C46.7341 15.1327 46.6386 15.5741 46.4685 15.9921C46.3526 16.3119 46.1584 16.6021 45.9013 16.8394C45.7842 16.9499 45.6385 17.0301 45.4784 17.0722C45.3182 17.1144 45.1491 17.117 44.9875 17.0799C44.4692 16.9227 44.2588 16.2688 44.2437 15.6903" stroke="black" stroke-width="0.208066" stroke-miterlimit="10"/>
<path d="M44.2301 15.2385L44.2469 15.0719C44.2857 15.3548 44.2992 15.6403 44.2873 15.9253" stroke="black" stroke-width="0.208066" stroke-miterlimit="10"/>
<path d="M45.3192 17.2024C45.1631 17.5771 45.1263 17.986 45.2132 18.3798C45.2457 18.6767 45.3803 18.9558 45.5969 19.1752C45.7039 19.2732 45.8477 19.328 45.9974 19.328C46.1472 19.328 46.291 19.2732 46.398 19.1752" stroke="black" stroke-width="0.208066" stroke-miterlimit="10"/>
<path d="M45.3507 19.062C45.1639 19.5336 44.829 19.958 44.3796 20.1247C44.1582 20.2131 43.9085 20.2167 43.6843 20.1346C43.4602 20.0526 43.2795 19.8915 43.1814 19.6861" stroke="black" stroke-width="0.208066" stroke-miterlimit="10"/>
<path d="M45.0678 19.4698C44.8939 19.9829 44.7993 20.5164 44.7867 21.0544C44.8002 21.5873 45.0072 22.1359 45.433 22.4032C45.5292 22.4718 45.6487 22.5058 45.7696 22.4991C45.835 22.4898 45.8958 22.4622 45.9439 22.4197C45.9921 22.3773 46.0252 22.3222 46.0388 22.2617" stroke="black" stroke-width="0.208066" stroke-miterlimit="10"/>
<path d="M44.7563 21.6486C44.6826 22.1191 44.4313 22.5495 44.0478 22.8622C43.8735 23.0195 43.6469 23.1165 43.4055 23.1369C43.1641 23.1572 42.9225 23.0999 42.7208 22.9743C42.5191 22.8487 42.3695 22.6624 42.2968 22.4465C42.2241 22.2305 42.2327 21.9978 42.3212 21.787" stroke="black" stroke-width="0.208066" stroke-miterlimit="10"/>
<path d="M44.5243 22.5295C44.2179 22.9676 44.0846 23.4918 44.1474 24.0119C44.2075 24.5133 44.3988 24.9933 44.7044 25.4094C44.8082 25.5767 44.9574 25.7155 45.1369 25.8118C45.2268 25.8561 45.3296 25.8721 45.43 25.8573C45.5304 25.8426 45.623 25.798 45.694 25.7301" stroke="black" stroke-width="0.208066" stroke-miterlimit="10"/>
<path d="M44.2332 24.6089C44.075 25.2377 43.6677 25.8335 43.0888 26.041C42.9449 26.0922 42.7909 26.1137 42.6373 26.104C42.4837 26.0943 42.3341 26.0536 42.199 25.9848C42.0638 25.9159 41.9462 25.8205 41.8544 25.705C41.7625 25.5896 41.6985 25.457 41.6667 25.3163" stroke="black" stroke-width="0.208066" stroke-miterlimit="10"/>
<path d="M44.5441 25.4999C44.4738 25.8931 44.3181 26.2688 44.0866 26.6038C43.855 26.9387 43.5526 27.2259 43.1978 27.4476C42.8545 27.6711 42.4353 27.769 42.0198 27.7227C41.8116 27.6895 41.6172 27.6039 41.4573 27.4751C41.2975 27.3463 41.1783 27.1791 41.1127 26.9917" stroke="black" stroke-width="0.208066" stroke-miterlimit="10"/>
<path d="M44.3425 26.3076C44.1198 26.7912 44.0122 27.3142 44.027 27.8405C44.0418 28.3667 44.1787 28.8837 44.4283 29.3557C44.4947 29.4913 44.5952 29.6099 44.7211 29.7015C44.7834 29.7433 44.8582 29.7657 44.9349 29.7657C45.0115 29.7657 45.0863 29.7433 45.1486 29.7015" stroke="black" stroke-width="0.208066" stroke-miterlimit="10"/>
<path d="M43.9819 28.4854C43.6035 28.982 43.4275 29.5886 43.4854 30.1957C43.5424 30.782 43.7591 31.3448 44.1149 31.8306C44.2572 32.0482 44.4491 32.2339 44.6769 32.3745C44.7877 32.4413 44.9146 32.481 45.046 32.4901C45.1774 32.4991 45.3092 32.4772 45.4292 32.4264" stroke="black" stroke-width="0.208066" stroke-miterlimit="10"/>
<path d="M43.8999 31.8173C43.7173 32.107 43.5791 32.4192 43.4893 32.7447C43.3799 33.2336 43.4893 33.7367 43.634 34.2035C43.6982 34.4528 43.8087 34.6895 43.9605 34.9031C44.0305 35.0034 44.1271 35.0852 44.2409 35.1402C44.3548 35.1953 44.482 35.222 44.6101 35.2175" stroke="black" stroke-width="0.208066" stroke-miterlimit="10"/>
<path d="M43.7178 34.7864C43.3978 35.1957 43.2013 35.6778 43.149 36.1823C43.1066 36.4906 43.1471 36.804 43.2668 37.0941C43.3203 37.2279 43.4076 37.3476 43.5213 37.4432C43.635 37.5387 43.7717 37.6071 43.9198 37.6427C44.0628 37.6587 44.2078 37.6456 44.3449 37.6043C44.482 37.5631 44.608 37.4947 44.7141 37.4037" stroke="black" stroke-width="0.208066" stroke-miterlimit="10"/>
<path d="M43.967 27.5357C43.8538 28.0728 43.6026 28.5761 43.235 29.0024C42.8614 29.4001 42.3228 29.65 41.8163 29.562C41.5483 29.5046 41.3097 29.3628 41.1405 29.1604C40.9713 28.958 40.8819 28.7073 40.8873 28.4506" stroke="black" stroke-width="0.208066" stroke-miterlimit="10"/>
<path d="M41.1282 27.2676C41.1552 27.9678 40.9424 28.6579 40.5206 29.2373C40.3902 29.4361 40.2055 29.5989 39.9855 29.7089C39.8826 29.7588 39.7655 29.7773 39.6508 29.7618C39.5361 29.7463 39.4294 29.6976 39.3459 29.6224" stroke="black" stroke-width="0.208066" stroke-miterlimit="10"/>
<path d="M41.9363 29.7443C41.7158 30.3825 41.3035 30.983 40.7229 31.2707C40.1423 31.5583 39.3766 31.4609 39.0131 30.939" stroke="black" stroke-width="0.208066" stroke-miterlimit="10"/>
<path d="M41.3941 30.3925C41.3523 30.642 41.3862 30.8975 41.4917 31.13C41.5973 31.3625 41.7704 31.5628 41.9915 31.7082C42.2121 31.8268 42.4683 31.8744 42.7206 31.8438C42.973 31.8131 43.2076 31.7058 43.3883 31.5384C43.5566 31.3938 43.6896 31.1627 43.6172 30.9584" stroke="black" stroke-width="0.208066" stroke-miterlimit="10"/>
<path d="M41.7778 31.5745C41.7728 31.8944 41.6767 32.2072 41.4992 32.4808C41.3217 32.7543 41.0693 32.9787 40.768 33.1308C40.4816 33.2533 40.1597 33.2832 39.8531 33.2157C39.5465 33.1482 39.2727 32.9873 39.075 32.7582C38.9791 32.6482 38.9235 32.4297 39.0599 32.3731" stroke="black" stroke-width="0.208066" stroke-miterlimit="10"/>
<path d="M41.2797 32.7339C41.2904 32.9387 41.3459 33.1392 41.4429 33.323C41.5399 33.5069 41.6762 33.6702 41.8434 33.8029C42.0031 33.9212 42.191 34.0018 42.3911 34.0376C42.5912 34.0735 42.7977 34.0636 42.9929 34.0088C43.1237 33.9799 43.2394 33.9086 43.3193 33.8076C43.3602 33.7547 43.3815 33.6908 43.38 33.6255C43.3784 33.5603 43.3542 33.4973 43.3109 33.4461" stroke="black" stroke-width="0.208066" stroke-miterlimit="10"/>
<path d="M41.7979 33.5482C41.7888 34.0733 41.5732 34.5769 41.1921 34.9629C41.0191 35.1386 40.8068 35.2766 40.5704 35.367C40.3339 35.4575 40.0791 35.4983 39.8239 35.4864C39.6376 35.4804 39.4562 35.4293 39.2975 35.3381C39.1388 35.2469 39.0082 35.1187 38.9185 34.9661" stroke="black" stroke-width="0.208066" stroke-miterlimit="10"/>
<path d="M40.9832 34.9835C40.8973 35.2445 40.8857 35.5219 40.9495 35.7883C40.9944 35.9294 41.0719 36.0596 41.1766 36.1696C41.2813 36.2796 41.4106 36.3668 41.5554 36.425C41.8355 36.5277 42.1384 36.5639 42.4372 36.5303C42.6358 36.5146 42.9017 36.3904 42.8562 36.186" stroke="black" stroke-width="0.208066" stroke-miterlimit="10"/>
<path d="M41.0406 35.8369C41.1732 36.1049 41.2297 36.4003 41.2046 36.6946C41.1796 36.989 41.0738 37.2723 40.8976 37.5174C40.7378 37.7447 40.5056 37.9193 40.2338 38.0166C39.9621 38.114 39.6644 38.129 39.3829 38.0597" stroke="black" stroke-width="0.208066" stroke-miterlimit="10"/>
<path d="M41.1252 37.0768C40.9569 37.6961 41.4062 38.3564 41.9902 38.4727C42.5742 38.589 43.2036 38.2353 43.557 37.704" stroke="black" stroke-width="0.208066" stroke-miterlimit="10"/>
<path d="M42.0874 38.4736C41.7811 38.8744 41.8787 39.4592 42.0874 39.8994C42.1695 40.1124 42.3245 40.2941 42.5283 40.4165C42.6324 40.4691 42.7543 40.4821 42.8684 40.4528C42.9825 40.4235 43.0801 40.3542 43.1409 40.2594" stroke="black" stroke-width="0.208066" stroke-miterlimit="10"/>
<path d="M41.2141 38.2297C41.3187 38.465 41.3511 38.7229 41.3077 38.9744C41.2643 39.226 41.1468 39.4613 40.9684 39.654C40.8026 39.8288 40.5924 39.9619 40.3572 40.041C40.1219 40.1201 39.8691 40.1427 39.6221 40.1067C39.1361 40.0188 38.6951 39.7827 38.3683 39.4355" stroke="black" stroke-width="0.208066" stroke-miterlimit="10"/>
<path d="M40.1433 40.0431C40.315 40.4163 40.3222 40.8376 40.1635 41.2158C40.0111 41.583 39.7414 41.8974 39.3911 42.1165C39.1643 42.2699 38.8919 42.3535 38.6119 42.3555C38.4717 42.3514 38.3352 42.3122 38.2168 42.2419C38.0983 42.1717 38.0023 42.073 37.9387 41.9562" stroke="black" stroke-width="0.208066" stroke-miterlimit="10"/>
<path d="M40.1237 40.5718C40.1354 41.0434 40.2078 41.5888 40.5949 41.8026C40.9819 42.0164 41.4851 41.7633 41.8352 41.4442C42.1852 41.1251 42.5168 40.6221 42.3956 40.152" stroke="black" stroke-width="0.208066" stroke-miterlimit="10"/>
<path d="M42.7457 41.3865C42.4368 41.3979 42.1364 41.4841 41.8741 41.6368C41.6118 41.7895 41.3965 42.0034 41.2495 42.2574C41.0886 42.5267 40.9937 42.826 40.9716 43.1337C40.9494 43.4414 41.0007 43.7499 41.1216 44.0369" stroke="black" stroke-width="0.208066" stroke-miterlimit="10"/>
<path d="M40.5174 42.0242C40.5794 42.3433 40.5412 42.6724 40.4074 42.9717C40.2736 43.271 40.05 43.5277 39.7635 43.7109C39.4917 43.8616 39.1701 43.9138 38.8599 43.8576C38.5496 43.8014 38.2723 43.6407 38.0806 43.406" stroke="black" stroke-width="0.208066" stroke-miterlimit="10"/>
<path d="M39.5273 43.8557C39.9463 43.8761 40.271 44.3492 40.1667 44.7877" stroke="black" stroke-width="0.208066" stroke-miterlimit="10"/>
<path d="M39.129 3.66095C38.8677 3.76353 38.6393 3.92768 38.4661 4.13735C38.293 4.34703 38.181 4.59506 38.1411 4.85724C38.0946 5.13785 38.1157 5.42463 38.2031 5.69661C38.2904 5.9686 38.4418 6.21891 38.646 6.42923" stroke="black" stroke-width="0.208066" stroke-miterlimit="10"/>
<path d="M37.2067 6.74693C37.5734 6.64006 38.0159 6.95123 38.0765 7.35827" stroke="black" stroke-width="0.208066" stroke-miterlimit="10"/>
</svg>
