<svg width="62" height="59" viewBox="0 0 62 59" fill="none" xmlns="http://www.w3.org/2000/svg">
<path d="M35.6181 27.0452C35.6181 27.0452 31.174 9.98891 11.5632 10.6144L5.875 10.7578C5.875 10.7578 23.6656 13.4491 35.6181 27.0452Z" fill="#336321" stroke="black" stroke-width="0.218724" stroke-miterlimit="10"/>
<path d="M6.20494 45.9153C6.20494 45.9153 1.3593 29.779 26.3399 20.5831C26.3399 20.5831 29.3621 28.8794 20.9424 33.7629C12.5226 38.6465 6.20494 45.9153 6.20494 45.9153Z" fill="#336321" stroke="black" stroke-width="0.218724" stroke-miterlimit="10"/>
<path d="M7.07902 43.1691C7.07902 43.1691 10.0094 33.3443 16.7923 27.9589C23.5752 22.5735 26.3313 19.0512 26.3313 19.0512" stroke="black" stroke-width="0.218724" stroke-miterlimit="10"/>
<path d="M50.1445 43.8351C50.1445 43.8351 33.769 17.4476 16.2109 11.2578C16.2109 11.2578 48.7818 44.2344 51.918 50.4363C55.0542 56.6383 50.1445 43.8351 50.1445 43.8351Z" fill="#336321" stroke="black" stroke-width="0.218724" stroke-miterlimit="10"/>
<path d="M61.061 45.2716C61.061 45.2716 53.3523 29.4635 34.0062 33.543L28.3906 34.6953C28.3906 34.6953 46.5715 34.1646 61.061 45.2716Z" fill="#336321" stroke="black" stroke-width="0.218724" stroke-miterlimit="10"/>
<path d="M22.7846 2.12041C21.0857 4.23446 20.0926 6.77015 19.9442 9.37262C19.7105 13.7028 19.7341 21.3133 19.9854 22.3238C20.2368 23.3344 21.0877 35.4765 21.1247 36.219C21.1618 36.9615 21.6128 43.479 23.313 45.7834C25.0131 48.0877 33.6514 51.3238 34.5874 38.1678C34.5874 38.1678 33.1581 28.1306 32.5512 20.3529C31.9443 12.5753 29.637 4.77508 27.2063 2.89178C24.7756 1.00847 23.7902 0.701981 22.7846 2.12041Z" fill="#F5CB25" stroke="black" stroke-width="0.218724" stroke-miterlimit="10"/>
<path d="M21.241 4.6336C21.5266 4.80097 21.7486 5.04932 21.8782 5.3465C22.0078 5.64369 22.0391 5.97603 21.968 6.30051C21.8009 6.95839 21.0737 7.41985 20.5134 7.16877" stroke="black" stroke-width="0.218724" stroke-miterlimit="10"/>
<path d="M21.291 7.22063C21.438 7.21712 21.5327 7.38073 21.574 7.53481C21.6651 7.91562 21.6335 8.31983 21.4835 8.69551C21.3842 9.01505 21.1686 9.29517 20.8771 9.4837C20.7337 9.56612 20.5666 9.59751 20.4068 9.57205C20.2471 9.5466 20.1054 9.46602 20.008 9.34524" stroke="black" stroke-width="0.218724" stroke-miterlimit="10"/>
<path d="M20.9014 9.67646C20.9187 9.65983 20.9391 9.64658 20.9615 9.63755C20.9839 9.62852 21.0078 9.62389 21.0317 9.62395C21.0555 9.624 21.0788 9.62875 21.1002 9.63788C21.1216 9.64702 21.1405 9.66035 21.1559 9.67707C21.2222 9.75098 21.2651 9.84197 21.2799 9.94015C21.3949 10.4177 21.3236 10.9281 21.0792 11.3775C20.9676 11.5832 20.8123 11.7658 20.6238 11.9129C20.4353 12.0601 20.2181 12.1683 19.9869 12.2303" stroke="black" stroke-width="0.218724" stroke-miterlimit="10"/>
<path d="M20.5592 11.8243C20.677 11.8126 20.7605 11.9359 20.8156 12.0487C21.0857 12.5572 21.1574 13.1494 21.0182 13.7235C20.8537 14.2833 20.3534 14.7529 19.8251 14.7151" stroke="black" stroke-width="0.218724" stroke-miterlimit="10"/>
<path d="M20.5196 14.5318C20.8577 14.6227 21.0286 15.0226 21.0916 15.4094C21.1777 15.8935 21.1125 16.3985 20.9042 16.8624C20.8119 17.0768 20.6662 17.2685 20.4804 17.4199C20.2945 17.5713 20.0744 17.6777 19.8401 17.7293" stroke="black" stroke-width="0.218724" stroke-miterlimit="10"/>
<path d="M20.4742 17.361C20.7694 17.4977 20.9083 17.867 20.9817 18.2179C21.0881 18.7341 21.1027 19.3045 20.8837 19.7859C20.6646 20.2673 20.1406 20.6202 19.6779 20.4766" stroke="black" stroke-width="0.218724" stroke-miterlimit="10"/>
<path d="M20.5859 19.9556C20.8349 20.1817 21.0222 20.4633 21.1327 20.7778C21.2433 21.0924 21.2741 21.4312 21.2227 21.7673C21.1793 22.0913 21.0504 22.4035 20.8483 22.6744C20.6463 22.9452 20.3778 23.1655 20.0684 23.3143" stroke="black" stroke-width="0.218724" stroke-miterlimit="10"/>
<path d="M20.6939 22.6392C20.8935 22.7667 21.0615 22.9335 21.1875 23.1293C21.3134 23.3251 21.3946 23.5458 21.426 23.7776C21.4981 24.2575 21.4568 24.7525 21.3051 25.2266C21.2455 25.4654 21.1392 25.6935 20.992 25.8985C20.9251 25.994 20.8352 26.0734 20.7306 26.1294C20.6259 26.1855 20.5096 26.2164 20.3923 26.2195" stroke="black" stroke-width="0.218724" stroke-miterlimit="10"/>
<path d="M21.1532 25.5304C21.9013 26.2337 22.1872 27.471 21.8439 28.5188C21.7681 28.7863 21.6244 29.035 21.4259 29.2419C21.3345 29.3382 21.2191 29.4107 21.0916 29.4518C20.9641 29.4929 20.8293 29.5012 20.701 29.4758" stroke="black" stroke-width="0.218724" stroke-miterlimit="10"/>
<path d="M21.5442 29.1653C22.0106 29.267 22.2729 29.8028 22.398 30.3047C22.5695 30.9076 22.5638 31.5525 22.3816 32.1704C22.1761 32.7678 21.6945 33.2853 21.1213 33.3763" stroke="black" stroke-width="0.218724" stroke-miterlimit="10"/>
<path d="M21.9425 32.8773C22.1262 33.1209 22.2543 33.4003 22.3189 33.6987C22.3835 33.997 22.3834 34.308 22.3185 34.6128C22.1713 35.2175 21.6754 35.738 21.1121 35.7879" stroke="black" stroke-width="0.218724" stroke-miterlimit="10"/>
<path d="M21.9123 35.3888C22.1718 35.4291 22.3273 35.7175 22.4087 35.9897C22.5879 36.5945 22.5866 37.2436 22.405 37.8658C22.3421 38.114 22.2217 38.3482 22.053 38.5506C21.9752 38.6452 21.8742 38.7202 21.7598 38.7684C21.6454 38.8165 21.5216 38.8361 21.4002 38.8254" stroke="black" stroke-width="0.218724" stroke-miterlimit="10"/>
<path d="M22.2458 38.4866C22.2216 38.456 22.1196 38.4346 22.184 38.4262C23.4203 38.9744 23.0109 41.0106 21.883 41.5221" stroke="black" stroke-width="0.218724" stroke-miterlimit="10"/>
<path d="M22.0903 41.4921C22.2262 41.4285 22.3782 41.4102 22.5214 41.4401C22.6645 41.4699 22.7901 41.5462 22.8776 41.6562C23.0732 41.8957 23.187 42.1892 23.2046 42.4996C23.2726 43.1316 23.117 43.7783 22.7625 44.3375" stroke="black" stroke-width="0.218724" stroke-miterlimit="10"/>
<path d="M22.9421 44.0384C22.9468 44.0055 22.961 43.974 22.983 43.9474C23.0051 43.9209 23.0341 43.9004 23.0669 43.8883C23.5676 43.6395 24.1934 44.0004 24.3602 44.5575C24.4303 44.8361 24.4194 45.1316 24.3284 45.4128C24.2375 45.694 24.07 45.9503 23.8436 46.1547" stroke="black" stroke-width="0.218724" stroke-miterlimit="10"/>
<path d="M24.1028 45.6836C24.1857 45.3998 24.357 45.1429 24.5933 44.9482C24.7044 44.8597 24.8364 44.7995 24.976 44.7738C25.1157 44.748 25.258 44.7577 25.3887 44.8017C25.8144 44.9664 26.0047 45.4906 26.1011 45.9731C26.1837 46.3891 26.2217 46.868 25.9829 47.2162" stroke="black" stroke-width="0.218724" stroke-miterlimit="10"/>
<path d="M23.5541 43.5374C23.6405 43.2502 23.7899 42.981 23.9918 42.7483C24.0848 42.6399 24.208 42.5588 24.3457 42.5153C24.4834 42.4719 24.6293 42.4682 24.7649 42.5046C24.9122 42.569 25.0399 42.6665 25.1376 42.7892C25.552 43.2534 25.8306 43.9899 25.5274 44.5749" stroke="black" stroke-width="0.218724" stroke-miterlimit="10"/>
<path d="M22.8566 40.9648C22.8872 40.8475 22.9422 40.7361 23.0185 40.6376C23.0947 40.5391 23.1904 40.4557 23.2997 40.3923C23.409 40.329 23.5296 40.2872 23.6539 40.2694C23.7783 40.2517 23.9037 40.2584 24.0226 40.2892C24.4863 40.4141 24.828 40.8486 25.0215 41.3256C25.1892 41.6807 25.2176 42.0878 25.1018 42.4752" stroke="black" stroke-width="0.218724" stroke-miterlimit="10"/>
<path d="M22.6059 37.7583C22.7615 37.5242 22.9278 37.2795 23.1702 37.1671C23.3161 37.1095 23.4741 37.0927 23.6252 37.1187C23.7763 37.1448 23.914 37.2126 24.0217 37.3139C24.2566 37.5309 24.43 37.8021 24.5271 38.1042C24.7543 38.7182 24.8325 39.3804 24.7561 40.0423C24.7413 40.1644 24.701 40.3113 24.5924 40.3424" stroke="black" stroke-width="0.218724" stroke-miterlimit="10"/>
<path d="M22.2288 34.9655C22.3229 34.8318 22.4461 34.7184 22.5892 34.6336C22.7323 34.5489 22.8917 34.4949 23.0558 34.4758C23.2199 34.4566 23.3845 34.4727 23.5375 34.5228C23.6904 34.573 23.8279 34.656 23.9398 34.7656C24.222 35.0491 24.3518 35.4739 24.4305 35.8899C24.4906 36.2123 24.5072 36.6045 24.2823 36.8202" stroke="black" stroke-width="0.218724" stroke-miterlimit="10"/>
<path d="M22.2258 32.3928C22.3366 32.2611 22.4902 32.1684 22.6597 32.1309C22.8293 32.0934 23.0041 32.1134 23.1538 32.1874C23.4663 32.3578 23.7038 32.6277 23.8276 32.9531C24.1296 33.6411 24.1488 34.4253 23.8815 35.1547" stroke="black" stroke-width="0.218724" stroke-miterlimit="10"/>
<path d="M22.1442 29.5421C22.2644 29.4049 22.4269 29.3078 22.606 29.2661C22.7851 29.2243 22.9705 29.2404 23.1328 29.3118C23.4714 29.478 23.7315 29.7566 23.8673 30.0983C24.0244 30.4499 24.1015 30.8328 24.0937 31.2227C24.0859 31.6127 23.9933 32.001 23.8219 32.3631" stroke="black" stroke-width="0.218724" stroke-miterlimit="10"/>
<path d="M24.3454 36.5889C24.3085 36.8565 24.203 37.1146 24.0385 37.3399" stroke="black" stroke-width="0.218724" stroke-miterlimit="10"/>
<path d="M21.5314 25.7458C21.6015 25.6595 21.6938 25.5919 21.7983 25.55C21.9029 25.5082 22.0159 25.4936 22.1253 25.5079C22.2944 25.5426 22.4482 25.621 22.5705 25.7346C23.3307 26.3683 23.5755 27.5683 23.3374 28.6067" stroke="black" stroke-width="0.218724" stroke-miterlimit="10"/>
<path d="M23.2872 28.5043L23.1802 29.2853" stroke="black" stroke-width="0.218724" stroke-miterlimit="10"/>
<path d="M21.0369 22.9395C21.0854 22.8374 21.1668 22.7517 21.2686 22.6955C21.3703 22.6393 21.4868 22.6157 21.6002 22.6284C21.8262 22.6667 22.0294 22.7747 22.1795 22.9363C22.5233 23.2882 22.7612 23.7243 22.8703 24.2021C22.9793 24.6799 22.9556 25.1832 22.8015 25.6629" stroke="black" stroke-width="0.218724" stroke-miterlimit="10"/>
<path d="M20.8771 19.6396C20.9662 19.5471 21.078 19.4776 21.2013 19.4381C21.3245 19.3987 21.4548 19.3906 21.5789 19.4148C21.8341 19.4716 22.0588 19.6075 22.2189 19.8019C22.5637 20.2331 22.7469 20.7673 22.7409 21.3243C22.7379 21.8831 22.6477 22.4429 22.4733 22.9849" stroke="black" stroke-width="0.218724" stroke-miterlimit="10"/>
<path d="M20.79 16.6692C20.8498 16.5705 20.9457 16.4955 21.0578 16.4596C21.17 16.4238 21.2901 16.4297 21.3933 16.4762C21.604 16.5836 21.7762 16.7465 21.8909 16.9468C22.1509 17.2962 22.3067 17.7097 22.3427 18.146C22.3621 18.6977 22.0993 19.2272 22.0617 19.7783" stroke="black" stroke-width="0.218724" stroke-miterlimit="10"/>
<path d="M21.0603 14.5648C21.0884 14.4743 21.1369 14.39 21.2023 14.3179C21.2678 14.2458 21.3485 14.1878 21.4385 14.1481C21.5286 14.1085 21.6258 14.0882 21.7229 14.0887C21.82 14.0893 21.9146 14.1106 21.9997 14.1513C22.3405 14.314 22.5403 14.7131 22.6119 15.1141C22.7626 15.9566 22.4587 16.8141 22.1622 17.6206" stroke="black" stroke-width="0.218724" stroke-miterlimit="10"/>
<path d="M20.9605 11.7154C21.1875 11.2759 21.7967 11.2281 22.1528 11.5189C22.5088 11.8096 22.6543 12.3256 22.6954 12.8196C22.7552 13.5142 22.6475 14.221 22.3805 14.8862" stroke="black" stroke-width="0.218724" stroke-miterlimit="10"/>
<path d="M21.6887 8.01113C22.026 7.81381 22.4297 8.08939 22.6284 8.43232C22.9285 8.94858 22.9674 9.60799 22.8895 10.2311C22.8116 10.8543 22.6353 11.447 22.531 12.068" stroke="black" stroke-width="0.218724" stroke-miterlimit="10"/>
<path d="M22.0404 5.93834C22.0942 5.89014 22.1631 5.86074 22.2349 5.85529C22.3067 5.84984 22.3769 5.86868 22.4332 5.90852C22.5534 5.99408 22.6459 6.11006 22.701 6.24447C22.8599 6.58134 22.9364 6.95184 22.9251 7.32909C22.9138 7.70634 22.815 8.08086 22.6357 8.42546" stroke="black" stroke-width="0.218724" stroke-miterlimit="10"/>
<path d="M22.0231 3.05002C22.2446 2.83963 22.612 2.95514 22.776 3.19937C22.9236 3.47504 22.9793 3.7911 22.9358 4.10689C22.898 4.69591 22.7519 5.27936 22.5042 5.83026" stroke="black" stroke-width="0.218724" stroke-miterlimit="10"/>
<path d="M22.7524 2.29332C22.7737 2.5663 22.8279 2.83438 22.9138 3.09229C22.9553 3.2638 23.0558 3.4143 23.1996 3.52027C23.4653 3.66906 23.7895 3.45232 24.0034 3.20902C24.4039 2.7517 24.6835 2.06273 24.4506 1.50207" stroke="black" stroke-width="0.218724" stroke-miterlimit="10"/>
<path d="M23.3976 3.51391C23.6733 3.23595 24.1377 3.33315 24.3844 3.62426C24.6311 3.91536 24.7048 4.33733 24.7287 4.74076C24.7618 5.32033 24.7085 5.90578 24.5704 6.47964" stroke="black" stroke-width="0.218724" stroke-miterlimit="10"/>
<path d="M23.2115 7.04205C23.2706 6.92306 23.3585 6.81828 23.4676 6.73689C23.5767 6.65549 23.7036 6.59999 23.8372 6.57528C23.9708 6.55056 24.107 6.55738 24.2338 6.59513C24.3606 6.63288 24.4741 6.70041 24.5643 6.79178C24.8557 7.11117 24.8855 7.62687 24.8278 8.08524C24.7859 8.41838 24.7073 8.74817 24.5932 9.06902" stroke="black" stroke-width="0.218724" stroke-miterlimit="10"/>
<path d="M23.1084 9.55823C23.3897 9.32517 23.7124 9.07625 24.0601 9.08776C24.4969 9.09746 24.8391 9.52074 24.9397 9.98304C25.0091 10.4537 24.9707 10.9385 24.8272 11.4043" stroke="black" stroke-width="0.218724" stroke-miterlimit="10"/>
<path d="M22.8302 12.0533C22.9025 11.8364 23.0449 11.644 23.2362 11.5048C23.4275 11.3655 23.6575 11.287 23.8918 11.2807C24.1265 11.2986 24.3485 11.3769 24.5346 11.5075C24.7206 11.638 24.864 11.816 24.9495 12.0227C25.1413 12.4689 25.1416 12.9779 24.9503 13.4436" stroke="black" stroke-width="0.218724" stroke-miterlimit="10"/>
<path d="M22.7176 14.4241C22.6329 14.2942 22.7677 14.1155 22.8925 14.0275C23.4269 13.655 24.1984 13.6404 24.605 14.1338C24.9725 14.5817 24.9501 15.281 24.8064 15.8766" stroke="black" stroke-width="0.218724" stroke-miterlimit="10"/>
<path d="M25.1042 13.1002L24.702 14.1884" stroke="black" stroke-width="0.218724" stroke-miterlimit="10"/>
<path d="M22.3787 17.1864C22.6162 16.8508 22.9136 16.5565 23.2562 16.3179C23.5523 16.1162 23.8997 15.9653 24.2102 16.0929C24.5673 16.2407 24.7204 16.6983 24.7658 17.1099C24.824 17.6219 24.7849 18.1447 24.6502 18.6532" stroke="black" stroke-width="0.218724" stroke-miterlimit="10"/>
<path d="M24.8638 15.4708C24.825 15.8221 24.7304 16.1685 24.5834 16.4979" stroke="black" stroke-width="0.218724" stroke-miterlimit="10"/>
<path d="M22.1521 19.1822C22.5173 18.8036 22.9658 18.4479 23.4574 18.4702C23.9489 18.4924 24.3794 18.9326 24.5521 19.4486C24.6995 19.9791 24.7197 20.5406 24.6111 21.0924" stroke="black" stroke-width="0.218724" stroke-miterlimit="10"/>
<path d="M22.7627 21.8436C22.8446 21.6668 22.9748 21.5126 23.139 21.3981C23.3032 21.2836 23.495 21.2133 23.6931 21.195C23.8926 21.1923 24.0862 21.242 24.253 21.3385C24.4198 21.435 24.5535 21.5748 24.6396 21.7427C24.9023 22.2254 24.8129 22.8448 24.7146 23.4081" stroke="black" stroke-width="0.218724" stroke-miterlimit="10"/>
<path d="M23.0363 24.759C22.9504 24.5766 23.1621 24.3909 23.3373 24.3102C23.6803 24.1514 24.0322 24.0124 24.3908 23.8941C24.4987 23.8466 24.6184 23.8354 24.7298 23.8622C24.8299 23.9112 24.9099 23.9897 24.9588 24.0867C25.3551 24.7366 25.3547 25.5863 25.3398 26.3807" stroke="black" stroke-width="0.218724" stroke-miterlimit="10"/>
<path d="M23.337 27.3092C23.4432 26.9954 23.6471 26.7161 23.9205 26.5098C24.0474 26.4072 24.2035 26.3452 24.3653 26.3331C24.7846 26.3182 25.0516 26.7934 25.2281 27.2052C25.3932 27.5969 25.5431 28.1017 25.2813 28.4425" stroke="black" stroke-width="0.218724" stroke-miterlimit="10"/>
<path d="M23.357 29.2068C23.4012 28.9888 23.5126 28.7853 23.6766 28.6229C23.8405 28.4605 24.0494 28.3469 24.2757 28.297C24.4993 28.2685 24.7235 28.2991 24.9239 28.3854C25.1243 28.4717 25.2931 28.6104 25.4119 28.7863C25.6777 29.1727 25.7751 29.6492 25.6843 30.1194" stroke="black" stroke-width="0.218724" stroke-miterlimit="10"/>
<path d="M24.1558 31.4298C24.1853 30.9281 24.6245 30.5694 25.0391 30.3412C25.1236 30.2795 25.2202 30.2356 25.3221 30.2125C25.4241 30.1893 25.5289 30.1876 25.6293 30.2073C25.8235 30.3035 25.9664 30.4711 26.0271 30.6738C26.2967 31.3118 26.3704 32.0186 26.2399 32.7146" stroke="black" stroke-width="0.218724" stroke-miterlimit="10"/>
<path d="M24.0791 33.4879C24.169 33.135 24.4927 32.913 24.8055 32.7802C25.0651 32.6504 25.3559 32.5982 25.6386 32.6306C25.8083 32.6708 25.9653 32.7452 26.0995 32.8491C26.2338 32.953 26.3421 33.084 26.4175 33.2335C26.5836 33.5518 26.6679 33.9068 26.6637 34.2702" stroke="black" stroke-width="0.218724" stroke-miterlimit="10"/>
<path d="M24.4237 35.8816C24.4994 35.5609 24.7661 35.3384 25.0157 35.1458C25.4385 34.8187 25.9681 34.4777 26.4226 34.7075C26.622 34.8259 26.7742 35.0035 26.8574 35.215C27.0404 35.6283 27.0706 36.0956 26.9434 36.5428" stroke="black" stroke-width="0.218724" stroke-miterlimit="10"/>
<path d="M24.1941 37.5541C24.2 37.3467 24.3869 37.2038 24.5517 37.097C24.9707 36.8282 25.4018 36.552 25.8767 36.4725C26.0691 36.4266 26.2679 36.4267 26.4552 36.4727C26.6425 36.5187 26.8125 36.6093 26.9498 36.7361C27.0872 36.863 27.1877 37.0223 27.2422 37.1997C27.2967 37.377 27.3036 37.5669 27.2622 37.7523" stroke="black" stroke-width="0.218724" stroke-miterlimit="10"/>
<path d="M24.7371 39.2678C25.1433 38.7242 25.6718 38.2724 26.2804 37.9486C26.6094 37.7753 27.0108 37.6518 27.3145 37.8521C27.7089 38.112 27.7028 38.7342 27.6486 39.2457" stroke="black" stroke-width="0.218724" stroke-miterlimit="10"/>
<path d="M24.804 41.2511C24.8827 41.0985 25.0035 40.9679 25.1525 40.8741C25.3015 40.7803 25.4729 40.727 25.6471 40.7204C26.542 40.6439 27.3901 41.4681 27.4207 42.442" stroke="black" stroke-width="0.218724" stroke-miterlimit="10"/>
<path d="M27.5603 38.9055C27.669 39.8066 27.5636 40.7302 27.2519 41.6084" stroke="black" stroke-width="0.218724" stroke-miterlimit="10"/>
<path d="M25.097 42.9323C25.2521 42.4938 25.7525 42.3438 26.1764 42.3468C26.5516 42.3319 26.9119 42.4513 27.1869 42.6817C27.3296 42.8137 27.4269 42.9848 27.4667 43.1739C27.5066 43.3631 27.4873 43.5622 27.4112 43.747" stroke="black" stroke-width="0.218724" stroke-miterlimit="10"/>
<path d="M25.5506 44.743C25.5156 44.684 25.5013 44.6149 25.5096 44.5456C25.5179 44.4762 25.5484 44.4099 25.597 44.3558C25.6897 44.2615 25.8049 44.1902 25.9316 44.1488C26.1601 44.0418 26.4028 43.9687 26.6509 43.9321C26.779 43.9158 26.9078 43.9272 27.0275 43.9657C27.1473 44.0042 27.2549 44.0687 27.3424 44.1543C27.4897 44.3338 27.5844 44.5489 27.6173 44.7792C27.7027 45.1823 27.735 45.5966 27.7136 46.0126" stroke="black" stroke-width="0.218724" stroke-miterlimit="10"/>
<path d="M26.2406 46.5622C26.3496 46.1875 26.6712 45.8532 27.0234 45.8827C27.1441 45.9038 27.2569 45.9509 27.3533 46.0205C27.4498 46.0902 27.5275 46.1806 27.5807 46.285C27.6994 46.5062 27.7855 46.7434 27.8368 46.99L27.9805 47.5398" stroke="black" stroke-width="0.218724" stroke-miterlimit="10"/>
<path d="M24.5376 2.42413C24.4486 2.6831 24.4289 2.95604 24.4802 3.21726C24.5314 3.47849 24.652 3.71942 24.8306 3.91738C24.8998 3.99219 24.9861 4.05066 25.0835 4.08868C25.1762 4.113 25.2752 4.11326 25.3707 4.08941C25.4662 4.06556 25.5548 4.01845 25.6277 3.95278C26.0355 3.62719 26.1185 2.91945 25.8115 2.50877" stroke="black" stroke-width="0.218724" stroke-miterlimit="10"/>
<path d="M25.6514 1.7922C25.7951 2.10721 25.9112 2.43419 25.9988 2.76995" stroke="black" stroke-width="0.218724" stroke-miterlimit="10"/>
<path d="M24.7216 6.32521C24.7817 6.42628 24.8651 6.51219 24.9658 6.57677C25.0666 6.64135 25.1822 6.683 25.3044 6.69874C25.4266 6.71449 25.5523 6.70394 25.6726 6.66784C25.7929 6.63174 25.9047 6.57098 26.0001 6.48994C26.3925 6.16066 26.5466 5.5747 26.4939 5.04784C26.4193 4.53022 26.2404 4.03647 25.9669 3.59359" stroke="black" stroke-width="0.218724" stroke-miterlimit="10"/>
<path d="M26.4905 5.63756C26.6633 5.98936 26.7424 6.38045 26.7212 6.77756C26.7 7.17467 26.579 7.56603 26.3685 7.91832C26.0961 8.3445 25.5879 8.67717 25.1657 8.47427" stroke="black" stroke-width="0.218724" stroke-miterlimit="10"/>
<path d="M26.424 7.54555C26.9798 8.06914 27.0505 9.00768 26.8692 9.80561C26.7676 10.2499 26.5869 10.7005 26.2472 10.9757C25.9075 11.2508 25.3861 11.2774 25.1231 10.9392" stroke="black" stroke-width="0.218724" stroke-miterlimit="10"/>
<path d="M26.5881 10.0376C26.9041 10.2102 27.0672 10.5937 27.1717 10.9647C27.3278 11.4615 27.3663 11.9908 27.2845 12.5154C27.1862 13.0331 26.8937 13.5327 26.4562 13.7663C26.2346 13.8857 25.9788 13.9243 25.7385 13.8745C25.4982 13.8247 25.2905 13.6901 25.1557 13.4968" stroke="black" stroke-width="0.218724" stroke-miterlimit="10"/>
<path d="M27.0374 12.8248C27.321 13.4191 27.4315 14.0829 27.3577 14.7492C27.3323 15.0469 27.2406 15.3392 27.089 15.6065C27.0219 15.7327 26.9258 15.8438 26.8083 15.9309C26.6908 16.0179 26.5552 16.0787 26.4121 16.1082C26.2625 16.1151 26.1145 16.0924 25.9775 16.0417C25.8406 15.9909 25.7174 15.9131 25.6159 15.8131C25.3154 15.5566 25.084 15.2345 24.9393 14.8714" stroke="black" stroke-width="0.218724" stroke-miterlimit="10"/>
<path d="M26.944 15.6616C27.025 15.6508 27.0763 15.7472 27.1033 15.8295C27.2613 16.2652 27.3191 16.7329 27.2729 17.2019C27.2109 17.6677 26.982 18.1282 26.6089 18.3698C26.4607 18.4656 26.2912 18.5243 26.1167 18.5403C25.9423 18.5563 25.7688 18.5289 25.6133 18.4609C25.4492 18.3812 25.3069 18.2676 25.1961 18.1278C25.0853 17.988 25.0086 17.8253 24.9714 17.6508" stroke="black" stroke-width="0.218724" stroke-miterlimit="10"/>
<path d="M26.701 18.1915C26.6805 18.1189 26.8061 18.1529 26.8314 18.2232C27.0431 18.8176 26.903 19.5121 26.6463 20.1044C26.5107 20.4185 26.3268 20.7336 26.042 20.8971C25.9017 20.9717 25.7451 21.0102 25.5883 21.0087C25.4315 21.0071 25.2802 20.9655 25.1499 20.8882C24.871 20.7164 24.6636 20.4586 24.5596 20.1544" stroke="black" stroke-width="0.218724" stroke-miterlimit="10"/>
<path d="M26.666 19.9638C26.7405 20.411 26.7588 20.8678 26.7206 21.3247C26.6734 21.8511 26.5301 22.4101 26.152 22.7491C25.6397 23.2098 24.8749 23.0934 24.3165 22.7427" stroke="black" stroke-width="0.218724" stroke-miterlimit="10"/>
<path d="M26.4929 22.5668L26.5037 22.2785C26.7504 22.7835 26.8631 23.3444 26.8325 23.9139C26.8286 24.3013 26.709 24.6854 26.4878 25.0208C26.258 25.33 25.8748 25.5253 25.5306 25.4299" stroke="black" stroke-width="0.218724" stroke-miterlimit="10"/>
<path d="M26.7156 24.6502C27.1132 25.4455 27.1815 26.3692 26.9072 27.2435C26.8299 27.5243 26.6783 27.7847 26.4673 27.9989C26.3688 28.0978 26.2423 28.1667 26.1051 28.196C25.968 28.2253 25.827 28.2136 25.7014 28.1626" stroke="black" stroke-width="0.218724" stroke-miterlimit="10"/>
<path d="M26.751 27.5543C26.7174 27.5537 26.7214 27.4916 26.7608 27.4839C26.8002 27.4763 26.8197 27.5092 26.8385 27.5368C27.1232 27.9633 27.299 28.4516 27.3526 28.9644C27.4063 29.4773 27.3363 30.0013 27.1481 30.4966C27.003 30.8609 26.7071 31.2415 26.3539 31.1851" stroke="black" stroke-width="0.218724" stroke-miterlimit="10"/>
<path d="M26.9139 30.6496C27.0232 30.5579 27.1652 30.6974 27.2265 30.8274C27.4819 31.383 27.5364 32.0128 27.3817 32.6213C27.2406 33.204 26.8865 33.7291 26.3847 34.0996" stroke="black" stroke-width="0.218724" stroke-miterlimit="10"/>
<path d="M27.1943 32.9309C27.154 32.8951 27.2004 32.8111 27.2528 32.8102C27.3052 32.8093 27.3481 32.8548 27.3819 32.8974C27.8579 33.5214 28.0691 34.3032 27.9755 35.0948C27.9517 35.3837 27.8555 35.6666 27.6952 35.9192C27.6229 36.0358 27.5203 36.1332 27.398 36.2014C27.2757 36.2697 27.1383 36.3062 27 36.3072" stroke="black" stroke-width="0.218724" stroke-miterlimit="10"/>
<path d="M27.5146 35.7036C27.5136 35.6887 27.5161 35.6737 27.522 35.6596C27.5279 35.6455 27.537 35.6327 27.5486 35.6221C27.5601 35.6115 27.5739 35.6035 27.5889 35.5986C27.6039 35.5937 27.6197 35.5921 27.635 35.5938C27.6959 35.6098 27.7477 35.6462 27.7813 35.6966C28.241 36.2001 28.4815 36.8581 28.4568 37.5449C28.4058 38.2376 27.9562 38.9226 27.338 39.0843" stroke="black" stroke-width="0.218724" stroke-miterlimit="10"/>
<path d="M28.301 38.238C28.326 38.1997 28.3654 38.1717 28.4105 38.1601C28.4555 38.1484 28.5026 38.1541 28.5415 38.1758C28.6198 38.2287 28.6806 38.3017 28.7174 38.387C28.9493 38.8393 29.0692 39.3412 29.0682 39.8555C29.0672 40.3698 28.9454 40.8834 28.7116 41.3584C28.612 41.578 28.4551 41.7717 28.2566 41.9199C28.1617 41.9883 28.0487 42.0283 27.9328 42.0346C27.8169 42.0409 27.7037 42.0132 27.6082 41.9551" stroke="black" stroke-width="0.218724" stroke-miterlimit="10"/>
<path d="M28.557 41.7825C29.029 42.4187 28.9758 43.4595 28.4416 44.073C28.2202 44.3253 27.8847 44.5181 27.5973 44.3814" stroke="black" stroke-width="0.218724" stroke-miterlimit="10"/>
<path d="M28.5003 44.1035C28.7513 44.051 28.916 44.3589 28.9972 44.6183C29.1534 45.1239 29.2832 45.6692 29.1547 46.1974C29.0262 46.7256 28.566 47.2056 28.081 47.1145" stroke="black" stroke-width="0.218724" stroke-miterlimit="10"/>
<path d="M29.1373 46.4787C29.2378 46.6308 29.2803 46.8135 29.2579 46.9976C29.2355 47.1817 29.1494 47.3565 29.0136 47.494" stroke="black" stroke-width="0.218724" stroke-miterlimit="10"/>
<path d="M27.6774 3.15699C27.883 3.49655 28.0182 3.87342 28.0759 4.26806C28.1108 4.66996 27.9538 5.12942 27.6152 5.30728C27.2301 5.50701 26.7948 5.28469 26.4319 5.06661" stroke="black" stroke-width="0.218724" stroke-miterlimit="10"/>
<path d="M27.8737 5.07446C27.9946 5.03212 28.1084 5.15749 28.1655 5.27857C28.4273 5.82354 28.4717 6.45057 28.2907 7.0464C28.1934 7.42702 27.945 7.76336 27.5994 7.98237C27.4298 8.07518 27.2337 8.10704 27.0482 8.07198C26.8627 8.03691 26.7006 7.93733 26.5925 7.79199" stroke="black" stroke-width="0.218724" stroke-miterlimit="10"/>
<path d="M28.2749 7.13585C28.5673 7.67416 28.7503 8.2649 28.8145 8.87828C28.8732 9.28572 28.8315 9.70564 28.6925 10.105C28.5393 10.4896 28.2218 10.8201 27.8413 10.8715C27.5076 10.9229 27.1847 10.7608 26.9039 10.5716" stroke="black" stroke-width="0.218724" stroke-miterlimit="10"/>
<path d="M28.6156 10.3454C28.5836 10.3605 28.586 10.2827 28.6204 10.281C28.6549 10.2794 28.6755 10.319 28.6894 10.3527C28.8949 10.8669 28.9958 11.4186 28.9866 11.9792C28.9765 12.4059 28.8854 12.8599 28.6109 13.1738C28.3363 13.4877 27.8363 13.5845 27.5632 13.2912" stroke="black" stroke-width="0.218724" stroke-miterlimit="10"/>
<path d="M28.6994 12.803C28.9558 13.2267 29.0929 13.7113 29.0981 14.2118C29.1032 14.7123 28.9762 15.2126 28.7288 15.6664C28.6116 15.892 28.4301 16.0836 28.2064 16.2177C28.0985 16.2785 27.9753 16.3068 27.8538 16.2986C27.7323 16.2904 27.6184 16.2463 27.5278 16.1722" stroke="black" stroke-width="0.218724" stroke-miterlimit="10"/>
<path d="M28.4214 15.8013C28.6695 16.2803 28.8063 16.8095 28.8227 17.3543C28.8392 17.899 28.7349 18.4471 28.5168 18.9624C28.4102 19.2457 28.2222 19.4979 27.9752 19.689C27.8574 19.7768 27.7142 19.8259 27.5686 19.8283C27.423 19.8307 27.2833 19.7863 27.1718 19.7023" stroke="black" stroke-width="0.218724" stroke-miterlimit="10"/>
<path d="M28.5359 18.6203C28.6679 18.5892 28.7596 18.7506 28.8081 18.8867C29.0175 19.4313 29.1387 20.0072 29.1675 20.5953C29.1982 21.1783 29.0141 21.7639 28.6472 22.2508C28.5605 22.367 28.4504 22.466 28.324 22.5413C28.1975 22.6166 28.0575 22.6667 27.9127 22.6884C27.4501 22.7237 27.066 22.3567 26.7413 22.0164" stroke="black" stroke-width="0.218724" stroke-miterlimit="10"/>
<path d="M28.4726 22.4467C28.5326 22.3417 28.6692 22.449 28.72 22.5566C28.9225 22.998 28.9929 23.4902 28.9237 23.9806C28.8807 24.4336 28.6564 24.8622 28.298 25.1761C28.1275 25.3142 27.9138 25.3913 27.6962 25.3932C27.4786 25.395 27.2717 25.3216 27.1137 25.1862" stroke="black" stroke-width="0.218724" stroke-miterlimit="10"/>
<path d="M28.4049 25.1612C28.7489 26.1594 28.8026 27.2417 28.5602 28.2959C28.4804 28.6368 28.3486 29.0004 28.0692 29.1795C27.9986 29.2236 27.9185 29.2504 27.8362 29.2574C27.7539 29.2644 27.6722 29.2515 27.5987 29.2198C27.5252 29.1881 27.4622 29.1386 27.4157 29.076C27.3692 29.0134 27.3406 28.9396 27.3327 28.8617" stroke="black" stroke-width="0.218724" stroke-miterlimit="10"/>
<path d="M29.8493 7.25672C29.9479 7.58833 29.9975 7.93377 29.9968 8.28332C29.998 8.62698 29.8566 8.96424 29.6038 9.22124C29.484 9.33473 29.3255 9.40176 29.1613 9.40833C28.9971 9.41491 28.84 9.36051 28.7227 9.25651" stroke="black" stroke-width="0.218724" stroke-miterlimit="10"/>
<path d="M30.117 8.76559C30.3065 9.23359 30.4163 9.73115 30.4423 10.24C30.4395 10.7528 30.2324 11.3053 29.8188 11.5605C29.713 11.6212 29.5953 11.6585 29.4748 11.6696C29.3544 11.6806 29.2343 11.6652 29.1238 11.6244C29.0134 11.5837 28.9155 11.5187 28.8378 11.4345C28.76 11.3502 28.7044 11.249 28.6753 11.1386" stroke="black" stroke-width="0.218724" stroke-miterlimit="10"/>
<path d="M29.023 12.4004C29.1268 13.0648 29.4171 13.6808 29.8635 14.1837C30.0122 14.3456 30.1964 14.4999 30.4094 14.4872C30.5542 14.4719 30.6912 14.4074 30.7951 14.3054C30.9758 14.1301 31.1112 13.9172 31.1894 13.6854C31.2677 13.4537 31.2865 13.21 31.2441 12.9758" stroke="black" stroke-width="0.218724" stroke-miterlimit="10"/>
<path d="M31.5316 13.8808C31.6166 14.3448 31.6206 14.823 31.5437 15.2964C31.4994 15.6553 31.3682 16.0038 31.1606 16.3136C31.067 16.4574 30.9372 16.5774 30.784 16.6618C30.6307 16.7462 30.4593 16.7921 30.2864 16.7951C29.7256 16.7671 29.3597 16.1485 29.2119 15.5568" stroke="black" stroke-width="0.218724" stroke-miterlimit="10"/>
<path d="M29.0936 15.0916L29.0744 14.918C29.1793 15.1989 29.2585 15.489 29.3111 15.7854" stroke="black" stroke-width="0.218724" stroke-miterlimit="10"/>
<path d="M30.6484 16.8343C30.5767 17.2598 30.6333 17.6897 30.8116 18.0727C30.9134 18.3696 31.1141 18.6221 31.3839 18.7932C31.5146 18.867 31.6731 18.8873 31.8253 18.8497C31.9776 18.8121 32.1116 18.7196 32.1985 18.5919" stroke="black" stroke-width="0.218724" stroke-miterlimit="10"/>
<path d="M31.1108 18.7464C31.0269 19.2737 30.7851 19.8024 30.3739 20.0875C30.1686 20.2353 29.9151 20.3029 29.668 20.2759C29.4208 20.2489 29.1997 20.1294 29.0522 19.9432" stroke="black" stroke-width="0.218724" stroke-miterlimit="10"/>
<path d="M30.9178 19.2409C30.8593 19.8134 30.8852 20.3867 30.9948 20.9438C31.1325 21.489 31.4688 21.9992 31.9616 22.1651C32.0773 22.2111 32.2087 22.2141 32.3313 22.1736C32.3958 22.148 32.4514 22.1043 32.4906 22.0485C32.5298 21.9928 32.5506 21.9277 32.5502 21.8621" stroke="black" stroke-width="0.218724" stroke-miterlimit="10"/>
<path d="M31.0986 21.5555C31.1313 22.0587 30.9744 22.566 30.6562 22.9861C30.515 23.1928 30.3067 23.3506 30.0658 23.4333C29.8249 23.5161 29.566 23.5188 29.3321 23.4409C29.0982 23.3631 28.9035 23.2095 28.7802 23.0056C28.6569 22.8017 28.6125 22.5598 28.6545 22.3201" stroke="black" stroke-width="0.218724" stroke-miterlimit="10"/>
<path d="M31.0698 22.5296C30.8546 23.0593 30.8365 23.6348 31.0188 24.1558C31.195 24.6566 31.5 25.1014 31.9068 25.4509C32.0513 25.5942 32.2345 25.6968 32.4382 25.7485C32.54 25.7705 32.6482 25.7602 32.7468 25.719C32.8454 25.6778 32.9291 25.6079 32.9856 25.5197" stroke="black" stroke-width="0.218724" stroke-miterlimit="10"/>
<path d="M31.2513 24.7421C31.2335 25.4264 30.9577 26.1483 30.4184 26.5102C30.2835 26.5996 30.1317 26.6609 29.9731 26.6901C29.8146 26.7193 29.6531 26.7155 29.4998 26.6792C29.3465 26.6428 29.2049 26.5746 29.0849 26.4794C28.9649 26.3841 28.8691 26.2641 28.8043 26.1273" stroke="black" stroke-width="0.218724" stroke-miterlimit="10"/>
<path d="M31.7677 25.5778C31.787 25.9999 31.7156 26.4259 31.5582 26.8296C31.4008 27.2333 31.1605 27.6063 30.8521 27.9257C30.5545 28.2429 30.1513 28.4505 29.7189 28.5091C29.4996 28.5285 29.2822 28.4903 29.09 28.3986C28.8979 28.3069 28.7384 28.1652 28.6288 27.9889" stroke="black" stroke-width="0.218724" stroke-miterlimit="10"/>
<path d="M31.7488 26.4633C31.6329 27.0181 31.6433 27.5839 31.7793 28.1218C31.9153 28.6596 32.1735 29.1564 32.5361 29.5779C32.6337 29.7009 32.7625 29.7976 32.9113 29.8596C32.9839 29.8874 33.0649 29.8925 33.1431 29.874C33.2213 29.8554 33.2928 29.8143 33.3477 29.7562" stroke="black" stroke-width="0.218724" stroke-miterlimit="10"/>
<path d="M31.8839 28.7893C31.6124 29.3949 31.5717 30.0621 31.769 30.6703C31.9595 31.2631 32.3104 31.7902 32.7872 32.2C32.9818 32.3871 33.2189 32.5291 33.482 32.616C33.61 32.6574 33.7484 32.667 33.8847 32.6439C34.021 32.6208 34.1509 32.5658 34.2626 32.4838" stroke="black" stroke-width="0.218724" stroke-miterlimit="10"/>
<path d="M32.5661 32.2372C32.4464 32.5822 32.3769 32.939 32.3597 33.2972C32.3914 33.8219 32.5571 34.3246 32.8424 34.7614C32.9649 35.0021 33.1326 35.2176 33.3378 35.3975C33.4317 35.4826 33.5484 35.5418 33.6765 35.5692C33.8046 35.5965 33.9397 35.5912 34.0685 35.5536" stroke="black" stroke-width="0.218724" stroke-miterlimit="10"/>
<path d="M33.06 35.3442C32.8288 35.8477 32.7399 36.3943 32.8027 36.927C32.8298 37.2553 32.9427 37.5676 33.1311 37.8354C33.2161 37.9597 33.3324 38.0609 33.47 38.1303C33.6076 38.1997 33.7624 38.2353 33.9213 38.234C34.0702 38.2131 34.2143 38.1621 34.344 38.0846C34.4738 38.0071 34.5861 37.9047 34.6736 37.7844" stroke="black" stroke-width="0.218724" stroke-miterlimit="10"/>
<path d="M31.6467 27.8221C31.6561 28.4039 31.5164 28.9865 31.2399 29.5192C30.9487 30.0218 30.4598 30.4203 29.9229 30.4596C29.6366 30.4711 29.36 30.3876 29.1401 30.2234C28.9201 30.0591 28.7702 29.824 28.7157 29.5579" stroke="black" stroke-width="0.218724" stroke-miterlimit="10"/>
<path d="M28.7055 28.2754C28.8935 28.9892 28.8353 29.7539 28.5393 30.4582C28.4511 30.6943 28.3004 30.9072 28.1025 31.0751C28.0092 31.1528 27.8944 31.2018 27.7741 31.2153C27.6538 31.2287 27.5341 31.2059 27.4318 31.1501" stroke="black" stroke-width="0.218724" stroke-miterlimit="10"/>
<path d="M30.099 30.6158C30.0204 31.3288 29.7398 32.0529 29.2144 32.4942C28.689 32.9355 27.9025 33.0303 27.3994 32.5896" stroke="black" stroke-width="0.218724" stroke-miterlimit="10"/>
<path d="M29.6908 31.4189C29.7057 31.6863 29.7986 31.9405 29.9592 32.1527C30.1197 32.365 30.3414 32.5269 30.5993 32.6203C30.8506 32.6852 31.1216 32.6683 31.3708 32.5723C31.6201 32.4762 31.8339 32.3063 31.9797 32.0884C32.1128 31.8978 32.1989 31.6197 32.0788 31.4315" stroke="black" stroke-width="0.218724" stroke-miterlimit="10"/>
<path d="M30.3515 32.5338C30.4878 33.2131 30.2086 33.9859 29.6762 34.3958C29.4141 34.5955 29.0944 34.7091 28.7678 34.7188C28.4412 34.7285 28.1262 34.6337 27.8728 34.4493C27.7508 34.3606 27.6421 34.1506 27.7686 34.0581" stroke="black" stroke-width="0.218724" stroke-miterlimit="10"/>
<path d="M30.1168 33.8582C30.1745 34.0661 30.2769 34.2582 30.4176 34.4225C30.5583 34.5868 30.7343 34.7199 30.9347 34.8136C31.1242 34.895 31.3339 34.9301 31.5459 34.9158C31.7578 34.9015 31.9657 34.8382 32.1516 34.7315C32.2767 34.6676 32.3771 34.5654 32.4358 34.4422C32.4654 34.3771 32.4725 34.3056 32.4561 34.2385C32.4396 34.1714 32.4005 34.1125 32.3447 34.0705" stroke="black" stroke-width="0.218724" stroke-miterlimit="10"/>
<path d="M30.8242 34.5581C30.9311 35.0982 30.826 35.6675 30.5284 36.1589C30.3926 36.3838 30.2085 36.58 29.9889 36.7337C29.7694 36.8873 29.5198 36.9947 29.2578 37.0483C29.0671 37.0895 28.8711 37.0833 28.6889 37.0303C28.5066 36.9772 28.3442 36.8792 28.2175 36.7457" stroke="black" stroke-width="0.218724" stroke-miterlimit="10"/>
<path d="M30.3252 36.2494C30.2979 36.5417 30.3503 36.8318 30.4774 37.0911C30.5553 37.2248 30.664 37.3388 30.7956 37.4252C30.9272 37.5115 31.0786 37.568 31.239 37.5907C31.5478 37.6251 31.8648 37.5843 32.161 37.4722C32.3588 37.4064 32.6008 37.2102 32.5071 37.0114" stroke="black" stroke-width="0.218724" stroke-miterlimit="10"/>
<path d="M30.5787 37.1081C30.7745 37.3499 30.8999 37.6389 30.9427 37.9477C30.9856 38.2566 30.9445 38.5749 30.8235 38.8726C30.713 39.1484 30.5164 39.3885 30.2614 39.5589C30.0065 39.7292 29.7062 39.8211 29.4031 39.8215" stroke="black" stroke-width="0.218724" stroke-miterlimit="10"/>
<path d="M30.9495 38.3683C30.9202 39.049 31.535 39.6105 32.1485 39.5844C32.762 39.5583 33.3279 39.0286 33.5651 38.3907" stroke="black" stroke-width="0.218724" stroke-miterlimit="10"/>
<path d="M32.245 39.5554C32.0263 40.0458 32.2599 40.6244 32.5785 41.0223C32.7111 41.2204 32.9104 41.3678 33.1458 41.4418C33.2641 41.4685 33.391 41.4498 33.5001 41.3895C33.6091 41.3293 33.6918 41.2322 33.7308 41.1186" stroke="black" stroke-width="0.218724" stroke-miterlimit="10"/>
<path d="M31.306 39.5318C31.4659 39.7474 31.5578 40.0045 31.5714 40.2745C31.5851 40.5445 31.5199 40.8167 31.3832 41.061C31.2542 41.284 31.0702 41.4753 30.8483 41.6172C30.6264 41.7591 30.3737 41.8472 30.1134 41.8732C29.5991 41.9041 29.0975 41.771 28.6874 41.4949" stroke="black" stroke-width="0.218724" stroke-miterlimit="10"/>
<path d="M30.632 41.6663C30.8912 42.0067 30.9948 42.4381 30.9205 42.8676C30.8504 43.2851 30.6475 43.6783 30.3398 43.9926C30.1464 44.2105 29.8882 44.3667 29.6033 44.4384C29.4609 44.4688 29.3146 44.4627 29.1794 44.4208C29.0442 44.3789 28.9249 44.3027 28.8339 44.2" stroke="black" stroke-width="0.218724" stroke-miterlimit="10"/>
<path d="M30.732 42.2198C30.8527 42.7 31.0522 43.2436 31.4927 43.3648C31.9331 43.486 32.3895 43.0974 32.6726 42.6772C32.9556 42.257 33.1712 41.6603 32.9446 41.2044" stroke="black" stroke-width="0.218724" stroke-miterlimit="10"/>
<path d="M33.5871 42.3857C33.2756 42.4766 32.99 42.6424 32.7584 42.8669C32.5268 43.0914 32.3571 43.3668 32.266 43.666C32.1638 43.9842 32.1357 44.3166 32.1837 44.639C32.2318 44.9614 32.3549 45.2657 32.5441 45.5298" stroke="black" stroke-width="0.218724" stroke-miterlimit="10"/>
<path d="M31.4683 43.6128C31.6039 43.9255 31.6401 44.2739 31.5728 44.616C31.5055 44.9582 31.3373 45.2796 31.0886 45.5419C30.8454 45.7675 30.5285 45.9037 30.1985 45.9244C29.8685 45.9452 29.5484 45.8491 29.2994 45.6544" stroke="black" stroke-width="0.218724" stroke-miterlimit="10"/>
<path d="M30.8867 45.7578C31.3158 45.6725 31.7572 46.0781 31.7508 46.5541" stroke="black" stroke-width="0.218724" stroke-miterlimit="10"/>
<path d="M43.1467 1.93511C41.0183 3.564 39.4891 5.77425 38.7735 8.25595C37.5988 12.3872 35.9588 19.7525 35.9836 20.7952C36.0084 21.8379 34.1915 33.7822 34.0659 34.511C33.9403 35.2398 32.9496 41.6581 34.1189 44.2856C35.2883 46.9131 43.0317 52.1681 46.8176 39.6685C46.8176 39.6685 47.6119 29.613 48.7141 21.9437C49.8162 14.2744 49.2625 6.16883 47.2988 3.75452C45.3351 1.3402 44.4346 0.803139 43.1467 1.93511Z" fill="#F5CB25" stroke="black" stroke-width="0.218724" stroke-miterlimit="10"/>
<path d="M41.0934 3.98438C41.3381 4.21563 41.5026 4.51026 41.5657 4.82999C41.6288 5.14973 41.5875 5.4798 41.4472 5.77734C41.1394 6.3739 40.3256 6.64326 39.832 6.25657" stroke="black" stroke-width="0.218724" stroke-miterlimit="10"/>
<path d="M40.5739 6.49219C40.7172 6.52524 40.7756 6.70702 40.7827 6.86566C40.7883 7.25626 40.6688 7.63952 40.4395 7.96623C40.2707 8.25273 39.9958 8.47189 39.6664 8.58261C39.5075 8.62743 39.3367 8.61697 39.1854 8.55317C39.0342 8.48937 38.9128 8.37655 38.8438 8.23559" stroke="black" stroke-width="0.218724" stroke-miterlimit="10"/>
<path d="M39.6602 8.79087C39.6807 8.77888 39.7036 8.77093 39.7274 8.76752C39.7513 8.76411 39.7757 8.76531 39.7991 8.77104C39.8225 8.77677 39.8443 8.78691 39.8633 8.80083C39.8824 8.81476 39.8981 8.83218 39.9096 8.85201C39.9605 8.93896 39.985 9.03725 39.9804 9.13625C39.9887 9.62646 39.8071 10.103 39.4691 10.4781C39.3152 10.6497 39.1235 10.7883 38.9071 10.8844C38.6906 10.9805 38.4545 11.0319 38.2148 11.035" stroke="black" stroke-width="0.218724" stroke-miterlimit="10"/>
<path d="M38.8565 10.7734C38.9733 10.79 39.0335 10.9288 39.0582 11.0511C39.2091 11.6102 39.1465 12.201 38.8813 12.7217C38.5965 13.2175 37.9968 13.548 37.4961 13.3827" stroke="black" stroke-width="0.218724" stroke-miterlimit="10"/>
<path d="M38.2248 13.3828C38.5379 13.5481 38.6193 13.9909 38.5945 14.3743C38.5731 14.8635 38.3991 15.3363 38.0938 15.7343C37.9556 15.9194 37.7697 16.0691 37.5533 16.1696C37.3369 16.2701 37.0969 16.3182 36.8555 16.3094" stroke="black" stroke-width="0.218724" stroke-miterlimit="10"/>
<path d="M37.5646 16.1016C37.8247 16.3065 37.876 16.6965 37.8707 17.0468C37.8707 17.5723 37.7574 18.1275 37.4337 18.5341C37.1099 18.9406 36.5244 19.162 36.1016 18.9092" stroke="black" stroke-width="0.218724" stroke-miterlimit="10"/>
<path d="M37.1017 18.6484C37.2965 18.9276 37.4186 19.2455 37.4583 19.5766C37.4979 19.9078 37.4539 20.243 37.3299 20.5554C37.2165 20.8581 37.0223 21.1286 36.7657 21.3415C36.509 21.5543 36.1984 21.7024 35.8633 21.7717" stroke="black" stroke-width="0.218724" stroke-miterlimit="10"/>
<path d="M36.625 21.2656C36.7938 21.4367 36.923 21.6384 37.0046 21.8582C37.0861 22.078 37.1183 22.3111 37.0991 22.543C37.0652 23.0245 36.9171 23.493 36.6657 23.9146C36.556 24.1314 36.4022 24.3261 36.2128 24.488C36.1269 24.5651 36.0215 24.6206 35.9064 24.6495C35.7914 24.6784 35.6704 24.6797 35.5547 24.6533" stroke="black" stroke-width="0.218724" stroke-miterlimit="10"/>
<path d="M36.4406 24.1797C37.019 25.0439 37.0297 26.3098 36.4653 27.2385C36.3319 27.4787 36.1368 27.6842 35.8974 27.8367C35.7867 27.9073 35.6578 27.949 35.5241 27.9574C35.3903 27.9658 35.2566 27.9407 35.1367 27.8846" stroke="black" stroke-width="0.218724" stroke-miterlimit="10"/>
<path d="M36.0353 27.7734C36.4705 27.9866 36.612 28.5667 36.6244 29.0839C36.6604 29.7086 36.5136 30.3307 36.1998 30.8835C35.869 31.4123 35.2852 31.7956 34.7031 31.7428" stroke="black" stroke-width="0.218724" stroke-miterlimit="10"/>
<path d="M35.6126 31.4766C35.7394 31.7568 35.8041 32.0581 35.8025 32.3623C35.801 32.6666 35.7334 32.9673 35.6037 33.2464C35.326 33.7967 34.7192 34.1784 34.1602 34.0892" stroke="black" stroke-width="0.218724" stroke-miterlimit="10"/>
<path d="M35.0263 33.8906C35.2722 33.9931 35.3607 34.3087 35.3802 34.5913C35.4236 35.221 35.281 35.8498 34.9679 36.409C34.8516 36.6338 34.6822 36.8309 34.4726 36.9858C34.3762 37.0577 34.2617 37.1053 34.14 37.1241C34.0182 37.1429 33.8934 37.1323 33.7773 37.0932" stroke="black" stroke-width="0.218724" stroke-miterlimit="10"/>
<path d="M34.6834 36.9709C34.6657 36.9362 34.5702 36.8899 34.6357 36.8998C35.7325 37.7261 34.8869 39.5983 33.668 39.8181" stroke="black" stroke-width="0.218724" stroke-miterlimit="10"/>
<path d="M33.875 39.8332C34.022 39.8047 34.1751 39.8238 34.3089 39.8875C34.4427 39.9512 34.5493 40.0556 34.611 40.1836C34.7497 40.4631 34.7965 40.7748 34.7454 41.0792C34.6744 41.7067 34.3812 42.2941 33.9122 42.7482" stroke="black" stroke-width="0.218724" stroke-miterlimit="10"/>
<path d="M34.1523 42.4972C34.1634 42.4664 34.1838 42.4393 34.2112 42.4193C34.2386 42.3993 34.2716 42.3873 34.3063 42.3848C34.8511 42.2658 35.3819 42.7682 35.419 43.3498C35.4276 43.6366 35.3527 43.9201 35.2022 44.1701C35.0517 44.4201 34.8313 44.6272 34.5645 44.7694" stroke="black" stroke-width="0.218724" stroke-miterlimit="10"/>
<path d="M34.9336 44.3884C35.0753 44.1333 35.2993 43.9263 35.574 43.7968C35.7019 43.7378 35.8442 43.7115 35.9865 43.7205C36.1288 43.7295 36.266 43.7735 36.3843 43.848C36.7646 44.1075 36.8354 44.6644 36.8248 45.1552C36.8159 45.5765 36.7487 46.0492 36.4373 46.3284" stroke="black" stroke-width="0.218724" stroke-miterlimit="10"/>
<path d="M34.8633 42.1762C35.0086 41.9173 35.2134 41.6915 35.463 41.5152C35.5777 41.4329 35.7162 41.3845 35.8606 41.3763C36.0049 41.368 36.1487 41.4003 36.2733 41.4689C36.4038 41.5664 36.5076 41.6916 36.5758 41.8341C36.8818 42.3844 36.9915 43.1561 36.5758 43.6519" stroke="black" stroke-width="0.218724" stroke-miterlimit="10"/>
<path d="M34.7461 39.5229C34.8015 39.4169 34.8797 39.3227 34.9757 39.246C35.0717 39.1694 35.1835 39.1119 35.3042 39.0772C35.4249 39.0425 35.552 39.0313 35.6775 39.0443C35.803 39.0573 35.9243 39.0942 36.034 39.1527C36.4621 39.3874 36.701 39.8914 36.7859 40.3987C36.8711 40.7832 36.8084 41.1834 36.609 41.529" stroke="black" stroke-width="0.218724" stroke-miterlimit="10"/>
<path d="M35.1953 36.3536C35.3736 36.1517 35.6099 36.0015 35.8764 35.9207C36.0314 35.9015 36.1889 35.9243 36.3304 35.9864C36.4718 36.0485 36.5912 36.1473 36.6743 36.271C36.856 36.5385 36.9664 36.8428 36.9963 37.1584C37.0841 37.8082 37.0158 38.4681 36.7964 39.0902C36.7557 39.2042 36.6849 39.3364 36.5717 39.3397" stroke="black" stroke-width="0.218724" stroke-miterlimit="10"/>
<path d="M35.4297 33.5624C35.5513 33.4562 35.6967 33.3768 35.8554 33.3298C36.0141 33.2829 36.1821 33.2698 36.3469 33.2913C36.5118 33.3129 36.6694 33.3686 36.8082 33.4544C36.947 33.5402 37.0636 33.6539 37.1493 33.7872C37.3633 34.1293 37.3969 34.5721 37.3828 34.9919C37.3722 35.3224 37.3032 35.7024 37.029 35.8578" stroke="black" stroke-width="0.218724" stroke-miterlimit="10"/>
<path d="M35.9922 31.0768C36.1297 30.9768 36.3002 30.9249 36.4744 30.93C36.6485 30.9352 36.8153 30.997 36.9457 31.1049C37.2142 31.3457 37.3875 31.6643 37.4375 32.0088C37.5842 32.7501 37.4303 33.5159 37.0059 34.1571" stroke="black" stroke-width="0.218724" stroke-miterlimit="10"/>
<path d="M36.5391 28.2949C36.6866 28.1915 36.8669 28.1372 37.0514 28.1408C37.2358 28.1444 37.4136 28.2056 37.5563 28.3148C37.8517 28.5576 38.0459 28.89 38.1047 29.2534C38.1814 29.6318 38.173 30.021 38.0801 30.3962C37.9872 30.7714 37.8118 31.1245 37.5652 31.4331" stroke="black" stroke-width="0.218724" stroke-miterlimit="10"/>
<path d="M37.1527 35.6484C37.0577 35.898 36.8979 36.1217 36.6875 36.2994" stroke="black" stroke-width="0.218724" stroke-miterlimit="10"/>
<path d="M36.7695 24.4732C36.8572 24.4071 36.9623 24.3644 37.0738 24.3496C37.1853 24.3347 37.299 24.3484 37.4029 24.389C37.5609 24.4647 37.6942 24.5789 37.7885 24.7195C38.3953 25.5176 38.3723 26.7372 37.9088 27.6857" stroke="black" stroke-width="0.218724" stroke-miterlimit="10"/>
<path d="M37.8814 27.5703L37.6055 28.2972" stroke="black" stroke-width="0.218724" stroke-miterlimit="10"/>
<path d="M36.8906 21.6369C36.9602 21.5498 37.0584 21.4864 37.1703 21.4566C37.2822 21.4267 37.4015 21.432 37.5098 21.4717C37.7228 21.5643 37.8983 21.7184 38.0105 21.9113C38.2701 22.3356 38.4079 22.8155 38.4104 23.3042C38.4129 23.793 38.28 24.2741 38.0246 24.7007" stroke="black" stroke-width="0.218724" stroke-miterlimit="10"/>
<path d="M37.4648 18.4154C37.572 18.3473 37.6966 18.307 37.8259 18.2985C37.9552 18.2901 38.0845 18.3139 38.2008 18.3674C38.438 18.4848 38.628 18.671 38.7421 18.8979C38.9858 19.399 39.0479 19.9605 38.919 20.4975C38.7941 21.0371 38.5836 21.5562 38.2946 22.0377" stroke="black" stroke-width="0.218724" stroke-miterlimit="10"/>
<path d="M38.0234 15.5058C38.1036 15.4248 38.2139 15.3755 38.3317 15.3682C38.4495 15.3608 38.5658 15.3958 38.6568 15.4661C38.84 15.621 38.973 15.8208 39.0407 16.0428C39.2183 16.4439 39.2793 16.8817 39.2176 17.312C39.1167 17.8507 38.7435 18.3035 38.5842 18.8223" stroke="black" stroke-width="0.218724" stroke-miterlimit="10"/>
<path d="M38.75 13.5493C38.798 13.4696 38.8644 13.4008 38.9444 13.348C39.0243 13.2951 39.1158 13.2595 39.2123 13.2437C39.3088 13.2279 39.4078 13.2323 39.5022 13.2565C39.5967 13.2808 39.6842 13.3244 39.7584 13.3841C40.0556 13.6254 40.1635 14.0583 40.1458 14.4665C40.1087 15.3109 39.6257 16.0727 39.1587 16.78" stroke="black" stroke-width="0.218724" stroke-miterlimit="10"/>
<path d="M39.2734 10.7695C39.5919 10.401 40.1987 10.5034 40.4835 10.8719C40.7683 11.2405 40.7984 11.7759 40.7312 12.2634C40.6383 12.9501 40.3787 13.608 39.9722 14.1869" stroke="black" stroke-width="0.218724" stroke-miterlimit="10"/>
<path d="M40.7871 7.36279C41.1604 7.25538 41.4947 7.62058 41.615 8.00066C41.7919 8.57408 41.6893 9.22021 41.4823 9.8019C41.2754 10.3836 40.9693 10.9239 40.7305 11.4924" stroke="black" stroke-width="0.218724" stroke-miterlimit="10"/>
<path d="M41.5898 5.44339C41.6534 5.41034 41.7273 5.39886 41.7988 5.41091C41.8704 5.42296 41.9354 5.4578 41.9826 5.50949C42.0816 5.62216 42.1469 5.75728 42.1719 5.90114C42.2531 6.26543 42.2468 6.64201 42.1535 7.00376C42.0602 7.36552 41.8822 7.70344 41.6323 7.99321" stroke="black" stroke-width="0.218724" stroke-miterlimit="10"/>
<path d="M42.203 2.63736C42.4666 2.48864 42.7992 2.68198 42.9106 2.96786C42.9959 3.26991 42.9818 3.58896 42.87 3.88336C42.7027 4.44391 42.4321 4.97293 42.0703 5.44663" stroke="black" stroke-width="0.218724" stroke-miterlimit="10"/>
<path d="M43.0768 2.08636C43.0379 2.35534 43.0325 2.62762 43.0608 2.89774C43.0611 3.07294 43.1233 3.24315 43.2377 3.38193C43.4642 3.59179 43.8304 3.4596 44.0922 3.27617C44.584 2.93079 45.0086 2.33424 44.9025 1.73438" stroke="black" stroke-width="0.218724" stroke-miterlimit="10"/>
<path d="M43.4453 3.42321C43.7779 3.22326 44.2096 3.42321 44.3882 3.77189C44.5669 4.12057 44.5457 4.53865 44.482 4.92864C44.3886 5.49675 44.21 6.04973 43.9513 6.57124" stroke="black" stroke-width="0.218724" stroke-miterlimit="10"/>
<path d="M42.4922 6.80072C42.5759 6.69993 42.6848 6.61994 42.8094 6.56781C42.9341 6.51569 43.0705 6.49304 43.2067 6.50186C43.343 6.51068 43.4748 6.5507 43.5905 6.61838C43.7062 6.68607 43.8023 6.77934 43.8703 6.88995C44.0879 7.27003 44.003 7.77404 43.8473 8.20369C43.7331 8.51564 43.5837 8.81534 43.4015 9.0977" stroke="black" stroke-width="0.218724" stroke-miterlimit="10"/>
<path d="M41.8438 9.20575C42.1763 9.04876 42.5408 8.88682 42.8822 8.98101C43.3068 9.09834 43.5509 9.59078 43.5474 10.0617C43.5132 10.5337 43.3702 10.9931 43.1281 11.4085" stroke="black" stroke-width="0.218724" stroke-miterlimit="10"/>
<path d="M41.0234 11.5465C41.1414 11.3546 41.3226 11.2034 41.54 11.1156C41.7575 11.0277 41.9995 11.0079 42.23 11.059C42.4561 11.1329 42.6567 11.2626 42.8106 11.4342C42.9644 11.6058 43.0657 11.813 43.1039 12.034C43.1942 12.5117 43.084 13.0035 42.7961 13.4072" stroke="black" stroke-width="0.218724" stroke-miterlimit="10"/>
<path d="M40.3974 13.8151C40.3426 13.668 40.5089 13.5275 40.654 13.473C41.259 13.2433 42.0162 13.4168 42.3098 14.0001C42.5717 14.5223 42.4001 15.1932 42.1329 15.7353" stroke="black" stroke-width="0.218724" stroke-miterlimit="10"/>
<path d="M43.022 13.1172L42.3906 14.0704" stroke="black" stroke-width="0.218724" stroke-miterlimit="10"/>
<path d="M39.4609 16.4021C39.7665 16.1354 40.1222 15.9236 40.51 15.7775C40.8355 15.6552 41.2177 15.594 41.4919 15.7923C41.8103 16.022 41.8598 16.5013 41.8156 16.9177C41.7611 17.4275 41.6089 17.924 41.3663 18.3835" stroke="black" stroke-width="0.218724" stroke-miterlimit="10"/>
<path d="M42.274 15.3438C42.159 15.6748 41.9902 15.9874 41.7734 16.2706" stroke="black" stroke-width="0.218724" stroke-miterlimit="10"/>
<path d="M38.8047 18.2731C39.2452 17.9955 39.7618 17.7609 40.2377 17.9013C40.7136 18.0418 41.0408 18.5739 41.0975 19.1143C41.1256 19.6635 41.0222 20.2116 40.7949 20.7189" stroke="black" stroke-width="0.218724" stroke-miterlimit="10"/>
<path d="M38.8242 21.0019C38.9438 20.8496 39.1065 20.7313 39.2939 20.6604C39.4814 20.5895 39.6863 20.5687 39.8857 20.6003C40.0814 20.6473 40.2597 20.7429 40.4018 20.877C40.5439 21.0112 40.6443 21.1789 40.6924 21.3621C40.8445 21.8909 40.6199 22.4693 40.4023 22.9899" stroke="black" stroke-width="0.218724" stroke-miterlimit="10"/>
<path d="M38.4587 23.8805C38.4127 23.6855 38.6604 23.55 38.8497 23.5203C39.2208 23.4515 39.5959 23.4029 39.9731 23.3749C40.0889 23.3551 40.2084 23.3738 40.311 23.4277C40.399 23.4991 40.4609 23.5945 40.4879 23.7004C40.7338 24.4242 40.548 25.2455 40.3605 26.0139" stroke="black" stroke-width="0.218724" stroke-miterlimit="10"/>
<path d="M38.1953 26.4317C38.3679 26.1539 38.6288 25.9333 38.9419 25.8005C39.0881 25.7329 39.2536 25.7109 39.4142 25.7377C39.83 25.8319 39.9874 26.3508 40.0688 26.7936C40.1502 27.2365 40.182 27.7372 39.8512 28.0033" stroke="black" stroke-width="0.218724" stroke-miterlimit="10"/>
<path d="M37.8008 28.263C37.8909 28.0623 38.0439 27.8919 38.2397 27.7739C38.4354 27.6559 38.6648 27.596 38.8976 27.602C39.1229 27.6288 39.336 27.7129 39.5136 27.8453C39.6911 27.9776 39.8263 28.1529 39.9043 28.3522C40.0784 28.7902 40.0695 29.2734 39.8795 29.7056" stroke="black" stroke-width="0.218724" stroke-miterlimit="10"/>
<path d="M38.0938 30.6039C38.2317 30.1263 38.7395 29.8867 39.1959 29.766C39.2925 29.7276 39.3968 29.7088 39.5017 29.7111C39.6067 29.7134 39.7099 29.7366 39.8045 29.7793C39.9728 29.9203 40.0756 30.1171 40.0911 30.3279C40.2161 31.0124 40.1334 31.716 39.8522 32.3588" stroke="black" stroke-width="0.218724" stroke-miterlimit="10"/>
<path d="M37.5586 32.5869C37.7231 32.2663 38.0893 32.1308 38.4255 32.0746C38.7077 32.0118 39.0038 32.0326 39.2729 32.1341C39.4307 32.2136 39.5686 32.3235 39.6775 32.4565C39.7864 32.5896 39.8637 32.7427 39.9044 32.9058C39.9968 33.2543 40.0016 33.6179 39.9186 33.9684" stroke="black" stroke-width="0.218724" stroke-miterlimit="10"/>
<path d="M37.3867 34.9815C37.53 34.689 37.8396 34.5403 38.1262 34.413C38.611 34.2015 39.2036 33.9999 39.5981 34.3337C39.7691 34.4959 39.88 34.705 39.9148 34.9303C40.0023 35.3748 39.9295 35.834 39.7078 36.2357" stroke="black" stroke-width="0.218724" stroke-miterlimit="10"/>
<path d="M36.7969 36.5363C36.8499 36.338 37.0622 36.2438 37.248 36.181C37.7168 36.0158 38.198 35.8621 38.681 35.8951C38.8784 35.8995 39.0715 35.9495 39.2432 36.0406C39.4149 36.1317 39.5597 36.2611 39.6648 36.4172C39.7699 36.5733 39.832 36.7513 39.8456 36.9353C39.8591 37.1193 39.8237 37.3035 39.7424 37.4716" stroke="black" stroke-width="0.218724" stroke-miterlimit="10"/>
<path d="M36.957 38.3327C37.4738 37.9065 38.0898 37.5987 38.7562 37.4337C39.11 37.3461 39.5364 37.3246 39.7911 37.5989C40.1202 37.946 39.9787 38.5475 39.8141 39.0284" stroke="black" stroke-width="0.218724" stroke-miterlimit="10"/>
<path d="M36.5898 40.2729C36.701 40.1438 36.8491 40.0467 37.0169 39.9929C37.1847 39.939 37.3654 39.9307 37.5381 39.9689C38.4226 40.111 39.0807 41.1157 38.8985 42.0708" stroke="black" stroke-width="0.218724" stroke-miterlimit="10"/>
<path d="M39.7947 38.6641C39.7074 39.5593 39.4051 40.4247 38.9102 41.1957" stroke="black" stroke-width="0.218724" stroke-miterlimit="10"/>
<path d="M36.5 41.9673C36.7477 41.5823 37.2713 41.5575 37.6853 41.6633C38.0555 41.7414 38.3818 41.9444 38.6017 42.2334C38.7129 42.3959 38.7709 42.5851 38.7687 42.778C38.7665 42.9708 38.7042 43.1589 38.5893 43.3191" stroke="black" stroke-width="0.218724" stroke-miterlimit="10"/>
<path d="M36.553 43.8284C36.5328 43.7633 36.5346 43.694 36.558 43.6299C36.5814 43.5657 36.6254 43.5099 36.6839 43.4698C36.7957 43.4019 36.9242 43.3615 37.0572 43.3525C37.3037 43.304 37.5569 43.2923 37.8073 43.3178C37.9351 43.333 38.0577 43.375 38.1658 43.4405C38.2739 43.506 38.3648 43.5934 38.4318 43.6962C38.5357 43.9059 38.5814 44.1367 38.5645 44.3672C38.5605 44.7779 38.5011 45.1866 38.3876 45.5834" stroke="black" stroke-width="0.218724" stroke-miterlimit="10"/>
<path d="M36.8281 45.7503C37.0157 45.4198 37.4031 45.1719 37.7428 45.286C37.8567 45.3355 37.9571 45.4085 38.0365 45.4996C38.1158 45.5906 38.1721 45.6972 38.201 45.8115C38.2683 46.0537 38.301 46.3032 38.2983 46.5534L38.3177 47.1202" stroke="black" stroke-width="0.218724" stroke-miterlimit="10"/>
<path d="M44.8059 2.64844C44.6614 2.87685 44.5819 3.13596 44.5747 3.40117C44.5676 3.66638 44.6332 3.9289 44.7652 4.16379C44.8167 4.25325 44.8886 4.33109 44.9757 4.39184C45.0613 4.4378 45.1583 4.46199 45.257 4.46199C45.3557 4.46199 45.4527 4.4378 45.5383 4.39184C46.0089 4.17701 46.2459 3.51105 46.0319 3.04008" stroke="black" stroke-width="0.218724" stroke-miterlimit="10"/>
<path d="M46.0273 2.3125C46.0985 2.6519 46.1405 2.99608 46.1529 3.34174" stroke="black" stroke-width="0.218724" stroke-miterlimit="10"/>
<path d="M44.125 6.47276C44.1619 6.58497 44.2249 6.68816 44.3095 6.77496C44.3941 6.86177 44.4982 6.93003 44.6143 6.97488C44.7305 7.01972 44.8558 7.04003 44.9813 7.03436C45.1068 7.02869 45.2294 6.99718 45.3404 6.94208C45.7968 6.72064 46.0781 6.19184 46.1418 5.66799C46.1825 5.14924 46.1158 4.62801 45.9454 4.13281" stroke="black" stroke-width="0.218724" stroke-miterlimit="10"/>
<path d="M46.0097 6.24219C46.1024 6.6243 46.0947 7.02172 45.9872 7.40044C45.8797 7.77916 45.6755 8.12792 45.3923 8.41689C45.0384 8.76392 44.4635 8.96222 44.0938 8.66311" stroke="black" stroke-width="0.218724" stroke-miterlimit="10"/>
<path d="M45.531 8.07031C45.9609 8.71149 45.8264 9.63689 45.4744 10.3656C45.278 10.7705 45.0038 11.1622 44.6128 11.3439C44.2219 11.5257 43.7035 11.4266 43.5195 11.0349" stroke="black" stroke-width="0.218724" stroke-miterlimit="10"/>
<path d="M45.1434 10.5156C45.4141 10.7602 45.4972 11.1766 45.5114 11.555C45.5558 12.0733 45.4785 12.5945 45.2849 13.082C45.0744 13.5595 44.6781 13.9694 44.2005 14.09C43.9582 14.1503 43.7005 14.1245 43.4774 14.0177C43.2542 13.9109 43.0813 13.7306 42.9922 13.5116" stroke="black" stroke-width="0.218724" stroke-miterlimit="10"/>
<path d="M44.9784 13.3203C45.1244 13.9648 45.0866 14.6338 44.8688 15.2604C44.7797 15.5446 44.6265 15.8078 44.4194 16.0321C44.3253 16.1371 44.2062 16.2201 44.0717 16.2746C43.9372 16.3291 43.7909 16.3536 43.6445 16.3461C43.498 16.3151 43.3597 16.2567 43.2381 16.1743C43.1164 16.0919 43.014 15.9873 42.9369 15.8668C42.6991 15.5453 42.543 15.1774 42.4805 14.791" stroke="black" stroke-width="0.218724" stroke-miterlimit="10"/>
<path d="M44.2599 16.0391C44.3413 16.0473 44.3696 16.1531 44.3784 16.239C44.4383 16.6987 44.3931 17.1651 44.2457 17.6073C44.0847 18.0436 43.7575 18.4335 43.34 18.5757C43.1742 18.6316 42.9958 18.6467 42.8219 18.6194C42.6481 18.5922 42.4847 18.5237 42.3475 18.4203C42.2037 18.3039 42.0887 18.1596 42.0105 17.9976C41.9323 17.8355 41.8927 17.6595 41.8946 17.4817" stroke="black" stroke-width="0.218724" stroke-miterlimit="10"/>
<path d="M43.4759 18.424C43.4759 18.3496 43.5873 18.4124 43.5962 18.4868C43.6758 19.1147 43.3857 19.7526 43.0053 20.2616C42.8018 20.5326 42.5542 20.792 42.2428 20.8796C42.0895 20.9186 41.9277 20.9184 41.7746 20.8788C41.6214 20.8393 41.4825 20.7619 41.3724 20.6549C41.1388 20.4217 40.9918 20.1244 40.9531 19.8071" stroke="black" stroke-width="0.218724" stroke-miterlimit="10"/>
<path d="M43.0586 20.1406C43.0316 20.5889 42.9479 21.0327 42.8092 21.4626C42.65 21.9584 42.3864 22.4657 41.9423 22.702C41.3408 23.0209 40.6155 22.7218 40.1484 22.2492" stroke="black" stroke-width="0.218724" stroke-miterlimit="10"/>
<path d="M42.3135 22.6197L42.386 22.3438C42.5168 22.892 42.5046 23.4616 42.3507 24.0045C42.2635 24.3803 42.062 24.7246 41.7704 24.996C41.4785 25.2389 41.0628 25.3348 40.7461 25.1613" stroke="black" stroke-width="0.218724" stroke-miterlimit="10"/>
<path d="M42.0788 24.6797C42.2962 25.5457 42.1613 26.4562 41.7002 27.2345C41.5649 27.4883 41.3598 27.7038 41.1058 27.8591C40.9879 27.9308 40.8492 27.9668 40.7086 27.962C40.568 27.9573 40.4324 27.9121 40.3203 27.8327" stroke="black" stroke-width="0.218724" stroke-miterlimit="10"/>
<path d="M41.4875 27.4864C41.4556 27.4864 41.4875 27.4187 41.5123 27.422C41.537 27.4253 41.5636 27.46 41.5777 27.4914C41.7615 27.9738 41.8251 28.489 41.7638 28.9978C41.7025 29.5066 41.5179 29.9957 41.2239 30.4279C41.0027 30.7452 40.6295 31.041 40.2969 30.9005" stroke="black" stroke-width="0.218724" stroke-miterlimit="10"/>
<path d="M40.9659 30.5297C41.0933 30.4652 41.2012 30.6354 41.233 30.7776C41.3629 31.3762 41.2803 31.9981 40.9977 32.549C40.731 33.077 40.2702 33.4981 39.6992 33.7355" stroke="black" stroke-width="0.218724" stroke-miterlimit="10"/>
<path d="M40.7413 32.8052C40.7094 32.7606 40.7731 32.6929 40.8262 32.7044C40.8793 32.716 40.9093 32.7689 40.9323 32.8201C41.2628 33.5392 41.2987 34.3468 41.0332 35.089C40.9475 35.3629 40.7914 35.6131 40.5785 35.8178C40.4823 35.9131 40.3604 35.9824 40.2256 36.0185C40.0908 36.0545 39.9481 36.056 39.8125 36.0227" stroke="black" stroke-width="0.218724" stroke-miterlimit="10"/>
<path d="M40.4494 35.5672C40.4518 35.5527 40.4576 35.5389 40.4665 35.5268C40.4753 35.5147 40.487 35.5046 40.5006 35.4973C40.5142 35.49 40.5294 35.4857 40.545 35.4846C40.5607 35.4836 40.5764 35.4858 40.5909 35.4912C40.6469 35.5214 40.69 35.5687 40.713 35.625C41.0519 36.2255 41.1408 36.9219 40.9625 37.58C40.7608 38.241 40.1717 38.7896 39.5312 38.7962" stroke="black" stroke-width="0.218724" stroke-miterlimit="10"/>
<path d="M40.6693 38.2035C40.7023 38.1732 40.7468 38.1562 40.7931 38.1562C40.8394 38.1562 40.8839 38.1732 40.917 38.2035C40.9833 38.2728 41.0274 38.3581 41.0443 38.4497C41.1724 38.9436 41.1802 39.458 41.0672 39.955C40.9542 40.4521 40.7233 40.9191 40.3915 41.3218C40.2454 41.5101 40.049 41.6594 39.8219 41.7547C39.7141 41.7979 39.5948 41.8092 39.4799 41.787C39.3651 41.7648 39.2603 41.7103 39.1797 41.6308" stroke="black" stroke-width="0.218724" stroke-miterlimit="10"/>
<path d="M40.143 41.6953C40.4667 42.4257 40.1872 43.4189 39.5291 43.8832C39.2584 44.0733 38.8869 44.1691 38.6445 43.9741" stroke="black" stroke-width="0.218724" stroke-miterlimit="10"/>
<path d="M39.5824 43.9219C39.8389 43.9318 39.9362 44.2689 39.9557 44.5399C39.9999 45.0671 40.0052 45.6273 39.7681 46.1048C39.5311 46.5824 38.9685 46.9311 38.5156 46.7311" stroke="black" stroke-width="0.218724" stroke-miterlimit="10"/>
<path d="M39.6886 46.375C39.753 46.5468 39.754 46.7338 39.6915 46.9062C39.629 47.0787 39.5066 47.2266 39.3438 47.3266" stroke="black" stroke-width="0.218724" stroke-miterlimit="10"/>
<path d="M47.7145 4.125C47.8407 4.5037 47.8911 4.90088 47.8632 5.29663C47.8083 5.69489 47.5536 6.1014 47.1838 6.18899C46.7628 6.28979 46.3859 5.9692 46.0781 5.6701" stroke="black" stroke-width="0.218724" stroke-miterlimit="10"/>
<path d="M47.4861 6.02407C47.6135 6.0125 47.6895 6.16288 47.7214 6.29343C47.8554 6.88202 47.7607 7.49593 47.4543 8.02525C47.3661 8.19651 47.2426 8.3498 47.0908 8.47629C46.939 8.60278 46.7619 8.69997 46.5697 8.76227C46.3834 8.81051 46.1848 8.79365 46.0108 8.71486C45.8369 8.63607 45.6998 8.50076 45.625 8.33427" stroke="black" stroke-width="0.218724" stroke-miterlimit="10"/>
<path d="M47.4448 8.11719C47.6142 8.70932 47.6646 9.32566 47.5934 9.93495C47.5623 10.3434 47.4296 10.7395 47.206 11.0917C46.9724 11.4222 46.5885 11.6668 46.2082 11.6321C45.8703 11.6007 45.589 11.366 45.3555 11.1148" stroke="black" stroke-width="0.218724" stroke-miterlimit="10"/>
<path d="M47.0603 11.3116C47.0249 11.3116 47.0444 11.2438 47.078 11.2505C47.1116 11.2571 47.124 11.3017 47.1311 11.338C47.2198 11.8851 47.1976 12.4429 47.0656 12.9823C46.963 13.3921 46.7755 13.8085 46.4376 14.0448C46.0997 14.2812 45.5902 14.2547 45.3867 13.9044" stroke="black" stroke-width="0.218724" stroke-miterlimit="10"/>
<path d="M46.6096 13.7031C46.7679 14.1752 46.7961 14.677 46.6916 15.162C46.5871 15.647 46.3532 16.0996 46.0117 16.4777C45.8499 16.6663 45.6329 16.8069 45.3872 16.8826C45.2693 16.9153 45.1436 16.9135 45.0269 16.8775C44.9102 16.8414 44.8081 16.7728 44.7344 16.6809" stroke="black" stroke-width="0.218724" stroke-miterlimit="10"/>
<path d="M45.6767 16.5391C45.815 17.0625 45.8334 17.6073 45.7306 18.1379C45.6279 18.6684 45.4064 19.1727 45.0805 19.6177C44.9143 19.8668 44.6748 20.0659 44.3906 20.1911C44.2556 20.2466 44.1046 20.2583 43.9617 20.2245C43.8187 20.1907 43.692 20.1132 43.6016 20.0044" stroke="black" stroke-width="0.218724" stroke-miterlimit="10"/>
<path d="M45.1777 19.2891C45.3139 19.2891 45.3687 19.4692 45.3846 19.6113C45.4711 20.1895 45.4645 20.7766 45.3652 21.353C45.2449 21.9265 44.9565 22.4883 44.4948 22.8271C44.3844 22.9182 44.2548 22.9869 44.1144 23.0287C43.974 23.0706 43.8258 23.0846 43.6792 23.07C43.2193 22.9973 42.9238 22.5478 42.6797 22.1347" stroke="black" stroke-width="0.218724" stroke-miterlimit="10"/>
<path d="M44.2859 22.9733C44.3655 22.8857 44.4805 23.0212 44.5071 23.1385C44.6086 23.6158 44.5695 24.1099 44.3938 24.568C44.2533 24.9949 43.9406 25.354 43.5217 25.5694C43.3247 25.6621 43.0985 25.685 42.8848 25.634C42.6712 25.5829 42.4845 25.4614 42.3594 25.2918" stroke="black" stroke-width="0.218724" stroke-miterlimit="10"/>
<path d="M43.6219 25.5781C43.7417 26.6275 43.5584 27.6877 43.0912 28.6485C42.9391 28.9592 42.7374 29.2781 42.4172 29.3839C42.3378 29.4089 42.253 29.4147 42.1706 29.4006C42.0883 29.3866 42.0111 29.3532 41.9463 29.3036C41.8816 29.254 41.8314 29.1899 41.8005 29.1172C41.7696 29.0445 41.759 28.9657 41.7697 28.8881" stroke="black" stroke-width="0.218724" stroke-miterlimit="10"/>
<path d="M48.9454 8.61719C48.9704 8.96215 48.9436 9.30868 48.8658 9.6467C48.8296 9.81152 48.759 9.96804 48.6579 10.1073C48.5568 10.2465 48.4272 10.3657 48.2766 10.4581C48.1348 10.5392 47.9649 10.5657 47.8025 10.5321C47.6402 10.4985 47.4981 10.4074 47.4062 10.278" stroke="black" stroke-width="0.218724" stroke-miterlimit="10"/>
<path d="M48.8779 10.1484C48.9637 10.6465 48.9637 11.1542 48.8779 11.6522C48.7647 12.148 48.4427 12.6322 47.981 12.7759C47.8643 12.8095 47.7409 12.8175 47.6204 12.7994C47.4999 12.7812 47.3855 12.7373 47.2861 12.6711C47.1866 12.605 47.1049 12.5183 47.0471 12.4178C46.9894 12.3173 46.9572 12.2058 46.9531 12.0918" stroke="black" stroke-width="0.218724" stroke-miterlimit="10"/>
<path d="M47.0112 13.3828C46.9679 14.0508 47.1176 14.7175 47.4447 15.3129C47.5544 15.5063 47.7012 15.698 47.9135 15.7393C48.059 15.7568 48.2065 15.7251 48.3292 15.6501C48.5445 15.5247 48.7236 15.3518 48.8507 15.1466C48.9778 14.9415 49.049 14.7103 49.0581 14.4735" stroke="black" stroke-width="0.218724" stroke-miterlimit="10"/>
<path d="M49.1477 15.4375C49.1297 15.9074 49.0293 16.3713 48.8505 16.8107C48.7287 17.1469 48.5245 17.4519 48.2543 17.7014C48.1312 17.8175 47.978 17.9019 47.8097 17.9462C47.6413 17.9905 47.4635 17.9933 47.2937 17.9543C46.7488 17.789 46.5276 17.1016 46.5117 16.4935" stroke="black" stroke-width="0.218724" stroke-miterlimit="10"/>
<path d="M46.4961 16.0189L46.5138 15.8438C46.5545 16.1412 46.5687 16.4412 46.5562 16.7408" stroke="black" stroke-width="0.218724" stroke-miterlimit="10"/>
<path d="M47.6402 18.0781C47.4762 18.472 47.4375 18.9019 47.5288 19.3159C47.5629 19.628 47.7044 19.9214 47.9321 20.152C48.0446 20.255 48.1957 20.3126 48.3532 20.3126C48.5106 20.3126 48.6618 20.255 48.7742 20.152" stroke="black" stroke-width="0.218724" stroke-miterlimit="10"/>
<path d="M47.6749 20.0391C47.4785 20.5348 47.1265 20.981 46.6541 21.1562C46.4214 21.2491 46.1589 21.2529 45.9232 21.1666C45.6876 21.0804 45.4977 20.911 45.3945 20.6951" stroke="black" stroke-width="0.218724" stroke-miterlimit="10"/>
<path d="M47.3736 20.4688C47.1908 21.008 47.0913 21.5689 47.0781 22.1345C47.0923 22.6947 47.3099 23.2714 47.7575 23.5523C47.8586 23.6245 47.9842 23.6603 48.1113 23.6531C48.1801 23.6434 48.244 23.6143 48.2946 23.5697C48.3452 23.5251 48.38 23.4672 48.3943 23.4036" stroke="black" stroke-width="0.218724" stroke-miterlimit="10"/>
<path d="M47.0471 22.7578C46.9695 23.2524 46.7054 23.7048 46.3023 24.0335C46.119 24.199 45.8808 24.3008 45.627 24.3223C45.3732 24.3437 45.1193 24.2834 44.9072 24.1514C44.6952 24.0194 44.538 23.8236 44.4615 23.5965C44.3851 23.3695 44.3942 23.1248 44.4871 22.9032" stroke="black" stroke-width="0.218724" stroke-miterlimit="10"/>
<path d="M46.8068 23.6797C46.4846 24.1403 46.3445 24.6913 46.4105 25.238C46.4737 25.7652 46.6748 26.2697 46.996 26.7071C47.1052 26.883 47.262 27.0289 47.4507 27.1301C47.5452 27.1767 47.6532 27.1935 47.7588 27.178C47.8643 27.1625 47.9616 27.1156 48.0363 27.0442" stroke="black" stroke-width="0.218724" stroke-miterlimit="10"/>
<path d="M46.4987 25.8672C46.3324 26.5282 45.9042 27.1545 45.2957 27.3726C45.1444 27.4265 44.9825 27.4491 44.821 27.4389C44.6595 27.4287 44.5024 27.3859 44.3603 27.3135C44.2182 27.2411 44.0946 27.1408 43.998 27.0195C43.9014 26.8982 43.8341 26.7588 43.8008 26.6108" stroke="black" stroke-width="0.218724" stroke-miterlimit="10"/>
<path d="M46.826 26.8047C46.7521 27.2181 46.5884 27.613 46.345 27.9651C46.1016 28.3172 45.7836 28.6191 45.4107 28.8521C45.0498 29.0871 44.6091 29.19 44.1723 29.1413C43.9535 29.1065 43.7491 29.0165 43.5811 28.8811C43.413 28.7457 43.2877 28.57 43.2188 28.3729" stroke="black" stroke-width="0.218724" stroke-miterlimit="10"/>
<path d="M46.6143 27.6562C46.3802 28.1646 46.2671 28.7144 46.2827 29.2676C46.2982 29.8208 46.4422 30.3643 46.7045 30.8605C46.7744 31.003 46.88 31.1277 47.0124 31.224C47.0779 31.2679 47.1565 31.2915 47.237 31.2915C47.3176 31.2915 47.3962 31.2679 47.4617 31.224" stroke="black" stroke-width="0.218724" stroke-miterlimit="10"/>
<path d="M46.2325 29.9453C45.8347 30.4674 45.6496 31.105 45.7106 31.7432C45.7705 32.3595 45.9983 32.9511 46.3723 33.4619C46.5219 33.6906 46.7237 33.8858 46.9631 34.0336C47.0795 34.1038 47.2129 34.1455 47.3511 34.1551C47.4892 34.1646 47.6278 34.1416 47.7539 34.0882" stroke="black" stroke-width="0.218724" stroke-miterlimit="10"/>
<path d="M46.1464 33.4453C45.9545 33.7499 45.8092 34.0781 45.7147 34.4203C45.5997 34.9342 45.7147 35.463 45.8669 35.9538C45.9343 36.2158 46.0505 36.4647 46.2101 36.6892C46.2836 36.7947 46.3852 36.8806 46.5049 36.9385C46.6245 36.9964 46.7582 37.0244 46.8929 37.0197" stroke="black" stroke-width="0.218724" stroke-miterlimit="10"/>
<path d="M45.955 36.5625C45.6185 36.9928 45.412 37.4996 45.357 38.0299C45.3124 38.3541 45.355 38.6835 45.4808 38.9884C45.537 39.1291 45.6288 39.255 45.7483 39.3554C45.8678 39.4558 46.0116 39.5277 46.1672 39.5651C46.3176 39.5819 46.47 39.5682 46.6142 39.5248C46.7583 39.4814 46.8907 39.4095 47.0023 39.3139" stroke="black" stroke-width="0.218724" stroke-miterlimit="10"/>
<path d="M46.2221 28.9453C46.1031 29.5099 45.839 30.039 45.4525 30.4871C45.0598 30.9052 44.4937 31.1679 43.9612 31.0754C43.6795 31.0151 43.4286 30.866 43.2508 30.6532C43.0729 30.4405 42.9789 30.177 42.9846 29.9071" stroke="black" stroke-width="0.218724" stroke-miterlimit="10"/>
<path d="M43.2368 28.6641C43.2652 29.4002 43.0415 30.1255 42.5981 30.7347C42.4611 30.9436 42.2669 31.1148 42.0355 31.2304C41.9274 31.2829 41.8044 31.3024 41.6837 31.2861C41.5631 31.2698 41.451 31.2185 41.3633 31.1395" stroke="black" stroke-width="0.218724" stroke-miterlimit="10"/>
<path d="M44.0808 31.2656C43.849 31.9365 43.4156 32.5678 42.8052 32.8702C42.1949 33.1726 41.3899 33.0702 41.0078 32.5215" stroke="black" stroke-width="0.218724" stroke-miterlimit="10"/>
<path d="M43.5105 31.9453C43.4666 32.2076 43.5021 32.4762 43.6131 32.7206C43.7241 32.9651 43.9061 33.1756 44.1385 33.3285C44.3704 33.4531 44.6397 33.5032 44.905 33.4709C45.1703 33.4387 45.4169 33.3259 45.6069 33.15C45.7838 32.998 45.9235 32.755 45.8475 32.5402" stroke="black" stroke-width="0.218724" stroke-miterlimit="10"/>
<path d="M43.9154 33.1953C43.9102 33.5315 43.8092 33.8604 43.6226 34.148C43.436 34.4355 43.1707 34.6714 42.8539 34.8313C42.5529 34.9601 42.2145 34.9915 41.8922 34.9206C41.5699 34.8496 41.2821 34.6804 41.0742 34.4397C40.9734 34.324 40.915 34.0943 41.0583 34.0348" stroke="black" stroke-width="0.218724" stroke-miterlimit="10"/>
<path d="M43.3945 34.4062C43.4058 34.6215 43.4642 34.8322 43.5661 35.0255C43.668 35.2188 43.8114 35.3905 43.9872 35.53C44.155 35.6544 44.3525 35.739 44.5629 35.7767C44.7733 35.8144 44.9903 35.804 45.1955 35.7464C45.3331 35.716 45.4547 35.6411 45.5387 35.5349C45.5816 35.4793 45.604 35.4121 45.6024 35.3435C45.6008 35.2749 45.5753 35.2087 45.5298 35.1548" stroke="black" stroke-width="0.218724" stroke-miterlimit="10"/>
<path d="M43.941 35.2656C43.9315 35.8176 43.7048 36.347 43.3041 36.7529C43.1223 36.9375 42.8992 37.0825 42.6506 37.1776C42.402 37.2727 42.1341 37.3156 41.8658 37.3032C41.6701 37.2968 41.4794 37.2431 41.3125 37.1472C41.1457 37.0513 41.0084 36.9166 40.9141 36.7562" stroke="black" stroke-width="0.218724" stroke-miterlimit="10"/>
<path d="M43.0819 36.7734C42.9917 37.0478 42.9795 37.3394 43.0466 37.6195C43.0937 37.7679 43.1752 37.9047 43.2853 38.0203C43.3953 38.136 43.5313 38.2276 43.6834 38.2888C43.9779 38.3967 44.2964 38.4348 44.6104 38.3995C44.8192 38.383 45.0987 38.2524 45.051 38.0376" stroke="black" stroke-width="0.218724" stroke-miterlimit="10"/>
<path d="M43.1449 37.6719C43.2843 37.9536 43.3437 38.2641 43.3173 38.5735C43.291 38.8829 43.1798 39.1808 42.9945 39.4384C42.8266 39.6773 42.5826 39.8609 42.2968 39.9632C42.0111 40.0656 41.6982 40.0814 41.4023 40.0085" stroke="black" stroke-width="0.218724" stroke-miterlimit="10"/>
<path d="M43.2329 38.9766C43.056 39.6277 43.5283 40.3217 44.1422 40.444C44.7561 40.5663 45.4177 40.1945 45.7892 39.6359" stroke="black" stroke-width="0.218724" stroke-miterlimit="10"/>
<path d="M44.2439 40.4453C43.9219 40.8667 44.0245 41.4814 44.2439 41.9441C44.3302 42.168 44.4931 42.3591 44.7074 42.4878C44.8168 42.543 44.9449 42.5567 45.0648 42.5259C45.1848 42.4951 45.2874 42.4223 45.3513 42.3226" stroke="black" stroke-width="0.218724" stroke-miterlimit="10"/>
<path d="M43.3275 40.1875C43.4375 40.4349 43.4716 40.7059 43.4259 40.9703C43.3803 41.2348 43.2568 41.4821 43.0692 41.6847C42.8949 41.8685 42.674 42.0084 42.4267 42.0916C42.1794 42.1747 41.9136 42.1985 41.6539 42.1606C41.1431 42.0682 40.6795 41.82 40.3359 41.455" stroke="black" stroke-width="0.218724" stroke-miterlimit="10"/>
<path d="M42.2003 42.0938C42.3808 42.4861 42.3884 42.929 42.2216 43.3265C42.0613 43.7125 41.7778 44.0431 41.4096 44.2734C41.1711 44.4347 40.8848 44.5225 40.5905 44.5246C40.4431 44.5203 40.2996 44.4791 40.1751 44.4052C40.0506 44.3314 39.9497 44.2276 39.8828 44.1048" stroke="black" stroke-width="0.218724" stroke-miterlimit="10"/>
<path d="M42.1797 42.6522C42.1921 43.1479 42.2682 43.7213 42.675 43.9461C43.0819 44.1708 43.6109 43.9048 43.9789 43.5693C44.3469 43.2338 44.6954 42.705 44.568 42.2109" stroke="black" stroke-width="0.218724" stroke-miterlimit="10"/>
<path d="M44.9366 43.5078C44.612 43.5198 44.2962 43.6105 44.0205 43.771C43.7447 43.9315 43.5184 44.1563 43.3639 44.4233C43.1947 44.7064 43.0949 45.021 43.0717 45.3445C43.0484 45.668 43.1023 45.9923 43.2294 46.2939" stroke="black" stroke-width="0.218724" stroke-miterlimit="10"/>
<path d="M42.5929 44.1719C42.6581 44.5074 42.6179 44.8533 42.4773 45.1679C42.3367 45.4825 42.1016 45.7524 41.8004 45.945C41.5147 46.1034 41.1766 46.1583 40.8505 46.0992C40.5243 46.0401 40.2328 45.8712 40.0312 45.6244" stroke="black" stroke-width="0.218724" stroke-miterlimit="10"/>
<path d="M41.5547 46.1016C41.9951 46.123 42.3364 46.6203 42.2268 47.0812" stroke="black" stroke-width="0.218724" stroke-miterlimit="10"/>
<path d="M41.1341 3.85156C40.8594 3.9594 40.6193 4.13195 40.4372 4.35237C40.2552 4.57278 40.1375 4.83352 40.0956 5.10912C40.0467 5.40411 40.0689 5.70558 40.1607 5.99149C40.2526 6.27741 40.4117 6.54054 40.6264 6.76163" stroke="black" stroke-width="0.218724" stroke-miterlimit="10"/>
<path d="M39.1133 7.09262C39.4988 6.98028 39.964 7.30739 40.0277 7.73528" stroke="black" stroke-width="0.218724" stroke-miterlimit="10"/>
</svg>
