<svg width="75" height="59" viewBox="0 0 75 59" fill="none" xmlns="http://www.w3.org/2000/svg">
<path d="M65.2774 30.4481L46.1705 24.0478C46.1705 24.0478 37.3163 21.0915 33.2678 20.2687C29.2193 19.446 11.7913 16.7925 11.7913 16.7925L8.81627 16.4543L7.41577 17.3158C7.41577 17.3158 8.82957 30.7364 8.7453 29.9347C8.66102 29.1341 35.5011 35.693 35.5011 35.693L42.4603 37.129C42.4603 37.129 52.9468 39.6705 53.468 39.8402C53.988 40.0109 59.5911 42.0967 59.5911 42.0967L64.6897 41.7009C64.6897 41.7009 65.661 38.3842 65.732 36.8518C65.803 35.3193 65.2774 30.4481 65.2774 30.4481Z" fill="#FFE799"/>
<path d="M64.6898 41.7031C64.4825 42.0879 54.353 36.4116 40.9102 33.7426C27.4675 31.0736 10.7325 28.2848 9.6913 27.6383L8.81641 16.4554C8.81641 16.4554 31.7166 18.804 43.3276 23.0288C54.9385 27.2535 65.3773 30.2707 65.6046 30.9893C65.833 31.7067 66.1923 38.9143 64.6898 41.7031Z" stroke="black" stroke-width="0.221773" stroke-miterlimit="10"/>
<path d="M8.81627 16.4543L7.41577 17.3158L8.7453 29.9347C8.7453 29.9347 36.5168 36.0157 44.7767 37.5836C53.0366 39.1516 60.1455 42.3373 60.1455 42.3373L64.6897 41.702" stroke="black" stroke-width="0.221773" stroke-miterlimit="10"/>
<path d="M50.0939 1.00009L34.6297 13.9172C34.6297 13.9172 27.4709 19.9084 24.6488 22.9256C21.8268 25.9429 10.4321 39.3934 10.4321 39.3934L8.58472 41.7508V43.3953C8.58472 43.3953 20.7556 49.2246 20.0293 48.8764C19.303 48.5282 38.9565 29.1076 38.9565 29.1076L43.8277 23.9336C43.8277 23.9336 51.4877 16.3346 51.9058 15.9808C52.3238 15.6271 57.0365 11.949 57.0365 11.949L59.3718 7.39934C59.3718 7.39934 57.0565 4.83343 55.7879 3.96963C54.5194 3.10582 50.0939 1.00009 50.0939 1.00009Z" fill="#FFE799"/>
<path d="M59.3719 7.39818C59.5914 7.7763 49.4475 13.4282 40.1287 23.4778C30.8098 33.5274 19.6635 46.3182 18.5679 46.8671L8.58594 41.7508C8.58594 41.7508 22.5887 23.4789 32.2724 15.8045C41.9561 8.13003 49.9953 0.820401 50.7272 1.00336C51.4579 1.18633 57.784 4.65818 59.3719 7.39818Z" stroke="black" stroke-width="0.221773" stroke-miterlimit="10"/>
<path d="M8.58472 41.7507V43.3952L20.0293 48.8763C20.0293 48.8763 39.7637 28.4111 45.4278 22.1993C51.0919 15.9874 57.5311 11.6008 57.5311 11.6008L59.3718 7.39816" stroke="black" stroke-width="0.221773" stroke-miterlimit="10"/>
<path d="M48.6957 14.8653L31.3819 25.1722C31.3819 25.1722 23.3648 29.9547 20.1014 32.4874C16.838 35.02 3.45846 46.4979 3.45846 46.4979L1.2618 48.5326L1.00122 50.156C1.00122 50.156 12.0954 57.8382 11.4334 57.3791C10.7714 56.9212 33.2503 40.8549 33.2503 40.8549L38.8789 36.5159C38.8789 36.5159 47.6456 30.2242 48.1135 29.9414C48.5814 29.6587 53.8175 26.7734 53.8175 26.7734L56.8436 22.6507C56.8436 22.6507 54.9629 19.751 53.8474 18.6976C52.733 17.6441 48.6957 14.8653 48.6957 14.8653Z" fill="#FFE799"/>
<path d="M56.8434 22.6506C56.9997 23.0587 46.0896 27.034 35.2982 35.4824C24.5067 43.9308 11.4776 54.7966 10.3077 55.1647L1.2605 48.5337C1.2605 48.5337 17.9777 32.708 28.7548 26.6625C39.5318 20.617 48.6267 14.6723 49.3197 14.9684C50.0117 15.2645 55.7101 19.6933 56.8434 22.6506Z" stroke="black" stroke-width="0.221773" stroke-miterlimit="10"/>
<path d="M1.26058 48.5337L1 50.1571L11.4322 57.3802C11.4322 57.3802 34.1561 40.296 40.7317 35.0577C47.3072 29.8194 54.3596 26.5083 54.3596 26.5083L56.8424 22.6495" stroke="black" stroke-width="0.221773" stroke-miterlimit="10"/>
<path d="M68.2715 25.609L48.9906 31.4627L39.257 34.8303L18.692 49.1901L14.9751 52.2861L16.9611 53.9094C16.9611 53.9094 22.4311 58.55 21.8988 57.9457C21.3655 57.3414 47.0423 47.1365 47.0423 47.1365L53.5469 44.2745C53.5469 44.2745 63.5666 40.2693 64.0889 40.1074C64.6111 39.9444 72.3909 35.6454 72.3909 35.6454L74.3137 35.122C74.3137 35.122 73.1838 31.8553 72.3532 30.5657C71.5238 29.2761 68.2715 25.609 68.2715 25.609Z" fill="#FFE799"/>
<path d="M74.3137 35.1231C74.368 35.5567 62.8225 36.7997 50.3201 42.4128C37.8177 48.0258 23.1219 57.8703 21.8988 57.9468L14.9751 52.2861C14.9751 52.2861 34.1706 35.5633 46.0831 32.28C57.9957 28.9966 68.2504 25.4072 68.8525 25.8608C69.4536 26.3132 73.9234 31.9795 74.3137 35.1231Z" stroke="black" stroke-width="0.221773" stroke-miterlimit="10"/>
<path d="M14.9761 52.285L21.8998 57.9457C21.8998 57.9457 48.0579 46.8105 55.6991 43.3032C63.3403 39.7959 74.3158 35.122 74.3158 35.122" stroke="black" stroke-width="0.221773" stroke-miterlimit="10"/>
<path d="M67.6516 44.4209L47.1498 41.1963C47.1498 41.1963 37.6469 39.7116 33.2114 39.5419C28.776 39.3723 9.52832 39.4965 9.52832 39.4965L6.2228 39.6284L4.49076 40.673C4.49076 40.673 3.77998 53.3739 3.82211 52.6154C3.86425 51.857 33.0828 54.0447 33.0828 54.0447L40.704 54.3574C40.704 54.3574 52.1242 55.1913 52.6831 55.2756C53.2419 55.3598 59.2176 56.5075 59.2176 56.5075L65.0513 55.3421C65.0513 55.3421 66.7202 52 67.0639 50.5141C67.4077 49.0305 67.6516 44.4209 67.6516 44.4209Z" fill="#FFE799"/>
<path d="M65.0514 55.3444C64.7509 55.7469 54.2743 51.8392 39.5353 51.3369C24.7963 50.8346 6.35481 50.7226 5.28809 50.2602L6.22397 39.6307C6.22397 39.6307 31.7123 38.371 44.1127 40.653C56.5131 42.9351 67.7969 44.2347 67.9311 44.8911C68.0631 45.5464 67.2292 52.4292 65.0514 55.3444Z" stroke="black" stroke-width="0.221773" stroke-miterlimit="10"/>
<path d="M6.22271 39.6295L4.49067 40.6741L3.82202 52.6166C3.82202 52.6166 34.176 54.2 43.2443 54.4395C52.3126 54.679 59.8041 56.6528 59.8041 56.6528L65.0512 55.3432" stroke="black" stroke-width="0.221773" stroke-miterlimit="10"/>
</svg>
