<svg width="32" height="31" viewBox="0 0 32 31" fill="none" xmlns="http://www.w3.org/2000/svg">
<g clip-path="url(#clip0_8203_9090)">
<mask id="mask0_8203_9090" style="mask-type:luminance" maskUnits="userSpaceOnUse" x="1" y="0" width="30" height="30">
<path d="M15.9992 28.0316C17.6671 28.0338 19.319 27.7063 20.8599 27.068C22.4008 26.4297 23.8004 25.4932 24.9783 24.3122C26.1592 23.1344 27.0957 21.7348 27.734 20.1939C28.3723 18.653 28.6998 17.0011 28.6976 15.3332C28.6997 13.6653 28.3723 12.0134 27.734 10.4725C27.0957 8.93159 26.1592 7.53199 24.9783 6.35414C23.8004 5.17321 22.4008 4.23668 20.8599 3.59839C19.319 2.96009 17.6671 2.63262 15.9992 2.63478C14.3313 2.63265 12.6794 2.96014 11.1385 3.59843C9.5976 4.23673 8.198 5.17323 7.02016 6.35414C5.83925 7.53199 4.90274 8.93159 4.26445 10.4725C3.62616 12.0134 3.29867 13.6653 3.30079 15.3332C3.29863 17.0011 3.62611 18.653 4.2644 20.1939C4.9027 21.7348 5.83922 23.1344 7.02016 24.3122C8.198 25.4931 9.5976 26.4297 11.1385 27.0679C12.6794 27.7062 14.3313 28.0337 15.9992 28.0316Z" fill="white" stroke="white" stroke-width="3.80952" stroke-linejoin="round"/>
<path d="M10.9199 15.3339L14.7294 19.1435L22.3485 11.5244" stroke="black" stroke-width="3.80952" stroke-linecap="round" stroke-linejoin="round"/>
</mask>
<g mask="url(#mask0_8203_9090)">
<path d="M0.761719 0.0958862H31.2379V30.5721H0.761719V0.0958862Z" fill="#0CC14C"/>
</g>
</g>
<defs>
<clipPath id="clip0_8203_9090">
<rect width="30.4762" height="30.4762" fill="white" transform="translate(0.761719 0.09552)"/>
</clipPath>
</defs>
</svg>
