<svg width="72" height="38" viewBox="0 0 72 38" fill="none" xmlns="http://www.w3.org/2000/svg">
<path d="M47.3184 32.387C49.6192 33.5587 50.7561 35.9386 50.7561 35.9386C50.7561 35.9386 48.1626 36.4189 45.8618 35.2472C43.561 34.0755 42.4241 31.6956 42.4241 31.6956C42.4241 31.6956 45.0175 31.2153 47.3184 32.387Z" fill="#D3A500"/>
<path d="M53.544 30.0273C55.9817 30.8782 57.429 33.0832 57.429 33.0832C57.429 33.0832 54.9239 33.9086 52.4862 33.0577C50.0484 32.2068 48.6012 30.0018 48.6012 30.0018C48.6012 30.0018 51.1062 29.1764 53.544 30.0273Z" fill="#D3A500"/>
<path d="M58.7788 26.3452C61.0487 26.8578 62.5702 28.6841 62.5702 28.6841C62.5702 28.6841 60.4115 29.6795 58.1416 29.1669C55.8718 28.6543 54.3503 26.828 54.3503 26.828C54.3503 26.828 56.509 25.8326 58.7788 26.3452Z" fill="#D3A500"/>
<path d="M63.6245 21.0491C65.9513 21.0156 67.8583 22.4348 67.8583 22.4348C67.8583 22.4348 65.9928 23.9081 63.6661 23.9416C61.3393 23.975 59.4323 22.5559 59.4323 22.5559C59.4323 22.5559 61.2978 21.0825 63.6245 21.0491Z" fill="#D3A500"/>
<path d="M67.3009 14.7508C69.5826 14.294 71.7162 15.3419 71.7162 15.3419C71.7162 15.3419 70.1504 17.1305 67.8687 17.5873C65.587 18.0441 63.4534 16.9961 63.4534 16.9961C63.4534 16.9961 65.0192 15.2076 67.3009 14.7508Z" fill="#D3A500"/>
<path d="M68.0658 7.66645C69.4252 6.71787 71.1168 6.79383 71.1168 6.79383C71.1168 6.79383 70.6044 8.40774 69.245 9.35633C67.8857 10.3049 66.1941 10.2289 66.1941 10.2289C66.1941 10.2289 66.7065 8.61503 68.0658 7.66645Z" fill="#D3A500"/>
<path d="M46.0107 28.3699C44.839 30.6707 42.459 31.8076 42.459 31.8076C42.459 31.8076 41.9788 29.2142 43.1504 26.9134C44.3221 24.6126 46.7021 23.4757 46.7021 23.4757C46.7021 23.4757 47.1824 26.0691 46.0107 28.3699Z" fill="#D3A500"/>
<path d="M51.665 26.2033C50.8141 28.6411 48.6091 30.0883 48.6091 30.0883C48.6091 30.0883 47.7837 27.5833 48.6346 25.1455C49.4855 22.7078 51.6905 21.2605 51.6905 21.2605C51.6905 21.2605 52.5159 23.7656 51.665 26.2033Z" fill="#D3A500"/>
<path d="M56.7061 23.1133C56.1936 25.3832 54.3672 26.9046 54.3672 26.9046C54.3672 26.9046 53.3718 24.746 53.8844 22.4761C54.397 20.2063 56.2234 18.6848 56.2234 18.6848C56.2234 18.6848 57.2187 20.8435 56.7061 23.1133Z" fill="#D3A500"/>
<path d="M60.8519 18.3927C60.8854 20.7194 59.4662 22.6264 59.4662 22.6264C59.4662 22.6264 57.9929 20.761 57.9595 18.4342C57.926 16.1075 59.3452 14.2005 59.3452 14.2005C59.3452 14.2005 60.8185 16.0659 60.8519 18.3927Z" fill="#D3A500"/>
<path d="M64.0908 12.6442C64.5476 14.9259 63.4997 17.0595 63.4997 17.0595C63.4997 17.0595 61.7111 15.4938 61.2543 13.212C60.7975 10.9303 61.8455 8.79669 61.8455 8.79669C61.8455 8.79669 63.634 10.3625 64.0908 12.6442Z" fill="#D3A500"/>
<path d="M65.3698 7.20612C66.3184 8.56548 66.2425 10.2571 66.2425 10.2571C66.2425 10.2571 64.6285 9.7447 63.68 8.38534C62.7314 7.02598 62.8073 5.33439 62.8073 5.33439C62.8073 5.33439 64.4213 5.84676 65.3698 7.20612Z" fill="#D3A500"/>
<path d="M67.9303 3.00118C67.9303 4.65879 66.8999 6.00255 66.8999 6.00255C66.8999 6.00255 65.8696 4.65879 65.8696 3.00118C65.8696 1.34357 66.8999 -0.000183105 66.8999 -0.000183105C66.8999 -0.000183105 67.9303 1.34357 67.9303 3.00118Z" fill="#D3A500"/>
<path fill-rule="evenodd" clip-rule="evenodd" d="M68.8015 9.70777C68.809 9.46425 68.8128 9.21979 68.8128 8.97444C68.8128 8.42945 68.7941 7.88883 68.7573 7.35318C69.9623 6.78157 71.1919 6.83678 71.1919 6.83678C71.1919 6.83678 70.6796 8.4507 69.3202 9.39928C69.1511 9.51725 68.9769 9.61937 68.8015 9.70777ZM63.3432 23.9763C64.0572 23.1283 64.7118 22.2286 65.3006 21.2838C66.841 21.6645 67.9337 22.4777 67.9337 22.4777C67.9337 22.4777 66.0682 23.951 63.7415 23.9844C63.6072 23.9864 63.4743 23.9835 63.3432 23.9763ZM57.4619 28.9845C58.4777 28.3763 59.4434 27.693 60.3512 26.9421C61.7679 27.6734 62.6457 28.7271 62.6457 28.7271C62.6457 28.7271 60.487 29.7224 58.2172 29.2099C57.955 29.1507 57.7029 29.0739 57.4619 28.9845ZM50.2944 31.7879C51.7617 31.4816 53.1783 31.0372 54.5301 30.4691C56.4131 31.4641 57.504 33.1262 57.504 33.1262C57.504 33.1262 54.999 33.9516 52.5612 33.1007C51.6638 32.7874 50.9005 32.2906 50.2944 31.7879ZM67.1368 0.279526C67.473 1.11524 67.7623 1.97494 68.0012 2.85535C67.9473 1.69445 67.4119 0.712295 67.1368 0.279526ZM42.7036 32.1131C43.6228 32.2233 44.5584 32.28 45.5072 32.28C45.9994 32.28 46.488 32.2648 46.9725 32.2347C47.1135 32.2941 47.2541 32.359 47.3935 32.4301C49.6944 33.6017 50.8312 35.9817 50.8312 35.9817C50.8312 35.9817 48.2378 36.462 45.937 35.2903C44.1988 34.4051 43.1249 32.8304 42.7036 32.1131ZM67.1101 17.7355C67.5086 16.7537 67.8422 15.7385 68.1055 14.6954C70.0925 14.5506 71.7913 15.385 71.7913 15.385C71.7913 15.385 70.2256 17.1735 67.9438 17.6303C67.6624 17.6867 67.3833 17.7201 67.1101 17.7355Z" fill="url(#paint0_linear_10370_1522)"/>
<path d="M24.6816 32.387C22.3808 33.5587 21.2439 35.9386 21.2439 35.9386C21.2439 35.9386 23.8374 36.4189 26.1382 35.2472C28.439 34.0755 29.5759 31.6956 29.5759 31.6956C29.5759 31.6956 26.9825 31.2153 24.6816 32.387Z" fill="#D3A500"/>
<path d="M18.456 30.0273C16.0183 30.8782 14.571 33.0832 14.571 33.0832C14.571 33.0832 17.0761 33.9086 19.5138 33.0577C21.9516 32.2068 23.3988 30.0018 23.3988 30.0018C23.3988 30.0018 20.8938 29.1764 18.456 30.0273Z" fill="#D3A500"/>
<path d="M13.2212 26.3452C10.9513 26.8578 9.42985 28.6841 9.42985 28.6841C9.42985 28.6841 11.5885 29.6795 13.8584 29.1669C16.1282 28.6543 17.6497 26.828 17.6497 26.828C17.6497 26.828 15.491 25.8326 13.2212 26.3452Z" fill="#D3A500"/>
<path d="M8.37548 21.0491C6.04873 21.0156 4.14174 22.4348 4.14174 22.4348C4.14174 22.4348 6.00716 23.9081 8.33392 23.9416C10.6607 23.975 12.5677 22.5559 12.5677 22.5559C12.5677 22.5559 10.7022 21.0825 8.37548 21.0491Z" fill="#D3A500"/>
<path d="M4.69913 14.7508C2.41741 14.294 0.283783 15.3419 0.283783 15.3419C0.283783 15.3419 1.84956 17.1305 4.13128 17.5873C6.413 18.0441 8.54662 16.9961 8.54662 16.9961C8.54662 16.9961 6.98085 15.2076 4.69913 14.7508Z" fill="#D3A500"/>
<path d="M3.93419 7.66645C2.57483 6.71787 0.883237 6.79383 0.883237 6.79383C0.883237 6.79383 1.39561 8.40774 2.75497 9.35633C4.11433 10.3049 5.80592 10.2289 5.80592 10.2289C5.80592 10.2289 5.29355 8.61503 3.93419 7.66645Z" fill="#D3A500"/>
<path d="M25.9893 28.3699C27.161 30.6707 29.541 31.8076 29.541 31.8076C29.541 31.8076 30.0212 29.2142 28.8496 26.9134C27.6779 24.6126 25.2979 23.4757 25.2979 23.4757C25.2979 23.4757 24.8176 26.0691 25.9893 28.3699Z" fill="#D3A500"/>
<path d="M20.335 26.2033C21.1859 28.6411 23.3909 30.0883 23.3909 30.0883C23.3909 30.0883 24.2163 27.5833 23.3654 25.1455C22.5145 22.7078 20.3095 21.2605 20.3095 21.2605C20.3095 21.2605 19.4841 23.7656 20.335 26.2033Z" fill="#D3A500"/>
<path d="M15.2943 23.1133C15.8069 25.3832 17.6333 26.9046 17.6333 26.9046C17.6333 26.9046 18.6286 24.746 18.1161 22.4761C17.6035 20.2063 15.7771 18.6848 15.7771 18.6848C15.7771 18.6848 14.7818 20.8435 15.2943 23.1133Z" fill="#D3A500"/>
<path d="M11.1481 18.3927C11.1146 20.7194 12.5338 22.6264 12.5338 22.6264C12.5338 22.6264 14.0071 20.761 14.0405 18.4342C14.074 16.1075 12.6548 14.2005 12.6548 14.2005C12.6548 14.2005 11.1815 16.0659 11.1481 18.3927Z" fill="#D3A500"/>
<path d="M7.90917 12.6442C7.45238 14.9259 8.50033 17.0595 8.50033 17.0595C8.50033 17.0595 10.2889 15.4938 10.7457 13.212C11.2025 10.9303 10.1545 8.79669 10.1545 8.79669C10.1545 8.79669 8.36596 10.3625 7.90917 12.6442Z" fill="#D3A500"/>
<path d="M6.63016 7.20612C5.68158 8.56548 5.75754 10.2571 5.75754 10.2571C5.75754 10.2571 7.37146 9.7447 8.32004 8.38534C9.26862 7.02598 9.19266 5.33439 9.19266 5.33439C9.19266 5.33439 7.57875 5.84676 6.63016 7.20612Z" fill="#D3A500"/>
<path d="M4.06924 3.00118C4.06924 4.65879 5.09956 6.00255 5.09956 6.00255C5.09956 6.00255 6.12988 4.65879 6.12988 3.00118C6.12988 1.34357 5.09956 -0.000183105 5.09956 -0.000183105C5.09956 -0.000183105 4.06924 1.34357 4.06924 3.00118Z" fill="#D3A500"/>
<path fill-rule="evenodd" clip-rule="evenodd" d="M3.19837 9.70755C3.19084 9.46395 3.18704 9.21942 3.18704 8.974C3.18704 8.42908 3.20575 7.88852 3.24254 7.35294C2.03755 6.78134 0.80793 6.83656 0.80793 6.83656C0.80793 6.83656 1.3203 8.45047 2.67966 9.39905C2.84872 9.51702 3.02292 9.61915 3.19837 9.70755ZM8.65688 23.976C7.94286 23.128 7.28822 22.2284 6.69935 21.2835C5.15896 21.6642 4.06621 22.4774 4.06621 22.4774C4.06621 22.4774 5.93163 23.9508 8.25838 23.9842C8.39271 23.9861 8.52564 23.9832 8.65688 23.976ZM14.5382 28.9842C13.5224 28.376 12.5567 27.6926 11.6488 26.9418C10.232 27.6731 9.35419 28.7268 9.35419 28.7268C9.35419 28.7268 11.5129 29.7222 13.7827 29.2096C14.0449 29.1504 14.2972 29.0737 14.5382 28.9842ZM21.7057 31.7875C20.2384 31.4812 18.8217 31.0369 17.4699 30.4687C15.5869 31.4637 14.4958 33.126 14.4958 33.126C14.4958 33.126 17.0009 33.9514 19.4386 33.1005C20.3362 32.7872 21.0995 32.2903 21.7057 31.7875ZM4.86285 0.279663C4.52669 1.11518 4.23754 1.97467 3.99866 2.85486C4.05268 1.69439 4.58767 0.712587 4.86285 0.279663ZM29.2964 32.1127C28.3772 32.2229 27.4415 32.2796 26.4926 32.2796C26.0006 32.2796 25.5122 32.2643 25.0278 32.2343C24.8866 32.2937 24.7459 32.3587 24.6063 32.4298C22.3055 33.6015 21.1686 35.9815 21.1686 35.9815C21.1686 35.9815 23.7621 36.4617 26.0629 35.2901C27.8013 34.4048 28.8752 32.8298 29.2964 32.1127ZM4.88989 17.7352C4.49132 16.7534 4.15772 15.7383 3.89446 14.6952C1.90742 14.5503 0.208523 15.3848 0.208523 15.3848C0.208523 15.3848 1.7743 17.1733 4.05602 17.6301C4.33747 17.6864 4.61667 17.7199 4.88989 17.7352Z" fill="url(#paint1_linear_10370_1522)"/>
<defs>
<linearGradient id="paint0_linear_10370_1522" x1="64.6609" y1="8.08917" x2="44.7044" y2="21.412" gradientUnits="userSpaceOnUse">
<stop stop-color="#DFB10C"/>
<stop offset="1" stop-color="#DDAF0D"/>
</linearGradient>
<linearGradient id="paint1_linear_10370_1522" x1="7.33901" y1="8.08923" x2="27.2954" y2="21.4122" gradientUnits="userSpaceOnUse">
<stop stop-color="#DFB10C"/>
<stop offset="1" stop-color="#DDAF0D"/>
</linearGradient>
</defs>
</svg>
