<svg width="58" height="59" viewBox="0 0 58 59" fill="none" xmlns="http://www.w3.org/2000/svg">
<path d="M1.13172 4.49817C0.852245 3.59068 37.385 -0.95001 50.1975 36.4083C50.1975 36.4083 15.8091 52.226 1.13172 4.49817Z" fill="#007F67" stroke="black" stroke-width="0.240928" stroke-miterlimit="10"/>
<path d="M50.3774 36.3665C44.7846 34.142 39.428 31.3199 34.4312 27.9646C31.9882 26.3246 29.6271 24.5546 27.4362 22.5903C22.4795 18.1459 18.3725 12.6929 12.7894 9.06938C9.24937 6.77093 5.18572 5.28199 1 4.74713" stroke="black" stroke-width="0.240928" stroke-miterlimit="10"/>
<path d="M14.3746 5.13742C15.6275 8.1956 16.8466 11.2682 18.0319 14.3537" stroke="black" stroke-width="0.240928" stroke-miterlimit="10"/>
<path d="M17.3912 12.974C17.0796 12.9034 17.1502 12.3219 17.4699 12.3299C17.7895 12.338 17.8329 12.921 17.5181 12.9772C14.0053 12.9788 10.4926 13.3804 7.07141 14.1722" stroke="black" stroke-width="0.240928" stroke-miterlimit="10"/>
<path d="M20.1747 6.12201C21.3938 8.34658 21.6957 10.9358 22.2531 13.4093C22.8104 15.8828 21.8178 17.7476 23.8721 19.2349" stroke="black" stroke-width="0.240928" stroke-miterlimit="10"/>
<path d="M24.9674 19.161C19.7505 19.4967 14.5433 20.001 9.35852 20.6708" stroke="black" stroke-width="0.240928" stroke-miterlimit="10"/>
<path d="M28.2408 9.42273C32.0893 15.0958 31.7327 22.8906 35.7449 28.4496" stroke="black" stroke-width="0.240928" stroke-miterlimit="10"/>
<path d="M34.0232 27.1936C26.4436 26.7374 18.856 26.3921 11.2667 26.1592" stroke="black" stroke-width="0.240928" stroke-miterlimit="10"/>
<path d="M38.0708 16.1687C39.3124 21.8803 40.6005 27.714 43.6443 32.7044" stroke="black" stroke-width="0.240928" stroke-miterlimit="10"/>
<path d="M44.6609 33.228C37.3785 33.3822 30.0976 33.538 22.8152 33.6922" stroke="black" stroke-width="0.240928" stroke-miterlimit="10"/>
<path d="M7.47131 3.86374C8.49124 5.10372 9.40516 6.43043 10.1986 7.8262" stroke="black" stroke-width="0.240928" stroke-miterlimit="10"/>
<path d="M10.3094 7.61093C7.41664 8.04621 4.54638 8.61962 1.70825 9.32955" stroke="black" stroke-width="0.240928" stroke-miterlimit="10"/>
<path d="M44.4601 6.19004C44.8875 6.21535 41.0387 22.3329 23.2684 21.8441C23.2684 21.8418 22.022 4.84985 44.4601 6.19004Z" fill="#007F67" stroke="black" stroke-width="0.240928" stroke-miterlimit="10"/>
<path d="M23.2571 21.9249C25.077 19.9174 27.1122 18.1055 29.3145 16.5272C30.3921 15.7555 31.5092 15.0399 32.6845 14.4258C35.3407 13.0371 38.2864 12.1666 40.6947 10.383C42.2223 9.25346 43.4913 7.77458 44.3767 6.09366" stroke="black" stroke-width="0.240928" stroke-miterlimit="10"/>
<path d="M42.1012 11.6713C40.6139 11.7166 39.1263 11.746 37.6385 11.7596" stroke="black" stroke-width="0.240928" stroke-miterlimit="10"/>
<path d="M38.3227 11.7071C38.4015 11.5866 38.635 11.708 38.5814 11.8418C38.5278 11.9755 38.2745 11.9021 38.3007 11.7597C38.8541 10.2781 39.2396 8.73423 39.4441 7.16702" stroke="black" stroke-width="0.240928" stroke-miterlimit="10"/>
<path d="M40.7718 13.9621C39.6419 14.1258 38.5028 13.8444 37.3714 13.6889C36.24 13.5335 35.6113 12.8206 34.6599 13.453" stroke="black" stroke-width="0.240928" stroke-miterlimit="10"/>
<path d="M34.5183 13.9265C35.1997 11.674 35.808 9.39977 36.3445 7.10737" stroke="black" stroke-width="0.240928" stroke-miterlimit="10"/>
<path d="M38.1077 16.8423C35.1086 17.5694 31.8788 16.1906 28.9027 17.0049" stroke="black" stroke-width="0.240928" stroke-miterlimit="10"/>
<path d="M29.7034 16.477C31.0917 13.3527 32.4331 10.2098 33.7288 7.04483" stroke="black" stroke-width="0.240928" stroke-miterlimit="10"/>
<path d="M33.7143 19.9225C31.1108 19.5452 28.4472 19.1677 25.8638 19.6647" stroke="black" stroke-width="0.240928" stroke-miterlimit="10"/>
<path d="M25.4817 20.0101C26.5649 16.9165 27.648 13.8207 28.7312 10.7272" stroke="black" stroke-width="0.240928" stroke-miterlimit="10"/>
<path d="M43.7263 8.96251C43.0427 9.19667 42.3388 9.3732 41.6261 9.4874" stroke="black" stroke-width="0.240928" stroke-miterlimit="10"/>
<path d="M41.7001 9.5681C41.9724 8.27929 42.1844 6.97889 42.3326 5.67038" stroke="black" stroke-width="0.240928" stroke-miterlimit="10"/>
<path d="M32.6229 10.7609C32.6229 10.7609 40.4868 10.7689 47.3998 17.6096C54.3112 24.4504 58.5949 37.5328 57.2859 44.8152C55.9768 52.0977 49.5698 55.2024 49.5698 55.2024C49.5698 55.2024 40.7695 60.4852 28.6893 58.0968C16.6092 55.7084 13.6185 43.7262 13.9188 34.8344C14.2192 25.9425 19.1582 13.0673 32.6229 10.7609Z" fill="#E51B1B"/>
<path d="M28.5866 11.8434C31.4247 10.6195 34.6243 10.4975 37.525 11.5077C41.8505 13.016 48.3331 16.5319 52.5589 24.5982C59.3836 37.6292 60.834 51.2801 46.5341 56.5725C32.2343 61.8649 16.5643 57.949 14.2723 41.7892C12.2533 27.5487 18.2139 16.3135 28.5866 11.8434Z" stroke="black" stroke-width="0.321237" stroke-miterlimit="10"/>
</svg>
